<svg xmlns="http://www.w3.org/2000/svg" viewBox="0 0 37.741 70"><g data-name="Grupo 1369"><path data-name="Trazado 2280" d="M34.761 1.971l-2.88-.772a71.142 71.142 0 00-26.021 0l-2.88.772A4.168 4.168 0 000 5.749v61.269a2.979 2.979 0 003.751 2.878 71.149 71.149 0 0130.238 0 2.979 2.979 0 003.751-2.878V5.749a4.168 4.168 0 00-2.979-3.778z" fill="#d6d6d6"/><path data-name="Trazado 2281" d="M5.86 69.473V1.2l-2.88.772A4.168 4.168 0 000 5.75v61.269a2.979 2.979 0 003.751 2.878 13.821 13.821 0 011.6-.328z" fill="#c1c1c1"/><path data-name="Trazado 2282" d="M31.881 23.093V1.2a71.142 71.142 0 00-26.021 0v47.915a139.312 139.312 0 0026.021-26.021z" fill="#ddd"/><path data-name="Trazado 2283" d="M5.86 48.929V1.2l-2.88.772A4.168 4.168 0 000 5.75v49.039z" fill="#cecece"/><g data-name="Grupo 1363"><path data-name="Trazado 2284" d="M29.727 4.541a106.283 106.283 0 00-21.714 0 .8.8 0 00-.717.875.8.8 0 00.88.705 104.7 104.7 0 0121.389 0 .8.8 0 00.88-.705.8.8 0 00-.718-.875z"/><path data-name="Trazado 2285" d="M30.445 5.416a.782.782 0 000-.094 107.057 107.057 0 00-12.19-.236c-3.807.143-7.341.48-10.569.925a.8.8 0 00.49.111 104.7 104.7 0 0121.389 0 .8.8 0 00.88-.706z" fill="#282727"/></g><g data-name="Grupo 1364"><path data-name="Trazado 2286" d="M29.727 7.719a106.285 106.285 0 00-21.714 0 .8.8 0 00-.717.875.8.8 0 00.88.705 104.7 104.7 0 0121.389 0 .8.8 0 00.88-.705.8.8 0 00-.718-.875z"/><path data-name="Trazado 2287" d="M30.445 8.594a.782.782 0 000-.094 107.054 107.054 0 00-12.19-.236c-3.807.143-7.341.48-10.569.925a.8.8 0 00.49.111 104.7 104.7 0 0121.389 0 .8.8 0 00.88-.706z" fill="#282727"/></g><g data-name="Grupo 1365"><path data-name="Trazado 2288" d="M29.727 10.897a106.285 106.285 0 00-21.714 0 .8.8 0 00-.717.875.8.8 0 00.88.705 104.7 104.7 0 0121.389 0 .8.8 0 00.88-.705.8.8 0 00-.718-.875z"/><path data-name="Trazado 2289" d="M30.445 11.772a.783.783 0 000-.094 107.058 107.058 0 00-12.19-.236c-3.807.143-7.341.48-10.569.925a.8.8 0 00.49.111 104.7 104.7 0 0121.389 0 .8.8 0 00.88-.706z" fill="#282727"/></g><path data-name="Trazado 2290" d="M34.761 1.972l-2.88-.772v68.273l.507.095a13.813 13.813 0 011.6.329 3.007 3.007 0 00.7.1 2.982 2.982 0 003.046-2.98V5.75a4.168 4.168 0 00-2.973-3.778z" fill="#c1c1c1"/><g data-name="Grupo 1366"><path data-name="Trazado 2291" d="M29.727 14.075a106.285 106.285 0 00-21.714 0 .8.8 0 00-.717.875.8.8 0 00.88.705 104.7 104.7 0 0121.389 0 .8.8 0 00.88-.705.8.8 0 00-.718-.875z"/><path data-name="Trazado 2292" d="M30.445 14.95a.783.783 0 000-.094 107.058 107.058 0 00-12.19-.236c-3.807.143-7.341.48-10.569.925a.8.8 0 00.49.111 104.7 104.7 0 0121.389 0 .8.8 0 00.88-.706z" fill="#282727"/></g><path data-name="Trazado 2293" d="M37.741 17.234V5.75a4.168 4.168 0 00-2.98-3.778l-2.88-.772v21.894z" fill="#cecece"/><g data-name="Grupo 1367" opacity=".7"><path data-name="Trazado 2294" d="M9.787 23.163q1.11-.173 2.224-.305c1.629-.194 2.694.212 2.7 2.032 0 1.07-.189 1.785-.989 2.222q.559 2.053 1.117 4.154h-1.853q-.448-1.908-.9-3.772l-.51.028v3.746H9.784zm2.288 3.264c.75-.049.97-.5.969-1.261 0-.726-.212-1.143-.892-1.075l-.58.06v2.312z"/><path data-name="Trazado 2295" d="M15.797 22.532q.9-.049 1.8-.071v8.8h-1.791l-.009-8.729z"/><path data-name="Trazado 2296" d="M18.7 28.488V25.21c0-1.812.613-2.907 2.44-2.851 1.838.076 2.457 1.194 2.455 2.968v3.216c0 1.78-.625 2.848-2.457 2.852s-2.437-1.089-2.438-2.907zm3.057.506v-4.219c0-.518-.059-1.031-.621-1.049-.532-.015-.6.5-.6 1.017v4.239c0 .5.04 1.033.6 1.035s.622-.525.622-1.023z"/><path data-name="Trazado 2297" d="M25.339 24.166q-.61-.054-1.221-.1v-1.414q2.119.179 4.225.508v1.332q-.6-.079-1.206-.148v6.925h-1.8q-.002-3.551.002-7.103z"/></g></g></svg>