<svg xmlns="http://www.w3.org/2000/svg" viewBox="0 0 23.518 19.181"><path data-name="Unión 90" d="M3.461 15.744l-.045-.078a1.508 1.508 0 01.55-2.058c3.008-1.687 6.33-3.48 9.338-5.168h0A3.817 3.817 0 0014.5 6.985c.389-.86.213-1.432.646-2.33q.048-.097.1-.188a.079.079 0 01-.02-.027l-.033-.055a.037.037 0 01.013-.052l.19-.109a.181.181 0 00-.248-.066.078.078 0 01-.103-.03l-.033-.057a.038.038 0 01.013-.051l.19-.109a.181.181 0 00-.246-.062.078.078 0 01-.105-.035l-.042-.072a.234.234 0 01.082-.317l.11-.064a.383.383 0 01.234-.047.372.372 0 01.218.105.48.48 0 01.074.1l.043.074a.518.518 0 00.633.097c1.705-.911 3.548-.79 4.177.3l-2.999 1.731.95 1.646a.643.643 0 00.067.094l2.674-1.544.577.271c.648 1.123-.237 2.848-1.979 3.854l-.034.02-.08.046-.015.008a4.415 4.415 0 01-2.94.554 2.612 2.612 0 00-1.857.306c-2.966 1.762-6.18 3.742-9.144 5.503a1.508 1.508 0 01-2.06-.553 1.525 1.525 0 01-.09-.182zm.338-.494h0zm2.218-.893a1.232 1.232 0 00-2.22.878 1.235 1.235 0 01.028-.457 1.156 1.156 0 102.206-.402 1.229 1.229 0 01.196.941 1.227 1.227 0 00-.145-.852.531.531 0 00-.063-.11zm-2.172-.306h0zm.107-.087h0zm.03-.017h0zm.03-.017h0zm1.383 2.328l.006-.003zM4.04 13.91h0zm1.378 2.34l.012-.006zM4.07 13.89h0zm1.373 2.352l.014-.009zm-1.341-2.377zm1.363 2.361l.017-.009zm-1.09-2.53a1.218 1.218 0 00-.268.166q.179-.104.362-.202c-.027.008-.06.021-.09.035zm1.118 2.519l.016-.01zm.03-.018h0zm.678-.79l.002-.007zm.006-.023l.007-.015zm.012-.018l.005-.02zm.006-.024l.004-.022zm6.359-6.165h0zm.136-.079h0zm.118-.068h0zm.29-.167h0zm.14-.082h0zm.164-.094h0zm2.651-.115h0zm-.84-1.455a.349.349 0 01-.023-.06l.726 1.258a.29.29 0 00.264.144l.183-.136-.147.107-.12-.207-.053.04a.055.055 0 01-.005.002.057.057 0 01-.074-.016l-.002-.004a.057.057 0 01.015-.074l1.052-.778a.056.056 0 01.063-.003h0l.008.015.004.006a.057.057 0 01-.016.074l-.147.109.12.209.147-.103a.056.056 0 01.063-.002h0l.007.01.004.008.003.005a.057.057 0 01-.015.074l-.143.102.06.104.043-.025-.052-.09.026-.015a.021.021 0 01.006-.003l.192-.11a.18.18 0 00-.246-.066.078.078 0 01-.106-.028l-.034-.059a.038.038 0 01.013-.051l.191-.11a.18.18 0 00-.245-.066.078.078 0 01-.102-.028l-.035-.06a.038.038 0 01.013-.052l.188-.108a.18.18 0 00-.245-.065.078.078 0 01-.107-.029l-.032-.056a.037.037 0 01.013-.05l.193-.112a.181.181 0 00-.248-.066.078.078 0 01-.107-.03l-.032-.056a.037.037 0 01.002-.039l-.058.043.12.208-.854.632-.122-.211-.054.039a.055.055 0 01-.005.003.057.057 0 01-.073-.015l-.01-.017a.057.057 0 01.024-.058l.062-.05-.12-.207-.054.04a.055.055 0 01-.005.002.057.057 0 01-.074-.016l-.002-.003a.057.057 0 01.015-.074l1.057-.776a.056.056 0 01.063-.003h0l.006.011.004.007.003.005a.057.057 0 01-.015.074l-.014.008.13-.075a.181.181 0 00-.247-.066.078.078 0 01-.057.008l-.061.043.05.086-.855.632-.068-.118a.29.29 0 00-.049.338zm1.148-.547l-.146.107.282-.208a.056.056 0 01.063-.003h0l.013.012.006.01a.055.055 0 01-.016.073l-.063.048.18-.104a.181.181 0 00-.248-.067.078.078 0 01-.107-.029l-.032-.056a.037.037 0 01-.004-.027l-.048.036zm-.879-3.07h0zm.3 4.435l-.007-.01a.057.057 0 01.021-.06l.066-.046-.121-.21-.054.039a.055.055 0 01-.005.003.057.057 0 01-.074-.016l-.01-.018a.057.057 0 01.021-.059l1.052-.778a.056.056 0 01.063-.003h0l.007.011.004.007.003.005a.057.057 0 01-.016.074l-.147.109.12.209.148-.107a.057.057 0 01.063-.002h0l.01.005.007.01a.056.056 0 01-.016.074l-.147.11.12.208-.854.632-.119-.206-.053.04a.055.055 0 01-.006.002.057.057 0 01-.073-.015l-.005-.008z" fill="#5f5234" stroke="rgba(0,0,0,0)" stroke-miterlimit="10"/></svg>