<svg xmlns="http://www.w3.org/2000/svg" width="45" height="20.79" viewBox="0 0 45 20.79">
  <g id="Grupo_680" data-name="Grupo 680" transform="translate(-2184.964 -275.649)">
    <path id="Trazado_1289" data-name="Trazado 1289" d="M2202,296.368a27.824,27.824,0,0,0-13.049,3.879,4.025,4.025,0,0,1-.132-2.281,3.972,3.972,0,0,1,.8-1.6Z" transform="translate(-0.688 -3.808)" fill="#387938"/>
    <path id="Trazado_1290" data-name="Trazado 1290" d="M2211.716,294.764a42.792,42.792,0,0,1,12.85,1.474,37.092,37.092,0,0,1,7.975,3.326,5,5,0,0,0,.416-1.02,6.107,6.107,0,0,0-.681-4.5C2215.724,294.5,2211.714,294.684,2211.716,294.764Z" transform="translate(-4.916 -3.381)" fill="#387938"/>
    <rect id="Rectángulo_1151" data-name="Rectángulo 1151" width="43.188" height="5.4" transform="translate(2185.818 287.447)" fill="#469f49"/>
    <path id="Trazado_1291" data-name="Trazado 1291" d="M2185.01,282.047q1.528-3.2,3.054-6.4h37.011l3.122,6.4Z" transform="translate(-0.008)" fill="#8ad975"/>
    <g id="Trazado_1292" data-name="Trazado 1292" transform="translate(-0.227 -0.138)" fill="none" stroke-miterlimit="10">
      <path d="M2226.306,279.254l-1.393-2.855h-36.243l-1.393,2.919-1.077,2.255h41.238Z" stroke="none"/>
      <path d="M 2226.236328125 280.8225708007812 L 2225.631591796875 279.5834045410156 L 2224.44384765625 277.1494140625 L 2206.788818359375 277.1491088867188 L 2189.142578125 277.1488037109375 L 2187.952880859375 279.6404418945312 L 2187.388671875 280.8225708007812 L 2226.236328125 280.8225708007812 M 2227.43701171875 281.5725708007812 L 2186.199462890625 281.5725708007812 L 2187.276123046875 279.3173217773438 L 2188.66943359375 276.3988037109375 L 2206.788818359375 276.3991088867188 L 2224.912353515625 276.3994140625 L 2226.3056640625 279.2544555664062 L 2227.43701171875 281.5725708007812 Z" stroke="none" fill="#479f4a"/>
    </g>
    <rect id="Rectángulo_1152" data-name="Rectángulo 1152" width="43.188" height="5.4" transform="translate(2185.002 282.047)" fill="#469f49"/>
    <ellipse id="Elipse_84" data-name="Elipse 84" cx="3.442" cy="1.286" rx="3.442" ry="1.286" transform="translate(2203.541 277.562)" fill="#479f4a"/>
    <ellipse id="Elipse_85" data-name="Elipse 85" cx="2.185" cy="0.816" rx="2.185" ry="0.816" transform="translate(2213.638 278.032)" fill="#f6fcf4"/>
    <ellipse id="Elipse_86" data-name="Elipse 86" cx="2.185" cy="0.816" rx="2.185" ry="0.816" transform="translate(2195.959 278.032)" fill="#f6fcf4"/>
    <path id="Trazado_1293" data-name="Trazado 1293" d="M2189.726,277.09v1.428a6.314,6.314,0,0,0,.744.046,4.377,4.377,0,0,0,3.606-1.473Z" transform="translate(-0.875 -0.265)" fill="#479f4a"/>
    <path id="Trazado_1294" data-name="Trazado 1294" d="M2232.365,277.09v1.428a6.331,6.331,0,0,1-.744.046,4.378,4.378,0,0,1-3.606-1.473Z" transform="translate(-7.911 -0.265)" fill="#479f4a"/>
    <path id="Trazado_1295" data-name="Trazado 1295" d="M2188.5,281.761v-1.428a6.506,6.506,0,0,1,.744-.045,4.379,4.379,0,0,1,3.606,1.472Z" transform="translate(-0.649 -0.853)" fill="#479f4a"/>
    <path id="Trazado_1296" data-name="Trazado 1296" d="M2233.508,281.714v-1.428a6.323,6.323,0,0,0-.745-.046,4.381,4.381,0,0,0-3.606,1.473Z" transform="translate(-8.122 -0.844)" fill="#479f4a"/>
    <path id="Trazado_1297" data-name="Trazado 1297" d="M2190.465,276.4q-1.234,2.587-2.47,5.173h-1.8c.087-.181,2.47-5.173,2.47-5.173h1.8Z" transform="translate(-0.227 -0.138)" fill="#479f4a"/>
    <path id="Trazado_1298" data-name="Trazado 1298" d="M2231.5,276.4q1.234,2.587,2.47,5.173h1.8c-.087-.181-2.47-5.173-2.47-5.173h-1.8Z" transform="translate(-8.551 -0.138)" fill="#479f4a"/>
    <path id="Trazado_1299" data-name="Trazado 1299" d="M2235.591,289.75a28.42,28.42,0,0,0-1.469-3.115v2.831h-16.879q3.936.029,8.168.244c3.664.192,7.163.486,10.485.853C2235.83,290.377,2235.727,290.093,2235.591,289.75Z" transform="translate(-5.932 -2.019)" fill="#8ad975"/>
    <path id="Trazado_1300" data-name="Trazado 1300" d="M2193.4,290.141l-7.384-.038-.01.468c1.184-.167,2.161-.249,2.86-.294C2189.85,290.214,2196.03,290.154,2193.4,290.141Z" transform="translate(-0.192 -2.656)" fill="#387938"/>
    <path id="Trazado_1301" data-name="Trazado 1301" d="M2201.649,282.047q.567-3.2,1.134-6.4h13.734l1.158,6.4Z" transform="translate(-3.066)" fill="#f7f3df"/>
    <rect id="Rectángulo_1153" data-name="Rectángulo 1153" width="16.026" height="10.8" transform="translate(2198.583 282.047)" fill="#f9f7ea"/>
    <rect id="Rectángulo_1154" data-name="Rectángulo 1154" width="0.813" height="10.8" transform="translate(2212.979 282.047)" fill="#f4d862"/>
    <rect id="Rectángulo_1155" data-name="Rectángulo 1155" width="0.813" height="10.8" transform="translate(2199.399 282.047)" fill="#f4d862"/>
    <g id="Grupo_662" data-name="Grupo 662" transform="translate(2199.399 275.649)">
      <path id="Trazado_1302" data-name="Trazado 1302" d="M2217.623,275.65h-.7l.923,6.4h.813Q2218.143,278.849,2217.623,275.65Z" transform="translate(-2204.269 -275.649)" fill="#eac953"/>
      <path id="Trazado_1303" data-name="Trazado 1303" d="M2203.667,275.649q-.51,3.2-1.018,6.4h.814q.45-3.2.9-6.4Z" transform="translate(-2202.649 -275.649)" fill="#eac953"/>
    </g>
    <path id="Trazado_1304" data-name="Trazado 1304" d="M2236.5,296.689v.025h-10.756a44.9,44.9,0,0,1,11.423,2.105C2236.985,298.142,2236.762,297.427,2236.5,296.689Z" transform="translate(-7.494 -3.867)" fill="#8ad975"/>
    <path id="Trazado_1305" data-name="Trazado 1305" d="M2185.819,296.688v.024h10.755a20.355,20.355,0,0,0-11.61,3.048,20.082,20.082,0,0,1,.49-1.984Q2185.629,297.2,2185.819,296.688Z" transform="translate(0 -3.866)" fill="#8ad975"/>
  </g>
</svg>
