<svg xmlns="http://www.w3.org/2000/svg" viewBox="0 0 27.491 30"><g data-name="Grupo 1185" fill="rgba(0,0,0,0.6)"><path data-name="Trazado 2232" d="M17.828 7.233a5.723 5.723 0 00-.659.1 4.814 4.814 0 00.659-.1z"/><path data-name="Trazado 2233" d="M24.935 4.666c-.817-.2-1.1-.261-1.391-.54-.41-.4-.409-.859-.634-2.027-.1-.5-.257-1.225-.5-2.1a17.7 17.7 0 01-.6 2.144c-.48 1.39-.742 1.588-.907 1.677-.853.459-2.088-.42-2.272-.557a4.845 4.845 0 01.913 1.6 1.642 1.642 0 01.12.78 1.859 1.859 0 01-.913 1.162 2.929 2.929 0 01-1.016.431 3.382 3.382 0 011.685.24.71.71 0 01.321.246 1.143 1.143 0 01-.117 1.085c-1.487-1.1-3.054-1.425-3.81-.686q-.475.537-.96 1.071A144.077 144.077 0 01.162 23.274a4.779 4.779 0 00-.089 2.048 5.437 5.437 0 001.534 2.79 7.248 7.248 0 00.7.635l.035.027.022.019.041.028a6.21 6.21 0 002.048 1.106 2.881 2.881 0 001.96-.265q1.38-1.614 2.88-3.24a116.668 116.668 0 0112.769-11.908h-.012l.009-.007c.928-.907.281-3.073-1.444-4.838-.056-.058-.114-.11-.17-.166a10.732 10.732 0 00.547-.933 1.525 1.525 0 01.463.206 1.571 1.571 0 01.611 1.478 4.879 4.879 0 01.551-2.078c1.342-2.533 4.539-2.832 4.875-2.858a205.34 205.34 0 00-2.557-.652zm-4.694 5.379c1.342 1.373 1.845 3.058 1.123 3.764s-2.4.165-3.738-1.208-1.845-3.059-1.123-3.765c.557-.543 1.678-.341 2.778.406l.061.044a6.4 6.4 0 01.529.416l-.891 1.569a10.636 10.636 0 001.155-1.326c.035.036.072.064.107.1zm-.566-1.189a1.828 1.828 0 01.6-.3 1.585 1.585 0 01.262-.027l-.4.707a6.57 6.57 0 00-.461-.38z"/></g></svg>