<svg xmlns="http://www.w3.org/2000/svg" viewBox="0 0 30 19.158"><g data-name="Grupo 1186" fill="rgba(0,0,0,0.6)"><path data-name="Trazado 2234" d="M14.754 7.591a10.228 10.228 0 01-.149-.965q-3.176 2.24-6.3 4.5a7.905 7.905 0 00.145 1.063 8.614 8.614 0 001.791 3.683l7.635-2.733a10.885 10.885 0 01-3.122-5.548z"/><path data-name="Trazado 2235" d="M29.105 9.119c1.293-.76 1.171-3.371-.275-5.831S25.164-.55 23.87.21q-.688.465-1.375.935-2.958 2.016-5.869 4.056a8.084 8.084 0 00.163 1.967 9.018 9.018 0 003.321 5.179l8.525-3.052a1.521 1.521 0 00.423-.151l.048-.018h-.016zm-.581-.989c-1.007.591-2.735-.481-3.86-2.4s-1.22-3.946-.214-4.538 2.735.481 3.86 2.4 1.221 3.946.215 4.537z"/><path data-name="Trazado 2236" d="M1.144 19.158L8.19 16.61a10.561 10.561 0 01-1.779-3.988c-.008-.035-.012-.07-.019-.105-.264.194-.525.389-.788.582l-3.114 2.3c-.339.252-.684.5-1.022.755L.003 17.238z"/></g></svg>