<svg xmlns="http://www.w3.org/2000/svg" viewBox="0 0 18.032 20"><g data-name="Grupo 974"><g data-name="Grupo 972" transform="translate(1.192 9.244)"><path data-name="Trazado 821" d="M0 3.5v3.721c0 1.953 3.6 3.535 8.034 3.535s8.034-1.583 8.034-3.535V3.5z" fill="#ffcf00"/><path data-name="Trazado 822" d="M7.789 10.755h.245c3.106 0 5.8-.776 7.137-1.911V3.5H7.789z" fill="#ffb600"/><path data-name="Trazado 823" d="M.831 8.789a8.235 8.235 0 003.622 1.6V3.5H.831z" fill="#ffb600"/><ellipse data-name="Elipse 53" cx="8.034" cy="3.535" rx="8.034" ry="3.535" fill="#ffe966"/><ellipse data-name="Elipse 54" cx="7.203" cy="2.893" rx="7.203" ry="2.893" transform="translate(.831 .643)" fill="#ffe52a"/><path data-name="Trazado 824" d="M8.034.943c3.853 0 7 1.215 7.193 2.743a1.192 1.192 0 00.01-.15c0-1.6-3.225-2.893-7.2-2.893s-7.2 1.3-7.2 2.893a1.189 1.189 0 00.01.15C1.035 2.154 4.181.943 8.034.943z" fill="#c58200"/><path data-name="Trazado 825" d="M8.034 10.434C3.597 10.434 0 8.851 0 6.899v.321c0 1.952 3.6 3.535 8.034 3.535s8.034-1.583 8.034-3.535v-.321c0 1.953-3.597 3.535-8.034 3.535z" fill="#8b4900"/></g><g data-name="Grupo 971" transform="translate(0 4.508)"><path data-name="Trazado 826" d="M0 3.499v3.722c0 1.952 3.6 3.535 8.034 3.535s8.034-1.583 8.034-3.535V3.499z" fill="#ffcf00"/><path data-name="Trazado 827" d="M7.785 10.754h.245c3.106 0 5.8-.776 7.137-1.911V3.497H7.785z" fill="#ffb600"/><path data-name="Trazado 828" d="M.831 8.788a8.232 8.232 0 003.622 1.6V3.501H.831z" fill="#ffb600"/><ellipse data-name="Elipse 55" cx="8.034" cy="3.535" rx="8.034" ry="3.535" fill="#ffe966"/><ellipse data-name="Elipse 98" cx="7.203" cy="2.893" rx="7.203" ry="2.893" transform="translate(.831 .643)" fill="#ffe52a"/><path data-name="Trazado 829" d="M8.034.943c3.853 0 7 1.215 7.193 2.742a1.189 1.189 0 00.01-.15c0-1.6-3.225-2.892-7.2-2.892s-7.2 1.295-7.2 2.892a1.188 1.188 0 00.01.15C1.035 2.158 4.181.943 8.034.943z" fill="#c58200"/><path data-name="Trazado 830" d="M8.034 10.435C3.597 10.435 0 8.852 0 6.9v.321c0 1.953 3.6 3.535 8.034 3.535s8.034-1.583 8.034-3.535V6.9c.003 1.952-3.597 3.535-8.034 3.535z" fill="#8b4900"/></g><g data-name="Grupo 970" transform="translate(1.965)"><path data-name="Trazado 831" d="M0 3.499V7.22c0 1.953 3.6 3.535 8.034 3.535s8.034-1.583 8.034-3.535V3.499z" fill="#ffcf00"/><path data-name="Trazado 832" d="M7.789 10.754h.245c3.106 0 5.8-.776 7.137-1.911V3.497H7.789z" fill="#ffb600"/><path data-name="Trazado 833" d="M.831 8.788a8.234 8.234 0 003.622 1.6V3.501H.831z" fill="#ffb600"/><ellipse data-name="Elipse 57" cx="8.034" cy="3.535" rx="8.034" ry="3.535" fill="#ffe966"/><ellipse data-name="Elipse 58" cx="7.203" cy="2.893" rx="7.203" ry="2.893" transform="translate(.831 .643)" fill="#ffe52a"/><path data-name="Trazado 834" d="M8.034.943c3.853 0 7 1.215 7.193 2.742a1.189 1.189 0 00.01-.15c0-1.6-3.225-2.892-7.2-2.892s-7.2 1.295-7.2 2.892a1.187 1.187 0 00.01.15C1.035 2.159 4.181.943 8.034.943z" fill="#c58200"/><path data-name="Trazado 835" d="M8.034 10.434C3.597 10.434 0 8.851 0 6.899v.321c0 1.953 3.6 3.536 8.034 3.536s8.034-1.583 8.034-3.536v-.321c0 1.953-3.597 3.535-8.034 3.535z" fill="#8b4900"/></g></g></svg>