<svg xmlns="http://www.w3.org/2000/svg" viewBox="0 0 55.773 70"><g data-name="Grupo 633"><path data-name="Rect치ngulo 1051" d="M40.889 46.515l1.2805-.6544 5.3031 10.3775a.719.719 0 01-.313.9675.719.719 0 01-.9675-.3131L40.889 46.515z" fill="#eecf82"/><path data-name="Rect치ngulo 1052" d="M17.334.654l.5085-.2598a.866.866 0 011.1652.377l4.8717 9.5334a.719.719 0 01-.313.9674.719.719 0 01-.9666-.3135L17.334.654z" fill="#eecf82"/><path data-name="Trazado 1239" d="M31.221 58.749C14.006 58.749 0 45.003 0 28.108A30.744 30.744 0 0117.976.353l2.151 4.478c-1.058.6-14.357 8.445-15.189 23.237-.788 14 10.011 26.8 22.823 29.115 7.824 1.411 14.407-1.539 17.352-3.113l.608 1.18a31.761 31.761 0 01-14.5 3.499z" fill="#eecf82"/><path data-name="Rect치ngulo 1053" fill="#eecf82" d="M33.067 68.249h-3.283v-9.503h3.283z"/><path data-name="Rect치ngulo 1054" d="M17.465 66.497h27.918a3.5 3.5 0 013.5 3.5H13.965a3.5 3.5 0 013.5-3.5z" fill="#e5b955"/><g transform="translate(9.27 6.366)"><circle data-name="Elipse 71" cx="23.249" cy="23.249" r="23.249" transform="translate(.005 .004)" fill="#fff"/><path data-name="Trazado 1158" d="M46.495 23.975a11.559 11.559 0 00-1.088-1.19 11.852 11.852 0 00-3.329-2.215l-.185-1.806 1.03-1.9-.744-2.553-.962-2.585-2.271-2.152-.309-2.18.567-1.059a23.151 23.151 0 00-2.121-1.77l-5.012-1.009-.906 2.272-8.535 3.353q.45 1.666.9 3.333l5.7-.959 3.95 4.708 4.045 2.807q.449 1.666.9 3.333l-3.9 2.642-.034 3.021 2.145 3.334 2.147 1.155q1.066 3.082 2.133 6.164a23.325 23.325 0 005.879-14.744z" fill="#727272"/><path data-name="Trazado 1159" d="M28.584 34.596l-6.5-2.094-4.276 8.371 4.791 4.429 7.138-6.624q-.581-2.042-1.153-4.082z" fill="#727272"/><path data-name="Trazado 1160" d="M23.957 23.164l2.118-4.912-7.023-7.05-2.493.617-8.784 3.539-7.7 6a23.34 23.34 0 002.07 11.639l3.524-1.17.182 3.986 2.428-.184 5.608-2.484 3.187-9.462 3.988-2.673.864 6.664z" fill="#727272"/><path data-name="Trazado 1161" d="M25.902.152A23.265 23.265 0 003.558 10.895l4.623.387 8.442-3.321 6.512-3.822z" fill="#727272"/><path data-name="Trazado 1162" d="M33.463 42.417l-1.38 2.342a23.146 23.146 0 004.062-2.154c-.79-.085-1.681-.145-2.682-.188z" fill="#fff"/><path data-name="Trazado 1163" d="M21.826.042a23.255 23.255 0 01-4.419 45.711A23.249 23.249 0 1021.826.042z" opacity=".3" style="isolation:isolate"/></g></g></svg>