<svg xmlns="http://www.w3.org/2000/svg" viewBox="0 0 65.284 70"><g data-name="Grupo 1281" transform="translate(-591.672 -439.491)"><path data-name="Rectángulo 1844" fill="#fff8e6" d="M591.672 449.132l54.762-9.563 10.538 60.35-54.762 9.563z"/><path data-name="Trazado 2258" d="M604.806 505.293l-.075-.437-9.174-52.661 48.264-8.4.075.437 9.174 52.659zm-8.219-52.376l8.943 51.349 46.511-8.1-8.941-51.347z" opacity=".63"/><path data-name="Trazado 2259" d="M641.472 446.714a34.762 34.762 0 01-2.462 3.449c-2.457 3.031-3.566 3.351-5.519 5.616-3.374 3.917-2.171 5.41-4.829 7.293a9.367 9.367 0 01-7.488 1.477c-1.988-.53-1.963-1.442-4.927-2.661-2.446-1.006-2.727-.492-5.519-1.477a15.592 15.592 0 01-6.208-3.547 12.88 12.88 0 01-2.66-3.844q19.808-3.156 39.612-6.306z" opacity=".3"/><path data-name="Trazado 2260" d="M641.67 448.09a59.567 59.567 0 01-2.562 3.547c-1.086 1.4-1.794 2.18-2.365 2.859-1.57 1.867-2.174 3.03-4.534 6.9-2.505 4.11-3.759 6.164-4.335 6.9-2.658 3.38-4.281 3.8-7.193 6.6-3.06 2.939-4.582 5.65-7 9.953a65.977 65.977 0 00-6.8 17.836l43.356-7.588q-4.28-23.505-8.567-47.007z" opacity=".3"/><path data-name="Trazado 2261" d="M597.822 453.904l6.989 37.549a1.674 1.674 0 003.245.2 50.757 50.757 0 012.379-6.219 51.583 51.583 0 0110.826-15.332 1.658 1.658 0 00-.1-2.477 19.331 19.331 0 00-1.659-1.209c-2.557-1.66-3.813-1.6-7.193-2.957-4.649-1.865-6.973-2.8-8.475-5.024-.85-1.262-1.285-2.649-2.955-3.646a6.646 6.646 0 00-3.057-.885z" opacity=".3"/><path data-name="Trazado 2262" d="M623.596 467.835a23.316 23.316 0 01-.56-3.4l1.01-2.852 1.985-5.714 1.992-5.713.994-2.855a28.175 28.175 0 012.532-2.32 28.071 28.071 0 01.544 3.39l-.994 2.858-1.985 5.714-1.991 5.713-.978 2.862a23.188 23.188 0 01-2.549 2.317z" fill="#ddae52"/><circle data-name="Elipse 120" cx="7.597" cy="7.597" transform="translate(623.217 439.491)" fill="#e53333" r="7.597"/><circle data-name="Elipse 121" cx="5.448" cy="5.448" transform="translate(624.623 440.917)" fill="#f25555" r="5.448"/></g></svg>