<svg xmlns="http://www.w3.org/2000/svg" viewBox="0 0 59.512 70"><g data-name="Grupo 651" transform="translate(-2479.854 -130.138)"><path data-name="Rectángulo 1104" fill="#13000d" d="M2479.854 169.308h59.512v30.83h-59.512z"/><path data-name="Rectángulo 1105" fill="#7f002a" d="M2480.918 189.357h57.385v5.201h-57.385z"/><path data-name="Rectángulo 1106" fill="#5d061f" d="M2480.918 195.605h57.385v3.594h-57.385z"/><path data-name="Rectángulo 1107" fill="#81384f" d="M2480.918 194.558h57.385v1.046h-57.385z"/><path data-name="Rectángulo 1108" fill="#13000d" d="M2479.854 130.138h59.512v59.512h-59.512z"/><path data-name="Rectángulo 1109" fill="#5d061f" d="M2480.918 131.202h57.385v57.385h-57.385z"/><path data-name="Trazado 1269" d="M2531.289 181.572c-3.613.111-7.226.178-10.839.247s-7.226.112-10.839.146-7.226.057-10.839.084l-10.839.028h-.507v-.507l.027-10.839c.028-3.613.037-7.226.084-10.839s.088-7.226.146-10.839.136-7.226.248-10.839c.113 3.613.179 7.226.248 10.839s.113 7.226.146 10.839.056 7.226.084 10.839l.027 10.839-.506-.506 10.839.028c3.613.027 7.226.038 10.839.084s7.226.088 10.839.146 7.229.139 10.842.25z" fill="#13000d"/><path data-name="Rectángulo 1110" fill="#ffe9c6" d="M2489.315 139.599h40.59v40.59h-40.59z"/><g data-name="Grupo 661"><g data-name="Grupo 660" fill="#817f6e"><g data-name="Grupo 651"><path data-name="Trazado 1270" d="M2498.482 142.398v.7h-.069a1.11 1.11 0 00-.135-.349.526.526 0 00-.2-.169.651.651 0 00-.254-.034h-.193v2a.817.817 0 00.022.248.2.2 0 00.086.087.348.348 0 00.175.037h.086v.071h-1.361v-.071h.086a.36.36 0 00.182-.04.184.184 0 00.078-.092.779.779 0 00.021-.241v-2h-.187a.544.544 0 00-.38.111.732.732 0 00-.21.441h-.073v-.7z"/><path data-name="Trazado 1271" d="M2498.076 145.069h-1.52v-.234h.167a.284.284 0 00.141-.029.106.106 0 00.045-.054.786.786 0 00.014-.208v-1.916h-.106a.473.473 0 00-.324.089.657.657 0 00-.186.394l-.01.069h-.224v-.864h2.49v.864h-.214l-.016-.062a1.056 1.056 0 00-.123-.322.445.445 0 00-.174-.142.56.56 0 00-.218-.026h-.112v1.917a.769.769 0 00.015.215.125.125 0 00.053.049.276.276 0 00.134.026h.167zm-1.075-.163h.631a.245.245 0 01-.059-.081.74.74 0 01-.029-.281v-2.066h-.458v2.066a.7.7 0 01-.028.275.294.294 0 01-.058.087zm1.014-2.427a.386.386 0 01.094.028.6.6 0 01.236.2.612.612 0 01.056.1v-.324zm-1.778 0v.315a.692.692 0 01.146-.2.5.5 0 01.261-.119z"/></g><g data-name="Grupo 652"><path data-name="Trazado 1272" d="M2499.888 143.743v.8a.82.82 0 00.022.248.2.2 0 00.086.087.343.343 0 00.173.037h.086v.071h-1.354v-.071h.085a.358.358 0 00.182-.04.173.173 0 00.077-.092.791.791 0 00.021-.241v-1.7a.856.856 0 00-.021-.248.191.191 0 00-.085-.087.344.344 0 00-.173-.037h-.085v-.071h1.354v.071h-.086a.357.357 0 00-.181.04.183.183 0 00-.079.092.794.794 0 00-.021.241v.733h.915v-.733a.847.847 0 00-.021-.248.189.189 0 00-.086-.087.349.349 0 00-.174-.037h-.084v-.071h1.353v.071h-.084a.351.351 0 00-.181.04.181.181 0 00-.078.092.788.788 0 00-.021.241v1.7a.853.853 0 00.021.248.19.19 0 00.086.087.348.348 0 00.174.037h.084v.071h-1.353v-.071h.084a.352.352 0 00.182-.04.181.181 0 00.078-.092.783.783 0 00.021-.241v-.8z"/><path data-name="Trazado 1273" d="M2501.872 145.069h-1.515v-.234h.166a.278.278 0 00.14-.028.107.107 0 00.046-.055.746.746 0 00.014-.208v-.721h-.752v.721a.769.769 0 00.015.215.123.123 0 00.052.049.268.268 0 00.132.026h.167v.234h-1.517v-.234h.167a.281.281 0 00.14-.029.1.1 0 00.042-.052.7.7 0 00.015-.21v-1.7a.8.8 0 00-.015-.217.12.12 0 00-.051-.048.271.271 0 00-.132-.026h-.167v-.234h1.517v.234h-.167a.28.28 0 00-.14.029.1.1 0 00-.045.054.731.731 0 00-.014.208v.652h.752v-.652a.788.788 0 00-.015-.217.116.116 0 00-.051-.048.273.273 0 00-.134-.027h-.166v-.234h1.515v.234h-.165a.276.276 0 00-.139.029.106.106 0 00-.046.055.755.755 0 00-.014.208v1.7a.785.785 0 00.014.217.118.118 0 00.051.048.276.276 0 00.134.026h.165zm-1.073-.163h.632a.239.239 0 01-.059-.082.769.769 0 01-.027-.28v-1.7a.7.7 0 01.029-.275.294.294 0 01.058-.087h-.632a.23.23 0 01.059.082.768.768 0 01.027.28v.815h-1.078v-.815a.708.708 0 01.028-.275.285.285 0 01.058-.087h-.632a.235.235 0 01.059.082.765.765 0 01.028.28v1.7a.707.707 0 01-.028.275.276.276 0 01-.056.087h.632a.246.246 0 01-.059-.081.74.74 0 01-.029-.281v-.884h1.078v.884a.71.71 0 01-.028.275.3.3 0 01-.06.087z"/></g><g data-name="Grupo 653"><path data-name="Trazado 1274" d="M2503.123 142.547v1.054h.051a.409.409 0 00.357-.155.951.951 0 00.141-.456h.072v1.356h-.072a1.017 1.017 0 00-.1-.363.417.417 0 00-.171-.19.651.651 0 00-.282-.049v.73a1.052 1.052 0 00.018.262.157.157 0 00.068.078.318.318 0 00.16.031h.155a.835.835 0 00.9-.68h.071l-.116.823h-2.239v-.071h.086a.358.358 0 00.182-.04.174.174 0 00.077-.092.8.8 0 00.021-.241v-1.7a1.317 1.317 0 00-.01-.216.181.181 0 00-.071-.1.33.33 0 00-.2-.054h-.086v-.071h2.168v.766h-.073a.936.936 0 00-.156-.4.578.578 0 00-.284-.179 1.529 1.529 0 00-.4-.034z"/><path data-name="Trazado 1275" d="M2504.445 145.069h-2.391v-.234h.167a.282.282 0 00.14-.029.1.1 0 00.042-.052.729.729 0 00.015-.21v-1.7a1.24 1.24 0 00-.007-.2.1.1 0 00-.038-.055.252.252 0 00-.152-.039h-.167v-.234h2.331v.929h-.221l-.013-.066a.862.862 0 00-.139-.367.5.5 0 00-.245-.154 1.4 1.4 0 00-.377-.031h-.186v.891a.316.316 0 00.261-.12.88.88 0 00.126-.417l.008-.073h.228v1.519h-.228l-.008-.073a.939.939 0 00-.087-.334.344.344 0 00-.135-.155.454.454 0 00-.165-.037v.645a.981.981 0 00.013.233.073.073 0 00.034.038.239.239 0 00.118.019h.155a.856.856 0 00.532-.151.865.865 0 00.285-.469l.016-.06h.227zm-.683-.163h.541l.055-.393a.856.856 0 01-.2.228.891.891 0 01-.396.165zm-1.265 0h.72a.225.225 0 01-.051-.023.234.234 0 01-.1-.119.911.911 0 01-.023-.291v-1.995h-.545a.265.265 0 01.072.123 1.115 1.115 0 01.013.238v1.7a.7.7 0 01-.028.275.272.272 0 01-.058.092zm.791-1.232a.517.517 0 01.153.046.5.5 0 01.207.225l.015.031v-.6a.65.65 0 01-.066.117.448.448 0 01-.308.181zm.406-1.195a.674.674 0 01.122.024.661.661 0 01.322.205.622.622 0 01.083.14v-.37z"/></g><g data-name="Grupo 654"><path data-name="Trazado 1276" d="M2507.105 143.743v.8a.809.809 0 00.022.248.2.2 0 00.086.087.34.34 0 00.172.037h.086v.071h-1.354v-.071h.086a.359.359 0 00.181-.04.173.173 0 00.076-.092.794.794 0 00.021-.241v-1.7a.86.86 0 00-.021-.248.191.191 0 00-.085-.087.341.341 0 00-.173-.037h-.086v-.071h1.354v.071h-.086a.358.358 0 00-.181.04.183.183 0 00-.079.092.8.8 0 00-.021.241v.733h.915v-.733a.86.86 0 00-.021-.248.191.191 0 00-.086-.087.349.349 0 00-.174-.037h-.084v-.071h1.353v.071h-.084a.353.353 0 00-.182.04.184.184 0 00-.078.092.791.791 0 00-.021.241v1.7a.856.856 0 00.021.248.191.191 0 00.086.087.349.349 0 00.174.037h.084v.071h-1.347v-.071h.084a.352.352 0 00.181-.04.184.184 0 00.078-.092.794.794 0 00.021-.241v-.8z"/><path data-name="Trazado 1277" d="M2509.089 145.069h-1.515v-.234h.166a.277.277 0 00.139-.028.109.109 0 00.046-.055.76.76 0 00.014-.208v-.721h-.752v.721a.769.769 0 00.015.215.122.122 0 00.053.049.266.266 0 00.132.026h.167v.234h-1.517v-.234h.167a.283.283 0 00.14-.029.1.1 0 00.042-.052.684.684 0 00.015-.21v-1.7a.774.774 0 00-.015-.217.117.117 0 00-.051-.048.271.271 0 00-.132-.026h-.167v-.234h1.517v.234h-.167a.282.282 0 00-.141.029.107.107 0 00-.045.054.755.755 0 00-.014.208v.652h.752v-.652a.753.753 0 00-.015-.217.116.116 0 00-.051-.048.272.272 0 00-.133-.027h-.166v-.234h1.515v.234h-.166a.276.276 0 00-.139.029.106.106 0 00-.046.055.744.744 0 00-.014.208v1.7a.789.789 0 00.015.217.119.119 0 00.051.048.275.275 0 00.133.026h.166zm-1.073-.163h.632a.232.232 0 01-.059-.082.769.769 0 01-.027-.28v-1.7a.7.7 0 01.028-.275.289.289 0 01.057-.087h-.632a.233.233 0 01.059.082.768.768 0 01.027.28v.815h-1.078v-.815a.717.717 0 01.028-.275.294.294 0 01.058-.087h-.632a.233.233 0 01.059.082.775.775 0 01.027.28v1.7a.712.712 0 01-.028.275.268.268 0 01-.056.087h.632a.247.247 0 01-.059-.081.74.74 0 01-.029-.281v-.884h1.078v.884a.71.71 0 01-.028.275.3.3 0 01-.057.087z"/></g><g data-name="Grupo 655"><path data-name="Trazado 1278" d="M2510.341 142.547v1.054h.052a.409.409 0 00.357-.155.952.952 0 00.141-.456h.073v1.356h-.073a1.018 1.018 0 00-.1-.363.418.418 0 00-.171-.19.653.653 0 00-.283-.049v.73a1.06 1.06 0 00.018.262.157.157 0 00.068.078.317.317 0 00.16.031h.155a.835.835 0 00.9-.68h.069l-.117.823h-2.239v-.071h.086a.358.358 0 00.181-.04.173.173 0 00.076-.092.779.779 0 00.021-.241v-1.7a1.317 1.317 0 00-.01-.216.183.183 0 00-.071-.1.329.329 0 00-.2-.054h-.086v-.071h2.168v.766h-.073a.933.933 0 00-.156-.4.577.577 0 00-.283-.179 1.532 1.532 0 00-.4-.034z"/><path data-name="Trazado 1279" d="M2511.662 145.069h-2.391v-.234h.168a.283.283 0 00.14-.029.1.1 0 00.042-.052.729.729 0 00.015-.21v-1.7a1.2 1.2 0 00-.007-.2.1.1 0 00-.038-.055.252.252 0 00-.152-.039h-.168v-.234h2.331v.929h-.221l-.013-.066a.859.859 0 00-.139-.367.5.5 0 00-.245-.154 1.4 1.4 0 00-.377-.031h-.186v.891a.316.316 0 00.261-.12.882.882 0 00.126-.417l.008-.073h.228v1.519h-.228l-.008-.073a.939.939 0 00-.087-.334.345.345 0 00-.135-.155.456.456 0 00-.165-.037v.645a.963.963 0 00.013.233.069.069 0 00.034.038.239.239 0 00.118.019h.155a.755.755 0 00.817-.62l.016-.06h.227zm-.682-.163h.541l.056-.393a.852.852 0 01-.2.228.89.89 0 01-.398.165zm-1.265 0h.72a.245.245 0 01-.152-.142.911.911 0 01-.023-.291v-1.995h-.545a.269.269 0 01.072.123 1.1 1.1 0 01.013.238v1.7a.7.7 0 01-.028.275.272.272 0 01-.058.092zm.792-1.232a.517.517 0 01.153.046.494.494 0 01.207.225.273.273 0 01.015.031v-.6a.648.648 0 01-.066.117.448.448 0 01-.31.181zm.406-1.195a.674.674 0 01.122.024.657.657 0 01.322.205.605.605 0 01.084.14v-.37z"/></g><g data-name="Grupo 656"><path data-name="Trazado 1280" d="M2513.118 143.808v.726a.793.793 0 00.026.264.188.188 0 00.091.087.613.613 0 00.243.032v.071h-1.326v-.071a.6.6 0 00.243-.033.2.2 0 00.09-.087.792.792 0 00.026-.263v-1.681a.8.8 0 00-.026-.264.19.19 0 00-.091-.087.613.613 0 00-.243-.033v-.071h1.2a2.627 2.627 0 01.688.065.692.692 0 01.355.24.643.643 0 01.138.41.613.613 0 01-.206.474.854.854 0 01-.369.178l.623.877a1.326 1.326 0 00.174.212.324.324 0 00.182.065v.071h-.816l-.835-1.181zm0-1.27v1.135h.109a1.22 1.22 0 00.4-.049.4.4 0 00.208-.176.645.645 0 00.075-.331.5.5 0 00-.584-.579z"/><path data-name="Trazado 1281" d="M2515.02 145.069h-.94l-.835-1.18h-.046v.644a.746.746 0 00.018.23.11.11 0 00.054.049.522.522 0 00.206.024h.082v.234h-1.489v-.234h.082a.506.506 0 00.206-.024.113.113 0 00.054-.05.716.716 0 00.018-.228v-1.681a.735.735 0 00-.018-.23.109.109 0 00-.053-.049.53.53 0 00-.207-.024h-.082v-.234h1.285a2.667 2.667 0 01.711.068.773.773 0 01.4.267.725.725 0 01.155.46.693.693 0 01-.233.534.842.842 0 01-.291.163l.557.784a1.193 1.193 0 00.159.2.239.239 0 00.134.047h.077zm-.855-.163h.53a1.44 1.44 0 01-.178-.219l-.692-.975.116-.029a.777.777 0 00.334-.159.529.529 0 00.179-.413.559.559 0 00-.12-.359.611.611 0 00-.315-.212 1.933 1.933 0 00-.449-.057.528.528 0 01.256.138.684.684 0 01.162.494.726.726 0 01-.087.373.478.478 0 01-.249.21 1.042 1.042 0 01-.305.051l.007.01zm-1.662 0h.62a.25.25 0 01-.053-.074.722.722 0 01-.034-.3v-2.054h-.531a.255.255 0 01.053.074.731.731 0 01.034.3v1.681a.722.722 0 01-.034.3.25.25 0 01-.055.073zm.7-1.316h.027a1.152 1.152 0 00.369-.044.312.312 0 00.165-.141.566.566 0 00.064-.29.425.425 0 00-.5-.5h-.123z"/></g><g data-name="Grupo 657"><path data-name="Trazado 1282" d="M2516.725 144.251h-.915l-.109.252a.562.562 0 00-.053.208.173.173 0 00.088.16.738.738 0 00.254.046v.071h-.862v-.071a.384.384 0 00.229-.116 1.539 1.539 0 00.221-.391l.927-2.067h.036l.934 2.124a1.3 1.3 0 00.22.38.3.3 0 00.183.069v.071h-1.253v-.071h.051a.393.393 0 00.212-.042.1.1 0 00.042-.088.236.236 0 00-.011-.071q0-.017-.057-.143zm-.065-.141l-.386-.892-.4.892z"/><path data-name="Trazado 1283" d="M2517.963 145.07h-1.416v-.234h.133a.313.313 0 00.166-.028s.007-.005.007-.021a.161.161 0 00-.007-.046c-.006-.019-.024-.063-.055-.136l-.116-.273h-.808l-.088.2a.471.471 0 00-.047.176.093.093 0 00.048.09.652.652 0 00.219.035l.075.006v.228h-1.027v-.222l.07-.01a.3.3 0 00.182-.091 1.4 1.4 0 00.207-.367l.948-2.115h.142l.955 2.173a1.183 1.183 0 00.2.353.227.227 0 00.135.048l.075.006zm-.986-.163h.665a1.329 1.329 0 01-.237-.405l-.879-2-.238.532.653 1.506a1.163 1.163 0 01.062.158.292.292 0 01.013.088.187.187 0 01-.04.121zm-1.611 0h.284a.258.258 0 01-.08-.2.451.451 0 01.017-.117 1.149 1.149 0 01-.167.264.47.47 0 01-.055.053zm.64-.879h.534l-.262-.608z"/></g><g data-name="Grupo 658"><path data-name="Trazado 1284" d="M2520.592 144.079l-.1.909h-2.3v-.071h.086a.358.358 0 00.181-.04.174.174 0 00.077-.092.794.794 0 00.021-.241v-1.7a.86.86 0 00-.021-.248.193.193 0 00-.085-.087.342.342 0 00-.173-.037h-.086v-.071h1.381v.071h-.113a.359.359 0 00-.182.04.183.183 0 00-.078.092.791.791 0 00-.021.241v1.65a.823.823 0 00.023.253.151.151 0 00.09.081.9.9 0 00.231.017h.216a.731.731 0 00.344-.073.643.643 0 00.238-.229 1.862 1.862 0 00.19-.462z"/><path data-name="Trazado 1285" d="M2520.567 145.069h-2.455v-.234h.167a.284.284 0 00.141-.029.1.1 0 00.042-.052.707.707 0 00.015-.21v-1.7a.777.777 0 00-.015-.217.118.118 0 00-.051-.048.27.27 0 00-.132-.026h-.167v-.234h1.544v.234h-.194a.28.28 0 00-.14.029.106.106 0 00-.045.054.758.758 0 00-.014.208v1.65a.747.747 0 00.017.221.071.071 0 00.045.037.9.9 0 00.2.011h.216a.655.655 0 00.306-.063.562.562 0 00.207-.2 1.771 1.771 0 00.181-.441l.017-.058h.23zm-.631-.163h.484l.05-.47a1.129 1.129 0 01-.079.149.728.728 0 01-.269.258.683.683 0 01-.186.063zm-1.381 0h.724-.013a.233.233 0 01-.137-.126.771.771 0 01-.029-.285v-1.65a.694.694 0 01.029-.275.289.289 0 01.057-.087h-.632a.239.239 0 01.059.082.775.775 0 01.027.28v1.7a.7.7 0 01-.028.275.268.268 0 01-.056.086z"/></g><g data-name="Grupo 659"><path data-name="Trazado 1286" d="M2520.975 144.988v-.071h.086a.347.347 0 00.173-.035.218.218 0 00.089-.1.915.915 0 00.017-.241v-1.7a.847.847 0 00-.021-.248.191.191 0 00-.085-.087.343.343 0 00-.173-.037h-.086v-.071h1.16a1.856 1.856 0 01.747.126 1.1 1.1 0 01.524.468 1.491 1.491 0 01.091 1.212 1.16 1.16 0 01-.227.38 1.118 1.118 0 01-.322.241 1.715 1.715 0 01-.446.14 2.087 2.087 0 01-.367.023zm.988-2.443v2.022a.7.7 0 00.016.2.108.108 0 00.052.055.31.31 0 00.149.029.578.578 0 00.487-.218 1.482 1.482 0 00.229-.913 1.725 1.725 0 00-.156-.8.669.669 0 00-.319-.317 1.242 1.242 0 00-.455-.058z"/><path data-name="Trazado 1287" d="M2522.137 145.069h-1.241v-.234h.167a.265.265 0 00.132-.024.139.139 0 00.056-.061 1.145 1.145 0 00.009-.206v-1.7a.785.785 0 00-.014-.217.116.116 0 00-.051-.048.269.269 0 00-.132-.026h-.167v-.234h1.241a1.942 1.942 0 01.78.133 1.189 1.189 0 01.562.5 1.571 1.571 0 01.1 1.282 1.248 1.248 0 01-.244.406 1.2 1.2 0 01-.345.258 1.815 1.815 0 01-.468.148 2.138 2.138 0 01-.385.023zm-.8-.163h.693a.29.29 0 01-.039-.017.193.193 0 01-.087-.1.637.637 0 01-.021-.228v-2.087h-.546a.236.236 0 01.059.082.775.775 0 01.027.28v1.7a.768.768 0 01-.024.273.307.307 0 01-.061.097zm.951-2.424a.679.679 0 01.165.044.749.749 0 01.359.353 1.8 1.8 0 01.166.835 1.563 1.563 0 01-.246.963.61.61 0 01-.313.216c.026 0 .049-.006.069-.01a1.648 1.648 0 00.426-.133 1.043 1.043 0 00.3-.223 1.089 1.089 0 00.211-.354 1.411 1.411 0 00-.085-1.143 1.032 1.032 0 00-.487-.434 1.592 1.592 0 00-.564-.113zm-.242.144v1.939a.692.692 0 00.01.167.025.025 0 00.014.014.231.231 0 00.111.019.5.5 0 00.422-.186 1.412 1.412 0 00.212-.863 1.651 1.651 0 00-.147-.759.591.591 0 00-.279-.28.972.972 0 00-.343-.05z"/></g></g></g><path data-name="Rectángulo 1111" fill="#817f6e" d="M2493.758 143.696h2.009v.315h-2.009z"/><path data-name="Rectángulo 1112" fill="#817f6e" d="M2493.758 146.07h32.49v.315h-32.49z"/><path data-name="Rectángulo 1113" fill="#817f6e" d="M2524.239 143.696h2.009v.315h-2.009z"/><path data-name="Rectángulo 1114" fill="#817f6e" d="M2493.758 147.523h9.102v11.533h-9.102z"/><path data-name="Rectángulo 1115" fill="#817f6e" d="M2503.694 147.523h22.554v.358h-22.554z"/><path data-name="Rectángulo 1116" fill="#817f6e" d="M2503.694 148.596h22.554v.358h-22.554z"/><path data-name="Rectángulo 1117" fill="#817f6e" d="M2503.694 149.669h22.554v.358h-22.554z"/><path data-name="Rectángulo 1118" fill="#817f6e" d="M2503.694 150.742h22.554v.358h-22.554z"/><path data-name="Rectángulo 1119" fill="#817f6e" d="M2503.694 151.816h22.554v.358h-22.554z"/><path data-name="Rectángulo 1120" fill="#817f6e" d="M2503.694 152.889h22.554v.358h-22.554z"/><path data-name="Rectángulo 1121" fill="#817f6e" d="M2503.694 153.962h22.554v.358h-22.554z"/><path data-name="Rectángulo 1122" fill="#817f6e" d="M2503.694 155.035h22.554v.358h-22.554z"/><path data-name="Rectángulo 1123" fill="#817f6e" d="M2503.694 156.109h22.554v.358h-22.554z"/><path data-name="Rectángulo 1124" fill="#817f6e" d="M2503.694 157.182h22.554v.358h-22.554z"/><path data-name="Rectángulo 1125" fill="#817f6e" d="M2503.694 158.255h22.554v.358h-22.554z"/><path data-name="Rectángulo 1126" fill="#817f6e" d="M2503.694 159.328h22.554v.358h-22.554z"/><path data-name="Rectángulo 1127" fill="#817f6e" d="M2493.758 160.402h32.49v.358h-32.49z"/><path data-name="Rectángulo 1128" fill="#817f6e" d="M2493.758 161.475h32.49v.358h-32.49z"/><path data-name="Rectángulo 1129" fill="#817f6e" d="M2493.758 162.548h32.49v.358h-32.49z"/><path data-name="Rectángulo 1130" fill="#817f6e" d="M2493.758 163.621h32.49v.358h-32.49z"/><path data-name="Rectángulo 1131" fill="#817f6e" d="M2493.758 164.695h32.49v.358h-32.49z"/><path data-name="Rectángulo 1132" fill="#817f6e" d="M2493.758 165.768h32.49v.358h-32.49z"/><path data-name="Rectángulo 1133" fill="#817f6e" d="M2493.758 166.841h12.306v.358h-12.306z"/><path data-name="Rectángulo 1134" fill="#817f6e" d="M2493.758 167.662h12.306v.358h-12.306z"/><path data-name="Rectángulo 1135" fill="#817f6e" d="M2493.758 168.483h12.306v.358h-12.306z"/><path data-name="Rectángulo 1136" fill="#817f6e" d="M2493.758 169.305h12.306v.358h-12.306z"/><path data-name="Rectángulo 1137" fill="#817f6e" d="M2493.758 170.126h12.306v.358h-12.306z"/><path data-name="Rectángulo 1138" fill="#817f6e" d="M2493.758 170.947h12.306v.358h-12.306z"/><path data-name="Rectángulo 1139" fill="#817f6e" d="M2493.758 171.768h12.306v.358h-12.306z"/><path data-name="Rectángulo 1140" fill="#817f6e" d="M2493.758 172.589h12.306v.358h-12.306z"/><path data-name="Rectángulo 1141" fill="#817f6e" d="M2493.758 173.41h12.306v.358h-12.306z"/><path data-name="Rectángulo 1142" fill="#817f6e" d="M2493.758 174.231h12.306v.358h-12.306z"/><path data-name="Rectángulo 1143" fill="#817f6e" d="M2493.758 175.052h12.306v.358h-12.306z"/><path data-name="Rectángulo 1144" fill="#817f6e" d="M2493.758 175.873h12.306v.358h-12.306z"/><path data-name="Rectángulo 1145" fill="#817f6e" d="M2493.758 176.694h12.306v.358h-12.306z"/><path data-name="Rectángulo 1146" fill="#817f6e" d="M2493.758 177.516h12.306v.358h-12.306z"/><path data-name="Rectángulo 1147" fill="#817f6e" d="M2493.758 178.337h12.306v.358h-12.306z"/><path data-name="Rectángulo 1148" fill="#817f6e" d="M2506.624 166.841h19.624v11.533h-19.624z"/><path data-name="Trazado 1288" d="M2487.932 138.216c3.613-.111 7.226-.178 10.84-.247s7.226-.113 10.839-.146 7.226-.057 10.839-.084l10.839-.028h.507v.507l-.027 10.839c-.028 3.613-.037 7.226-.084 10.839s-.088 7.226-.147 10.839-.136 7.226-.248 10.839c-.112-3.613-.179-7.226-.248-10.839s-.112-7.226-.146-10.839-.056-7.226-.084-10.839l-.027-10.839.505.505-10.839-.028c-3.613-.027-7.226-.038-10.839-.084s-7.226-.088-10.839-.146-7.228-.138-10.841-.249z" fill="#7f002a"/><rect data-name="Rectángulo 1149" width="10.246" height="1.706" rx=".853" transform="translate(2521.043 188.587)" fill="#7f002a"/><rect data-name="Rectángulo 1150" width="10.246" height="1.706" rx=".853" transform="translate(2487.932 188.587)" fill="#7f002a"/></g></svg>