<svg xmlns="http://www.w3.org/2000/svg" width="70" height="44.844" viewBox="0 0 70 44.844">
  <g id="Grupo_889" data-name="Grupo 889" transform="translate(-8142 -989)">
    <g id="Grupo_618" data-name="Grupo 618" transform="translate(8142 1007.588)">
      <rect id="Rectángulo_1031" data-name="Rectángulo 1031" width="65.934" height="8.244" transform="translate(1.246 18.012)" fill="#469f49"/>
      <path id="Trazado_1185" data-name="Trazado 1185" d="M2181.232,350q2.331-4.884,4.663-9.768H2242.4l4.766,9.767Z" transform="translate(-2181.232 -340.233)" fill="#8ad975"/>
      <g id="Trazado_1186" data-name="Trazado 1186" transform="translate(-2180.939 -340.048)" fill="none" stroke-miterlimit="10">
        <path d="M2243.651,345.343l-2.127-4.359h-55.332l-2.127,4.456-1.644,3.443h62.957Z" stroke="none"/>
        <path d="M 2244.177490234375 348.1318054199219 L 2242.976806640625 345.6717529296875 L 2241.054931640625 341.7340087890625 L 2213.8544921875 341.7335815429688 L 2186.66455078125 341.7330932617188 L 2184.7412109375 345.7618408203125 L 2183.610107421875 348.1318054199219 L 2244.177490234375 348.1318054199219 M 2245.3779296875 348.8818054199219 L 2182.4208984375 348.8818054199219 L 2184.064453125 345.4387512207031 L 2186.19140625 340.9830932617188 L 2213.8544921875 340.9835815429688 L 2241.5234375 340.9840087890625 L 2243.65087890625 345.3427734375 L 2245.3779296875 348.8818054199219 Z" stroke="none" fill="#479f4a"/>
      </g>
      <rect id="Rectángulo_1032" data-name="Rectángulo 1032" width="65.934" height="8.244" transform="translate(0 9.768)" fill="#469f49"/>
      <ellipse id="Elipse_72" data-name="Elipse 72" cx="5.255" cy="1.963" rx="5.255" ry="1.963" transform="translate(28.303 2.921)" fill="#479f4a"/>
      <ellipse id="Elipse_73" data-name="Elipse 73" cx="3.335" cy="1.246" rx="3.335" ry="1.246" transform="translate(43.718 3.638)" fill="#f6fcf4"/>
      <ellipse id="Elipse_74" data-name="Elipse 74" cx="3.335" cy="1.246" rx="3.335" ry="1.246" transform="translate(16.728 3.638)" fill="#f6fcf4"/>
      <path id="Trazado_1187" data-name="Trazado 1187" d="M2185.947,341.674v2.181a9.941,9.941,0,0,0,1.138.068c2.5,0,4.628-.932,5.5-2.249Z" transform="translate(-2180.071 -339.878)" fill="#479f4a"/>
      <path id="Trazado_1188" data-name="Trazado 1188" d="M2230.876,341.674v2.181a9.906,9.906,0,0,1-1.136.068c-2.5,0-4.628-.932-5.5-2.249Z" transform="translate(-2170.647 -339.878)" fill="#479f4a"/>
      <path id="Trazado_1189" data-name="Trazado 1189" d="M2184.718,347.122v-2.181a9.951,9.951,0,0,1,1.138-.069c2.5,0,4.628.932,5.5,2.249Z" transform="translate(-2180.374 -339.091)" fill="#479f4a"/>
      <path id="Trazado_1190" data-name="Trazado 1190" d="M2232.021,347.074v-2.179a9.939,9.939,0,0,0-1.138-.069c-2.5,0-4.626.932-5.5,2.248Z" transform="translate(-2170.366 -339.103)" fill="#479f4a"/>
      <path id="Trazado_1191" data-name="Trazado 1191" d="M2188.934,340.983q-1.886,3.95-3.77,7.9h-2.743c.132-.278,3.771-7.9,3.771-7.9h2.742Z" transform="translate(-2180.939 -340.048)" fill="#479f4a"/>
      <path id="Trazado_1192" data-name="Trazado 1192" d="M2227.716,340.983q1.886,3.95,3.771,7.9h2.743l-3.771-7.9h-2.743Z" transform="translate(-2169.791 -340.048)" fill="#479f4a"/>
      <path id="Trazado_1193" data-name="Trazado 1193" d="M2241.477,355.974a43.273,43.273,0,0,0-2.244-4.754v4.32h-25.769q6.011.045,12.471.373c5.595.293,10.937.743,16.007,1.3C2241.841,356.932,2241.684,356.5,2241.477,355.974Z" transform="translate(-2173.298 -337.529)" fill="#8ad975"/>
      <path id="Trazado_1194" data-name="Trazado 1194" d="M2193.518,354.744l-11.271-.057-.015.714c1.806-.254,3.3-.38,4.365-.449C2188.094,354.856,2197.53,354.764,2193.518,354.744Z" transform="translate(-2180.986 -336.675)" fill="#387938"/>
      <path id="Trazado_1195" data-name="Trazado 1195" d="M2197.871,350q.865-4.884,1.729-9.768h20.967q.887,4.882,1.77,9.767Z" transform="translate(-2177.137 -340.233)" fill="#f7f3df"/>
      <rect id="Rectángulo_1033" data-name="Rectángulo 1033" width="24.467" height="16.488" transform="translate(20.734 9.768)" fill="#f9f7ea"/>
      <rect id="Rectángulo_1034" data-name="Rectángulo 1034" width="1.242" height="16.488" transform="translate(42.713 9.768)" fill="#f4d862"/>
      <rect id="Rectángulo_1035" data-name="Rectángulo 1035" width="1.242" height="16.488" transform="translate(21.98 9.768)" fill="#f4d862"/>
      <g id="Grupo_617" data-name="Grupo 617" transform="translate(21.981)">
        <path id="Trazado_1196" data-name="Trazado 1196" d="M2217.086,340.234h-1.062q.7,4.882,1.409,9.767h1.242Q2217.881,345.117,2217.086,340.234Z" transform="translate(-2196.701 -340.233)" fill="#eac953"/>
        <path id="Trazado_1197" data-name="Trazado 1197" d="M2200.425,340.233q-.778,4.884-1.554,9.768h1.241q.691-4.884,1.378-9.768Z" transform="translate(-2198.871 -340.233)" fill="#eac953"/>
      </g>
    </g>
    <g id="Grupo_620" data-name="Grupo 620" transform="translate(8143.356 989)">
      <rect id="Rectángulo_1036" data-name="Rectángulo 1036" width="65.934" height="8.244" transform="translate(1.246 18.012)" fill="#469f49"/>
      <path id="Trazado_1199" data-name="Trazado 1199" d="M2182.32,335.083q2.333-4.882,4.663-9.767h56.506l4.766,9.766Z" transform="translate(-2182.32 -325.316)" fill="#8ad975"/>
      <g id="Trazado_1200" data-name="Trazado 1200" transform="translate(-2182.027 -325.131)" fill="none" stroke-miterlimit="10">
        <path d="M2244.739,330.426l-2.127-4.359H2187.28l-2.127,4.456-1.644,3.443h62.957Z" stroke="none"/>
        <path d="M 2245.265869140625 333.2145690917969 L 2244.065185546875 330.7545471191406 L 2242.1435546875 326.8167724609375 L 2214.94287109375 326.8163452148438 L 2187.7529296875 326.8158569335938 L 2185.82958984375 330.8446044921875 L 2184.698486328125 333.2145690917969 L 2245.265869140625 333.2145690917969 M 2246.46630859375 333.9645690917969 L 2183.50927734375 333.9645690917969 L 2185.15283203125 330.5215148925781 L 2187.27978515625 326.0658569335938 L 2214.94287109375 326.0663452148438 L 2242.612060546875 326.0667724609375 L 2244.7392578125 330.4255981445312 L 2246.46630859375 333.9645690917969 Z" stroke="none" fill="#479f4a"/>
      </g>
      <rect id="Rectángulo_1037" data-name="Rectángulo 1037" width="65.934" height="8.244" transform="translate(0.001 9.768)" fill="#469f49"/>
      <ellipse id="Elipse_75" data-name="Elipse 75" cx="5.255" cy="1.963" rx="5.255" ry="1.963" transform="translate(28.304 2.92)" fill="#479f4a"/>
      <ellipse id="Elipse_76" data-name="Elipse 76" cx="3.335" cy="1.246" rx="3.335" ry="1.246" transform="translate(43.719 3.638)" fill="#f6fcf4"/>
      <ellipse id="Elipse_77" data-name="Elipse 77" cx="3.335" cy="1.246" rx="3.335" ry="1.246" transform="translate(16.729 3.638)" fill="#f6fcf4"/>
      <path id="Trazado_1201" data-name="Trazado 1201" d="M2187.036,326.757v2.18a9.664,9.664,0,0,0,1.137.07c2.5,0,4.628-.932,5.505-2.249Z" transform="translate(-2181.159 -324.961)" fill="#479f4a"/>
      <path id="Trazado_1202" data-name="Trazado 1202" d="M2231.966,326.757v2.18a9.684,9.684,0,0,1-1.137.07c-2.5,0-4.628-.932-5.506-2.249Z" transform="translate(-2171.736 -324.961)" fill="#479f4a"/>
      <path id="Trazado_1203" data-name="Trazado 1203" d="M2185.807,332.205v-2.181a9.961,9.961,0,0,1,1.137-.069c2.5,0,4.628.932,5.5,2.249Z" transform="translate(-2181.461 -324.174)" fill="#479f4a"/>
      <path id="Trazado_1204" data-name="Trazado 1204" d="M2233.109,332.157v-2.18a9.654,9.654,0,0,0-1.137-.068c-2.5,0-4.628.932-5.505,2.248Z" transform="translate(-2171.454 -324.186)" fill="#479f4a"/>
      <path id="Trazado_1205" data-name="Trazado 1205" d="M2190.023,326.066q-1.885,3.95-3.771,7.9h-2.743c.133-.277,3.771-7.9,3.771-7.9h2.743Z" transform="translate(-2182.027 -325.131)" fill="#479f4a"/>
      <path id="Trazado_1206" data-name="Trazado 1206" d="M2228.8,326.066q1.884,3.95,3.771,7.9h2.743c-.133-.277-3.771-7.9-3.771-7.9H2228.8Z" transform="translate(-2170.879 -325.131)" fill="#479f4a"/>
      <path id="Trazado_1207" data-name="Trazado 1207" d="M2242.564,341.057a43.487,43.487,0,0,0-2.243-4.755v4.322h-25.769q6.01.045,12.47.373c5.594.293,10.936.743,16.008,1.3C2242.93,342.014,2242.771,341.581,2242.564,341.057Z" transform="translate(-2174.386 -322.612)" fill="#8ad975"/>
      <path id="Trazado_1208" data-name="Trazado 1208" d="M2194.607,339.827l-11.272-.057-.015.714c1.807-.254,3.3-.38,4.367-.449C2189.182,339.94,2198.617,339.847,2194.607,339.827Z" transform="translate(-2182.074 -321.758)" fill="#387938"/>
      <path id="Trazado_1209" data-name="Trazado 1209" d="M2198.959,335.083q.866-4.882,1.73-9.767h20.968l1.769,9.766Z" transform="translate(-2178.225 -325.316)" fill="#f7f3df"/>
      <rect id="Rectángulo_1038" data-name="Rectángulo 1038" width="24.467" height="16.488" transform="translate(20.734 9.768)" fill="#f9f7ea"/>
      <rect id="Rectángulo_1039" data-name="Rectángulo 1039" width="1.242" height="16.488" transform="translate(42.713 9.768)" fill="#f4d862"/>
      <rect id="Rectángulo_1040" data-name="Rectángulo 1040" width="1.242" height="16.488" transform="translate(21.981 9.768)" fill="#f4d862"/>
      <g id="Grupo_619" data-name="Grupo 619" transform="translate(21.98)">
        <path id="Trazado_1210" data-name="Trazado 1210" d="M2218.174,325.317h-1.062q.7,4.882,1.409,9.766h1.242Q2218.969,330.2,2218.174,325.317Z" transform="translate(-2197.789 -325.316)" fill="#eac953"/>
        <path id="Trazado_1211" data-name="Trazado 1211" d="M2201.513,325.316q-.778,4.884-1.554,9.767h1.243q.688-4.882,1.378-9.767Z" transform="translate(-2199.959 -325.316)" fill="#eac953"/>
      </g>
    </g>
  </g>
</svg>
