<svg xmlns="http://www.w3.org/2000/svg" viewBox="0 0 198.82 46.2"><defs><style>.cls-1{fill:#fff;}</style></defs><title>menu-corporacion</title><g id="Layer_2" data-name="Layer 2"><g id="Layer_1-2" data-name="Layer 1"><g id="Grupo_891" data-name="Grupo 891"><g id="Corporacion"><g id="Grupo_890" data-name="Grupo 890"><g id="Uni贸n_43" data-name="Uni贸n 43"><path d="M166.8,44.7c-2.85,0-5.06-.76-6.54-2.25A8.72,8.72,0,0,1,158,36.06V22.53a9.26,9.26,0,0,1,2.2-6.53c1.49-1.61,3.69-2.42,6.54-2.42s5,.75,6.52,2.24a8.62,8.62,0,0,1,2.26,6.36V35.79a9.17,9.17,0,0,1-2.23,6.53A8.59,8.59,0,0,1,166.8,44.7Zm-.41-5.87a1.55,1.55,0,0,0,.46.05,1.87,1.87,0,0,0,.34,0,5.32,5.32,0,0,0,.16-1.6v-16a4.37,4.37,0,0,0-.21-1.72.78.78,0,0,0-.42-.09,1.51,1.51,0,0,0-.32,0,5.44,5.44,0,0,0-.18,1.78v16A4.9,4.9,0,0,0,166.39,38.83ZM139.81,44.7c-2.85,0-5.06-.76-6.54-2.25A8.72,8.72,0,0,1,131,36.06V22.84A9.7,9.7,0,0,1,133.28,16c1.51-1.64,3.82-2.46,6.85-2.46A6.83,6.83,0,0,1,144.77,15,7.5,7.5,0,0,1,147,18.68l.35,1.23-1.16.54-2.09,1-1.47.68-.57-1.52a3,3,0,0,0-.59-1h0s-.24-.15-.74-.15c-.82,0-1,.28-1.08.38a2.59,2.59,0,0,0-.44,1.56V36.19c0,1.54.33,2.06.48,2.21s.44.48,1.48.48a1,1,0,0,0,.85-.46,5.71,5.71,0,0,0,.88-2.25l.29-1.49,1.48.31,1.91.4,1.33.27L147.79,37a9.06,9.06,0,0,1-2.4,5.68A7.68,7.68,0,0,1,139.81,44.7Zm-53.27,0c-2.86,0-5.06-.76-6.54-2.25a8.72,8.72,0,0,1-2.24-6.39V24.58a8.25,8.25,0,0,1-2.31,4.78c-1.56,1.51-3.84,2.31-6.8,2.38V44.26H60.5V14.06h6.82c3.42,0,5.94.6,7.71,1.81A6.85,6.85,0,0,1,77.85,21,8.53,8.53,0,0,1,80,16c1.49-1.61,3.69-2.42,6.54-2.42s5,.75,6.52,2.24a8.62,8.62,0,0,1,2.26,6.36V35.79a9.17,9.17,0,0,1-2.23,6.53A8.59,8.59,0,0,1,86.54,44.7Zm-.41-5.87a1.55,1.55,0,0,0,.46.05,1.87,1.87,0,0,0,.34,0,5.32,5.32,0,0,0,.16-1.6v-16a4.31,4.31,0,0,0-.21-1.72.76.76,0,0,0-.42-.09,1.51,1.51,0,0,0-.32,0A5.44,5.44,0,0,0,86,21.21v16A4.9,4.9,0,0,0,86.13,38.83ZM68.65,19.91v6c.54-.08.68-.31.73-.4a6.17,6.17,0,0,0,.48-3,4.4,4.4,0,0,0-.4-2.36A1.19,1.19,0,0,0,68.65,19.91Zm-37,24.79c-2.86,0-5.07-.76-6.55-2.25a8.72,8.72,0,0,1-2.23-6.39V33.9L22.78,35a11.21,11.21,0,0,1-3,7.18,9.8,9.8,0,0,1-7.08,2.5c-3.61,0-6.41-.93-8.3-2.76S1.5,37.38,1.5,33.86V16.23c0-3.8,1-6.72,2.86-8.71s4.84-3,8.72-3a8.88,8.88,0,0,1,5.79,1.73,9,9,0,0,1,2.88,4.55L22.12,12l-1.18.54-2.75,1.28-1.48.69L16.15,13a3.48,3.48,0,0,0-.82-1.32,2.22,2.22,0,0,0-1.41-.34c-1.38,0-1.76.51-1.88.68a3.69,3.69,0,0,0-.66,2.28V34c0,2.12.48,2.94.76,3.24A3.12,3.12,0,0,0,14.5,38a1.87,1.87,0,0,0,1.55-.8,7,7,0,0,0,1.24-3.09l.27-1.48,1.48.28,2.53.49,1.33.25V22.53A9.26,9.26,0,0,1,25.1,16c1.49-1.61,3.68-2.42,6.53-2.42s5,.75,6.52,2.24a8.61,8.61,0,0,1,2.26,6.36V35.79a9.15,9.15,0,0,1-2.23,6.53A8.58,8.58,0,0,1,31.68,44.7Zm-.42-5.88a1.18,1.18,0,0,0,.46.06,2.13,2.13,0,0,0,.35,0,5.94,5.94,0,0,0,.15-1.6v-16A4.26,4.26,0,0,0,32,19.49a.76.76,0,0,0-.42-.09,1.51,1.51,0,0,0-.32,0,5.79,5.79,0,0,0-.18,1.78v16A4.75,4.75,0,0,0,31.26,38.82Zm163.06,5.44h-4.86l-.43-.75-6.25-10.87V44.26h-6V14.06h5.46l.43.8,5.79,10.81V14.06h5.84v30.2Zm-38,0h-8.15V14.06h8.15v30.2Zm-23.87,0h-8.55l-.28-1.15-.92-3.83h-2.56l-.93,3.83L119,44.26H106.26V33.9a8.42,8.42,0,0,0-.1-1.48A1.13,1.13,0,0,0,106,32a.62.62,0,0,0-.19-.09,3.45,3.45,0,0,0-.71-.1v12.5H96.94V14.06h7.63A11.64,11.64,0,0,1,111.63,16c1.82,1.35,2.74,3.53,2.74,6.49a7.9,7.9,0,0,1-1.64,5.38,6.34,6.34,0,0,1-1.12,1,6.46,6.46,0,0,1,1,.86,7.48,7.48,0,0,1,1.79,5.38v3.61l6-23.47.29-1.13h4.38l.28,1.15L132,42.4ZM105.09,19.9v6c.59-.08.74-.31.79-.39a5.94,5.94,0,0,0,.47-3c0-1.9-.35-2.35-.36-2.37A1.44,1.44,0,0,0,105.09,19.9ZM59.55,44.26H51.4V33.9a8.28,8.28,0,0,0-.11-1.48,1.21,1.21,0,0,0-.16-.47h0a.46.46,0,0,0-.19-.08,3.45,3.45,0,0,0-.71-.1v12.5H42.07V14.06H49.7A11.69,11.69,0,0,1,56.77,16c1.81,1.35,2.73,3.53,2.73,6.49a7.9,7.9,0,0,1-1.64,5.38,6.34,6.34,0,0,1-1.12,1,6.46,6.46,0,0,1,1,.86,7.5,7.5,0,0,1,1.8,5.38v9.21ZM50.22,19.9v6c.59-.08.74-.31.8-.39a5.94,5.94,0,0,0,.47-3c0-1.9-.36-2.35-.37-2.37A1.44,1.44,0,0,0,50.22,19.9Z"/><path d="M166.8,43.2a7.12,7.12,0,0,0,5.42-1.92A7.67,7.67,0,0,0,174,35.79V22.18a7.13,7.13,0,0,0-1.82-5.29q-1.82-1.82-5.46-1.81A7.08,7.08,0,0,0,161.32,17a7.8,7.8,0,0,0-1.8,5.51V36.06a7.24,7.24,0,0,0,1.8,5.33q1.8,1.81,5.48,1.81m-.08-25.3a1.91,1.91,0,0,1,1.59.66,4.48,4.48,0,0,1,.54,2.65v16a5,5,0,0,1-.43,2.49,1.73,1.73,0,0,1-1.57.64,1.9,1.9,0,0,1-1.66-.64,4.51,4.51,0,0,1-.47-2.49v-16a5.36,5.36,0,0,1,.44-2.65,1.75,1.75,0,0,1,1.56-.66M139.81,43.2q5.82,0,6.49-6.35l-1.91-.39a6.85,6.85,0,0,1-1.16,2.86,2.44,2.44,0,0,1-2,1.06,3.32,3.32,0,0,1-2.57-1,4.65,4.65,0,0,1-.89-3.24V21.38a4,4,0,0,1,.71-2.42,2.61,2.61,0,0,1,2.31-1,2.42,2.42,0,0,1,1.86.64,4.53,4.53,0,0,1,.89,1.48l2.09-1a6.06,6.06,0,0,0-1.8-2.95,5.41,5.41,0,0,0-3.66-1.1q-3.91,0-5.75,2a8.25,8.25,0,0,0-1.85,5.82V36.06a7.24,7.24,0,0,0,1.8,5.33q1.8,1.81,5.48,1.81m-53.27,0A7.12,7.12,0,0,0,92,41.28a7.67,7.67,0,0,0,1.82-5.49V22.18A7.13,7.13,0,0,0,92,16.89q-1.81-1.82-5.46-1.81A7.08,7.08,0,0,0,81.06,17a7.84,7.84,0,0,0-1.8,5.51V36.06a7.28,7.28,0,0,0,1.8,5.33q1.8,1.81,5.48,1.81m-.08-25.3a1.91,1.91,0,0,1,1.59.66,4.48,4.48,0,0,1,.54,2.65v16a4.89,4.89,0,0,1-.43,2.49,1.73,1.73,0,0,1-1.57.64,1.9,1.9,0,0,1-1.66-.64,4.51,4.51,0,0,1-.47-2.49v-16a5.36,5.36,0,0,1,.44-2.65,1.75,1.75,0,0,1,1.56-.66M31.68,43.2a7.11,7.11,0,0,0,5.41-1.92,7.63,7.63,0,0,0,1.82-5.49V22.18a7.09,7.09,0,0,0-1.82-5.29q-1.81-1.82-5.46-1.81A7.06,7.06,0,0,0,26.2,17a7.8,7.8,0,0,0-1.8,5.51V36.06a7.24,7.24,0,0,0,1.8,5.33Q28,43.21,31.68,43.2m-.09-25.3a1.94,1.94,0,0,1,1.6.66,4.57,4.57,0,0,1,.53,2.65v16a5,5,0,0,1-.42,2.49,1.75,1.75,0,0,1-1.58.64,1.91,1.91,0,0,1-1.66-.64,4.6,4.6,0,0,1-.47-2.49v-16A5.36,5.36,0,0,1,30,18.56a1.75,1.75,0,0,1,1.56-.66M12.68,43.2c5.17,0,8.05-2.78,8.61-8.33l-2.53-.48a8.53,8.53,0,0,1-1.53,3.74A3.37,3.37,0,0,1,14.5,39.5a4.5,4.5,0,0,1-3.44-1.24C10.27,37.44,9.88,36,9.88,34V14.29a5.16,5.16,0,0,1,1-3.18,3.59,3.59,0,0,1,3.08-1.28,3.35,3.35,0,0,1,2.46.78,5,5,0,0,1,1.18,1.87l2.75-1.28a7.51,7.51,0,0,0-2.39-3.81A7.42,7.42,0,0,0,13.08,6Q7.89,6,5.44,8.56T3,16.23V33.86q0,9.35,9.68,9.34m180.14-.44V15.56H190V31.65l-8.62-16.09H178.3v27.2h3V27l9.05,15.74h2.49m-38,0V15.56h-5.15v27.2h5.15m-24.28,0-6.66-27.2h-2l-7,27.2h2.89l1.2-5h4.92l1.2,5h5.46m-9.1-15.43L123.26,35h-3.6l1.82-7.63m-8.57,15.43V35.05a6.07,6.07,0,0,0-1.37-4.34,6.54,6.54,0,0,0-4-1.79,7.58,7.58,0,0,0,4-2.09,6.46,6.46,0,0,0,1.27-4.39q0-3.71-2.13-5.29a10.2,10.2,0,0,0-6.17-1.59H98.44v27.2h5.15V30.24h1.07a5.64,5.64,0,0,1,1.55.18,1.8,1.8,0,0,1,1,.59,2.49,2.49,0,0,1,.47,1.13,9.66,9.66,0,0,1,.13,1.76v8.86h5.15m-9.32-24.38h1.07a3,3,0,0,1,2.48.87,5.44,5.44,0,0,1,.71,3.32,7.28,7.28,0,0,1-.71,3.79,2.71,2.71,0,0,1-2.48,1.11h-1.07V18.38M67.15,42.76V30.24h1.06c2.78,0,4.85-.65,6.19-2s2-3.25,2-5.84-.74-4.3-2.24-5.33-3.78-1.55-6.86-1.55H62v27.2h5.15m0-24.38h1.06a2.84,2.84,0,0,1,2.46.95,5.71,5.71,0,0,1,.69,3.24,7.63,7.63,0,0,1-.69,3.73,2.6,2.6,0,0,1-2.46,1.17H67.15V18.38m-9.1,24.38V35.05a6,6,0,0,0-1.38-4.34,6.54,6.54,0,0,0-4-1.79,7.65,7.65,0,0,0,4-2.09A6.52,6.52,0,0,0,58,22.44q0-3.71-2.13-5.29a10.2,10.2,0,0,0-6.17-1.59H43.57v27.2h5.15V30.24h1.07a5.64,5.64,0,0,1,1.55.18,1.83,1.83,0,0,1,1,.59,2.6,2.6,0,0,1,.46,1.13,9.56,9.56,0,0,1,.14,1.76v8.86h5.15M48.72,18.38h1.07a3.08,3.08,0,0,1,2.49.87A5.52,5.52,0,0,1,53,22.57a7.39,7.39,0,0,1-.71,3.79,2.74,2.74,0,0,1-2.49,1.11H48.72V18.38M166.8,46.2c-3.27,0-5.83-.91-7.6-2.69a8.47,8.47,0,0,1-1.34-1.75v4H146.71V43.48l-.27.28a9.09,9.09,0,0,1-6.63,2.44,12,12,0,0,1-5.6-1.21l.19.77H122.76l-.56-2.3-.64-2.68h-.2l-.65,2.68-.55,2.3H95.44V41.57a9.13,9.13,0,0,1-1.3,1.78,10,10,0,0,1-7.6,2.85c-3.27,0-5.83-.91-7.61-2.69a10.15,10.15,0,0,1-2.67-7.45V30.65a10.56,10.56,0,0,1-6.11,2.49V45.76H40.57V41.57a8.47,8.47,0,0,1-1.3,1.78,10,10,0,0,1-7.59,2.85c-3.28,0-5.84-.91-7.61-2.69a8.3,8.3,0,0,1-1.63-2.32,9.91,9.91,0,0,1-1.64,2.08,11.2,11.2,0,0,1-8.12,2.93c-4,0-7.16-1.07-9.34-3.18S0,37.8,0,33.86V16.23C0,12,1.1,8.76,3.27,6.48S8.78,3,13.08,3a10.35,10.35,0,0,1,6.74,2.07,10.42,10.42,0,0,1,3.37,5.29l.73,2.48-2.34,1.08L18.82,15.2l-3,1.38L14.74,13.5a2,2,0,0,0-.35-.63,2.23,2.23,0,0,0-.47,0,1.93,1.93,0,0,0-.7.1,2.19,2.19,0,0,0-.34,1.36V34a4.41,4.41,0,0,0,.35,2.21,2,2,0,0,0,1.27.3c.12,0,.19,0,.38-.24a5.62,5.62,0,0,0,.93-2.43l.56-3,2.95.57,2.08.4V22.53A10.73,10.73,0,0,1,24,15c1.79-1.93,4.36-2.9,7.64-2.9s5.79.9,7.58,2.68a8.34,8.34,0,0,1,1.36,1.77v-4H49.7a13.08,13.08,0,0,1,8,2.19A7.64,7.64,0,0,1,59,16V12.56h8.32c3.74,0,6.54.68,8.56,2.08a7.39,7.39,0,0,1,1.87,1.83A9,9,0,0,1,78.86,15c1.79-1.93,4.36-2.9,7.64-2.9s5.78.9,7.57,2.68a8.2,8.2,0,0,1,1.37,1.78v-4h9.13a13.08,13.08,0,0,1,8,2.19,7.79,7.79,0,0,1,2.59,3.4,11.41,11.41,0,0,1,.75,4.29,9.35,9.35,0,0,1-2,6.36A7.23,7.23,0,0,1,115,30.45l4-15.63.57-2.26h6.73l.56,2.29,2.69,11v-3c0-3.33.89-6,2.65-7.86S136.66,12,140.13,12a8.31,8.31,0,0,1,5.63,1.84,8.7,8.7,0,0,1,1,1V12.56h11.15v4.16A9,9,0,0,1,159.12,15c1.79-1.93,4.36-2.9,7.64-2.9s5.78.9,7.57,2.68a8.2,8.2,0,0,1,1,1.15V12.56h7.86l.85,1.59,3,5.54V12.56h8.84v33.2H188.6l-.87-1.5-3.45-6v7.51h-9V42.22a8.92,8.92,0,0,1-.9,1.13A10,10,0,0,1,166.8,46.2Zm-26-8.85.1,0a4.8,4.8,0,0,0,.5-1.49l.59-3,3,.62,1.71.36v-12l-2,.9-2.94,1.37-1.09-2.92v15A5,5,0,0,0,140.84,37.35Z"/></g></g></g><g id="Uni贸n_44" data-name="Uni贸n 44"><path class="cls-1" d="M169.81,41.7c-2.86,0-5.07-.76-6.55-2.25A8.72,8.72,0,0,1,161,33.06V19.53A9.26,9.26,0,0,1,163.22,13c1.49-1.61,3.69-2.42,6.54-2.42s5,.75,6.52,2.24a8.62,8.62,0,0,1,2.26,6.36V32.79a9.17,9.17,0,0,1-2.23,6.53A8.58,8.58,0,0,1,169.81,41.7Zm-.42-5.87a1.55,1.55,0,0,0,.46.05,1.87,1.87,0,0,0,.34,0,5.32,5.32,0,0,0,.16-1.6v-16a4.37,4.37,0,0,0-.21-1.72.78.78,0,0,0-.42-.09,1.51,1.51,0,0,0-.32,0,5.79,5.79,0,0,0-.18,1.78v16A4.9,4.9,0,0,0,169.39,35.83ZM142.81,41.7c-2.85,0-5.06-.76-6.54-2.25A8.72,8.72,0,0,1,134,33.06V19.84A9.7,9.7,0,0,1,136.28,13c1.52-1.64,3.82-2.46,6.85-2.46A6.86,6.86,0,0,1,147.78,12,7.49,7.49,0,0,1,150,15.68l.35,1.23-1.16.54-2.09,1-1.47.68-.57-1.52a3,3,0,0,0-.59-1h0a1.26,1.26,0,0,0-.75-.15c-.82,0-1,.28-1.08.38a2.59,2.59,0,0,0-.44,1.56V33.19c0,1.54.34,2.06.48,2.21s.44.48,1.48.48a1,1,0,0,0,.85-.46,5.71,5.71,0,0,0,.88-2.25l.29-1.49,1.48.31,1.91.4,1.33.27L150.79,34a9,9,0,0,1-2.4,5.68A7.68,7.68,0,0,1,142.81,41.7Zm-53.27,0c-2.86,0-5.06-.76-6.54-2.25a8.72,8.72,0,0,1-2.23-6.39V21.58a8.32,8.32,0,0,1-2.32,4.78c-1.56,1.51-3.84,2.31-6.8,2.38V41.26H63.5V11.06h6.82c3.42,0,6,.6,7.71,1.81A6.85,6.85,0,0,1,80.85,18,8.53,8.53,0,0,1,83,13c1.49-1.61,3.69-2.42,6.54-2.42s5,.75,6.52,2.24a8.62,8.62,0,0,1,2.26,6.36V32.79a9.17,9.17,0,0,1-2.23,6.53A8.59,8.59,0,0,1,89.54,41.7Zm-.41-5.87a1.55,1.55,0,0,0,.46.05,1.87,1.87,0,0,0,.34,0,5.32,5.32,0,0,0,.16-1.6v-16a4.31,4.31,0,0,0-.21-1.72.76.76,0,0,0-.42-.09,1.51,1.51,0,0,0-.32,0A5.79,5.79,0,0,0,89,18.21v16A4.9,4.9,0,0,0,89.13,35.83ZM71.65,16.91v6c.54-.08.68-.31.73-.4a6.17,6.17,0,0,0,.48-3,4.28,4.28,0,0,0-.4-2.36A1.19,1.19,0,0,0,71.65,16.91Zm-37,24.79c-2.86,0-5.06-.76-6.55-2.25a8.72,8.72,0,0,1-2.23-6.39V30.9L25.78,32a11.21,11.21,0,0,1-3,7.18,9.8,9.8,0,0,1-7.08,2.5c-3.61,0-6.41-.93-8.3-2.76S4.5,34.38,4.5,30.86V13.23c0-3.8,1-6.72,2.86-8.71s4.85-3,8.72-3a8.87,8.87,0,0,1,5.79,1.73,9,9,0,0,1,2.88,4.55L25.12,9,24,9.56l-2.76,1.28-1.48.69L19.15,10a3.48,3.48,0,0,0-.82-1.32,2.22,2.22,0,0,0-1.41-.34c-1.38,0-1.76.51-1.88.68a3.69,3.69,0,0,0-.66,2.28V31c0,2.12.48,2.94.76,3.24A3.12,3.12,0,0,0,17.5,35a1.87,1.87,0,0,0,1.55-.8,7,7,0,0,0,1.24-3.09l.27-1.48,1.48.28,2.53.49,1.33.25V19.53A9.26,9.26,0,0,1,28.1,13c1.49-1.61,3.69-2.42,6.53-2.42s5,.75,6.52,2.24a8.61,8.61,0,0,1,2.26,6.36V32.79a9.15,9.15,0,0,1-2.23,6.53A8.58,8.58,0,0,1,34.68,41.7Zm-.42-5.88a1.18,1.18,0,0,0,.46.06,2,2,0,0,0,.35,0,5.94,5.94,0,0,0,.15-1.6v-16A4.26,4.26,0,0,0,35,16.49a.76.76,0,0,0-.42-.09,1.51,1.51,0,0,0-.32,0,5.79,5.79,0,0,0-.18,1.78v16A4.75,4.75,0,0,0,34.26,35.82Zm163.06,5.44h-4.86l-.43-.75-6.25-10.87V41.26h-6V11.06h5.46l.43.8,5.79,10.81V11.06h5.84v30.2Zm-38,0h-8.15V11.06h8.15v30.2Zm-23.87,0h-8.55l-.28-1.15-.92-3.83h-2.56l-.93,3.83L122,41.26H109.27V30.9a8.28,8.28,0,0,0-.11-1.48A1.13,1.13,0,0,0,109,29a.5.5,0,0,0-.19-.09,3.45,3.45,0,0,0-.71-.1v12.5H99.94V11.06h7.63A11.69,11.69,0,0,1,114.64,13c1.81,1.35,2.73,3.53,2.73,6.49a7.9,7.9,0,0,1-1.64,5.38,6.34,6.34,0,0,1-1.12,1,6.46,6.46,0,0,1,1,.86,7.48,7.48,0,0,1,1.79,5.38v3.61l6-23.47.29-1.13h4.38l.28,1.15L135,39.4ZM108.09,16.9v6c.59-.08.74-.31.8-.39a6.15,6.15,0,0,0,.46-3c0-1.9-.35-2.35-.36-2.37A1.44,1.44,0,0,0,108.09,16.9ZM62.55,41.26H54.4V30.9a8.28,8.28,0,0,0-.11-1.48,1.21,1.21,0,0,0-.16-.47h0a.46.46,0,0,0-.19-.08,3.45,3.45,0,0,0-.71-.1v12.5H45.07V11.06H52.7A11.69,11.69,0,0,1,59.77,13c1.81,1.35,2.73,3.53,2.73,6.49a7.9,7.9,0,0,1-1.64,5.38,6.64,6.64,0,0,1-1.11,1,6.87,6.87,0,0,1,1,.86,7.5,7.5,0,0,1,1.8,5.38v9.21ZM53.22,16.9v6c.59-.08.74-.31.8-.39a5.94,5.94,0,0,0,.47-3c0-1.9-.36-2.35-.37-2.37A1.44,1.44,0,0,0,53.22,16.9Z"/><path d="M169.81,40.2a7.11,7.11,0,0,0,5.41-1.92A7.67,7.67,0,0,0,177,32.79V19.18a7.13,7.13,0,0,0-1.82-5.29q-1.82-1.82-5.46-1.81A7.08,7.08,0,0,0,164.32,14a7.79,7.79,0,0,0-1.79,5.51V33.06a7.23,7.23,0,0,0,1.79,5.33q1.8,1.81,5.49,1.81m-.09-25.3a1.91,1.91,0,0,1,1.59.66,4.48,4.48,0,0,1,.54,2.65v16a5,5,0,0,1-.42,2.49,1.76,1.76,0,0,1-1.58.64,1.91,1.91,0,0,1-1.66-.64,4.51,4.51,0,0,1-.47-2.49v-16a5.36,5.36,0,0,1,.44-2.65,1.75,1.75,0,0,1,1.56-.66M142.81,40.2q5.82,0,6.49-6.35l-1.91-.39a6.85,6.85,0,0,1-1.16,2.86,2.44,2.44,0,0,1-2,1.06,3.32,3.32,0,0,1-2.57-1,4.65,4.65,0,0,1-.89-3.24V18.38a4.12,4.12,0,0,1,.71-2.42,2.61,2.61,0,0,1,2.31-1,2.4,2.4,0,0,1,1.86.64,4.53,4.53,0,0,1,.89,1.48l2.09-1a6.06,6.06,0,0,0-1.8-2.95,5.39,5.39,0,0,0-3.66-1.1c-2.61,0-4.52.66-5.75,2a8.25,8.25,0,0,0-1.84,5.82V33.06a7.23,7.23,0,0,0,1.79,5.33q1.8,1.81,5.48,1.81m-53.27,0A7.12,7.12,0,0,0,95,38.28a7.67,7.67,0,0,0,1.82-5.49V19.18A7.13,7.13,0,0,0,95,13.89q-1.81-1.82-5.46-1.81A7.08,7.08,0,0,0,84.06,14a7.84,7.84,0,0,0-1.79,5.51V33.06a7.27,7.27,0,0,0,1.79,5.33q1.8,1.81,5.48,1.81m-.08-25.3a1.91,1.91,0,0,1,1.59.66,4.48,4.48,0,0,1,.54,2.65v16a5,5,0,0,1-.42,2.49,1.76,1.76,0,0,1-1.58.64,1.91,1.91,0,0,1-1.66-.64,4.51,4.51,0,0,1-.47-2.49v-16a5.36,5.36,0,0,1,.44-2.65,1.75,1.75,0,0,1,1.56-.66M34.68,40.2a7.1,7.1,0,0,0,5.41-1.92,7.63,7.63,0,0,0,1.82-5.49V19.18a7.09,7.09,0,0,0-1.82-5.29q-1.81-1.82-5.46-1.81A7.06,7.06,0,0,0,29.2,14a7.8,7.8,0,0,0-1.8,5.51V33.06a7.24,7.24,0,0,0,1.8,5.33Q31,40.21,34.68,40.2m-.09-25.3a1.94,1.94,0,0,1,1.6.66,4.57,4.57,0,0,1,.53,2.65v16a5,5,0,0,1-.42,2.49,1.75,1.75,0,0,1-1.58.64,1.91,1.91,0,0,1-1.66-.64,4.6,4.6,0,0,1-.47-2.49v-16A5.22,5.22,0,0,1,33,15.56a1.72,1.72,0,0,1,1.55-.66M15.68,40.2q7.77,0,8.61-8.33l-2.53-.48a8.53,8.53,0,0,1-1.53,3.74A3.37,3.37,0,0,1,17.5,36.5a4.5,4.5,0,0,1-3.44-1.24c-.79-.82-1.18-2.24-1.18-4.27V11.29a5.16,5.16,0,0,1,1-3.18,3.59,3.59,0,0,1,3.08-1.28,3.37,3.37,0,0,1,2.47.78,5.12,5.12,0,0,1,1.17,1.87L23.31,8.2a7.51,7.51,0,0,0-2.39-3.81A7.42,7.42,0,0,0,16.08,3Q10.89,3,8.44,5.56T6,13.23V30.86q0,9.35,9.68,9.34m180.14-.44V12.56H193V28.65l-8.62-16.09H181.3v27.2h3V24l9.05,15.74h2.49m-38,0V12.56h-5.15v27.2h5.15m-24.28,0-6.66-27.2h-2l-7,27.2h2.89l1.2-5h4.92l1.2,5h5.46m-9.1-15.43L126.26,32h-3.6l1.82-7.63m-8.57,15.43V32.05a6,6,0,0,0-1.37-4.34,6.54,6.54,0,0,0-4-1.79,7.58,7.58,0,0,0,4-2.09,6.46,6.46,0,0,0,1.27-4.39q0-3.71-2.13-5.29a10.2,10.2,0,0,0-6.17-1.59h-6.13v27.2h5.15V27.24h1.07a5.64,5.64,0,0,1,1.55.18,1.88,1.88,0,0,1,1,.59,2.6,2.6,0,0,1,.46,1.13,9.56,9.56,0,0,1,.14,1.76v8.86h5.14m-9.32-24.38h1.07a3,3,0,0,1,2.48.87,5.44,5.44,0,0,1,.71,3.32,7.28,7.28,0,0,1-.71,3.79,2.71,2.71,0,0,1-2.48,1.11h-1.07V15.38M70.15,39.76V27.24h1.06c2.78,0,4.85-.65,6.19-2s2-3.25,2-5.84-.74-4.3-2.24-5.33-3.78-1.55-6.86-1.55H65v27.2h5.15m0-24.38h1.06a2.87,2.87,0,0,1,2.47.95,5.8,5.8,0,0,1,.68,3.24,7.77,7.77,0,0,1-.68,3.73,2.62,2.62,0,0,1-2.47,1.17H70.15V15.38m-9.1,24.38V32.05a6,6,0,0,0-1.38-4.34,6.51,6.51,0,0,0-4-1.79,7.65,7.65,0,0,0,4-2.09A6.52,6.52,0,0,0,61,19.44q0-3.71-2.13-5.29a10.2,10.2,0,0,0-6.17-1.59H46.57v27.2h5.15V27.24h1.07a5.64,5.64,0,0,1,1.55.18,1.8,1.8,0,0,1,1,.59,2.49,2.49,0,0,1,.46,1.13,9.56,9.56,0,0,1,.14,1.76v8.86h5.15M51.72,15.38h1.07a3.08,3.08,0,0,1,2.49.87A5.52,5.52,0,0,1,56,19.57a7.39,7.39,0,0,1-.71,3.79,2.74,2.74,0,0,1-2.49,1.11H51.72V15.38M169.81,43.2c-3.28,0-5.84-.9-7.61-2.69a8.47,8.47,0,0,1-1.34-1.75v4H149.71V40.48a3.5,3.5,0,0,1-.27.28,9.09,9.09,0,0,1-6.63,2.44A12,12,0,0,1,137.22,42l.19.77H125.76l-.55-2.3-.65-2.68h-.2l-.65,2.68-.55,2.3H98.44V38.57a8.74,8.74,0,0,1-1.3,1.78,10,10,0,0,1-7.6,2.85c-3.27,0-5.83-.91-7.61-2.69a10.15,10.15,0,0,1-2.66-7.45V27.65a10.62,10.62,0,0,1-6.12,2.49V42.76H43.57V38.57a8.47,8.47,0,0,1-1.3,1.78,10,10,0,0,1-7.59,2.85c-3.28,0-5.84-.91-7.61-2.69a8.3,8.3,0,0,1-1.63-2.32,9.59,9.59,0,0,1-1.64,2.08,11.2,11.2,0,0,1-8.12,2.93c-4,0-7.16-1.07-9.34-3.18S3,34.8,3,30.86V13.23C3,9,4.1,5.76,6.27,3.48S11.78,0,16.08,0a10.35,10.35,0,0,1,6.74,2.07,10.42,10.42,0,0,1,3.37,5.29l.73,2.48-2.34,1.08L21.82,12.2l-3,1.38L17.74,10.5a2.14,2.14,0,0,0-.35-.63,2.15,2.15,0,0,0-.47,0,1.93,1.93,0,0,0-.7.1,2.19,2.19,0,0,0-.34,1.36V31a4.41,4.41,0,0,0,.35,2.21,2,2,0,0,0,1.27.3c.12,0,.19,0,.38-.24a5.62,5.62,0,0,0,.93-2.43l.56-3,3,.57,2.07.4V19.53A10.69,10.69,0,0,1,27,12c1.78-1.93,4.35-2.9,7.63-2.9s5.79.9,7.58,2.68a8.34,8.34,0,0,1,1.36,1.77v-4H52.7a13.08,13.08,0,0,1,8,2.19A7.64,7.64,0,0,1,62,13V9.56h8.32c3.74,0,6.54.68,8.56,2.08a7.23,7.23,0,0,1,1.87,1.83A9,9,0,0,1,81.86,12c1.79-1.93,4.36-2.9,7.64-2.9s5.78.9,7.58,2.68a8.16,8.16,0,0,1,1.36,1.78v-4h9.13a13.08,13.08,0,0,1,8,2.19,7.72,7.72,0,0,1,2.59,3.4,11.41,11.41,0,0,1,.75,4.29,9.35,9.35,0,0,1-2,6.36A7.23,7.23,0,0,1,118,27.45l4-15.63.57-2.26h6.73l.56,2.29,2.7,11v-3c0-3.33.89-6,2.64-7.86S139.67,9,143.13,9a8.31,8.31,0,0,1,5.63,1.84,7.91,7.91,0,0,1,1,1V9.56h11.15v4.16A9.9,9.9,0,0,1,162.12,12c1.79-1.93,4.36-2.9,7.64-2.9s5.78.9,7.58,2.68a8.13,8.13,0,0,1,1,1.15V9.56h7.86l.85,1.59,3,5.54V9.56h8.84v33.2H191.6l-.87-1.5-3.45-6v7.51h-9V39.22a8.92,8.92,0,0,1-.9,1.13A10,10,0,0,1,169.81,43.2Zm-26-8.85.1,0a4.54,4.54,0,0,0,.5-1.49l.59-3,3,.62,1.71.36v-12l-2,.9-2.94,1.37-1.09-2.92v15A5,5,0,0,0,143.84,34.35Z"/></g></g></g></g></svg>