<svg xmlns="http://www.w3.org/2000/svg" viewBox="0 0 27.484 30"><g data-name="Grupo 688" transform="translate(-4089.651 -1503.991)"><path data-name="Trazado 1366" d="M4112.056 1503.991a17.919 17.919 0 01-.6 2.144c-.483 1.39-.742 1.588-.907 1.677-.854.46-2.088-.423-2.272-.557a4.842 4.842 0 01.912 1.6 1.627 1.627 0 01.123.778 1.859 1.859 0 01-.913 1.161 2.936 2.936 0 01-1.411.491 3.378 3.378 0 012.08.181.712.712 0 01.321.246c.417.634-.659 1.917-.723 1.991a1.841 1.841 0 011.257-1.166 1.537 1.537 0 011.178.235 1.572 1.572 0 01.61 1.478 4.882 4.882 0 01.551-2.077c1.342-2.532 4.539-2.832 4.875-2.858-1.1-.3-1.975-.521-2.555-.665-.817-.2-1.1-.26-1.39-.54-.411-.4-.41-.859-.634-2.027-.102-.497-.256-1.219-.502-2.092z" fill="#ff8d00"/><path data-name="Trazado 1367" d="M4112.286 1508.89c.644.689 2.082.669 2.074.713-.253.172-.673.456-1.21.8a4.1 4.1 0 00-.917.73 2.727 2.727 0 00-.612 1.681 1.07 1.07 0 00-.9-1.052 1.036 1.036 0 00-.8.373.833.833 0 00.047-.7.814.814 0 00-.455-.434.84.84 0 00-.66.041 2.928 2.928 0 00.99-.906 1.214 1.214 0 00.253-.566 1.368 1.368 0 00-.553-1.078 1.412 1.412 0 00.771.229 1.5 1.5 0 00.8-.264 2.046 2.046 0 00.772-.9 1.775 1.775 0 00.4 1.333z" fill="#ffdb00"/><ellipse data-name="Elipse 88" cx="2.349" cy="4.468" rx="2.349" ry="4.468" transform="rotate(-44.36 3909.4324 -4276.9553)" fill="#f2132a"/><path data-name="Trazado 1369" d="M4091.255 1532.105a7.352 7.352 0 00.754.684 6.944 6.944 0 001.618.962 3.432 3.432 0 00.473.174 2.878 2.878 0 001.959-.265q1.382-1.614 2.882-3.24a116.687 116.687 0 0112.768-11.907 3.057 3.057 0 01-2.1.226 6.4 6.4 0 01-2.7-1.781 6.534 6.534 0 01-1.477-2.071 3.42 3.42 0 01-.314-1.669 2.947 2.947 0 01.346-1.1q-.475.536-.959 1.07a144 144 0 01-14.691 14.081 4.779 4.779 0 00-.089 2.048 5.441 5.441 0 001.53 2.788z" fill="#cb0017"/><path data-name="Trazado 1370" d="M4091.953 1532.742a6.194 6.194 0 002.145 1.181l15.648-15.148a6.2 6.2 0 01-2.145-1.181l-15.649 15.148" fill="#f2132a"/><ellipse data-name="Elipse 89" cx="1.828" cy="3.477" rx="1.828" ry="3.477" transform="rotate(-44.36 3910.387 -4278.0897)" fill="#442008"/><path data-name="Trazado 1371" d="M4108.628 1515.262a10.675 10.675 0 002.973-5.24" fill="none" stroke="#bfb194" stroke-linecap="round" stroke-miterlimit="10"/></g></svg>