<svg xmlns="http://www.w3.org/2000/svg" viewBox="0 0 52.816 20"><g data-name="Grupo 681"><g data-name="Grupo 685"><path data-name="Trazado 1343" d="M31.806 10H13.413l2.266 9.87h19.148z" fill="#f2b200"/><path data-name="Trazado 1344" d="M2.266 10h11.148l2.266 9.87H.001z" fill="#ffe52a"/><path data-name="Trazado 1345" d="M13.414 10H2.266c1.4.761 2.849 1.623 4.332 2.6a61.043 61.043 0 019.038 7.271h.044z" fill="#ffe966"/><path data-name="Trazado 1346" d="M14.694 14.743c-.25-.739-.458-1.489-.66-2.24s-.383-1.507-.557-2.264l-.053-.231h.237c1.492.008 2.985.044 4.478.188-1.493.145-2.986.18-4.478.188l.183-.23c.171.758.337 1.517.477 2.282s.279 1.532.373 2.307z" opacity=".1"/><path data-name="Trazado 1347" d="M15.797 19.52H.08l-.08.35h34.827l-.107-.35z" fill="#8b4900"/><path data-name="Trazado 1348" d="M18.437 10l-2.266 9.87h15.676L29.581 10z" fill="#b26e00" opacity=".7"/></g><g data-name="Grupo 686"><path data-name="Trazado 1349" d="M49.795 10H31.402l2.265 10h19.148z" fill="#ffcf00"/><path data-name="Trazado 1350" d="M20.257 10h11.148l2.266 9.87H17.992z" fill="#ffe52a"/><path data-name="Trazado 1351" d="M31.403 10H20.255c1.4.761 2.848 1.623 4.332 2.6a61.068 61.068 0 019.038 7.271h.044z" fill="#ffe966"/><path data-name="Trazado 1352" d="M45.329 15.939q3.861 1.824 7.377 3.7l-2.912-9.513-18.071.081c4.325 1.61 8.881 3.5 13.606 5.732z" fill="#ffb600"/><path data-name="Trazado 1353" d="M32.756 14.759c-.25-.74-.458-1.49-.66-2.241s-.382-1.507-.556-2.263l-.054-.232h.237c1.493.008 2.986.044 4.478.188-1.492.145-2.985.18-4.478.189l.183-.23c.17.758.336 1.517.476 2.282s.28 1.529.374 2.307z" opacity=".1"/><path data-name="Trazado 1354" d="M33.786 19.65H18.069l-.08.35h34.827l-.107-.35z" fill="#8b4900"/></g><path data-name="Trazado 1355" d="M41.354 0H22.961l2.265 10h19.148z" fill="#ffcf00"/><path data-name="Trazado 1356" d="M11.814 0h11.148l2.266 9.87H9.549z" fill="#ffe52a"/><path data-name="Trazado 1357" d="M22.959 0H11.811c1.4.761 2.848 1.623 4.332 2.6a61.043 61.043 0 019.038 7.271h.044z" fill="#ffe966"/><path data-name="Trazado 1358" d="M36.461 5.612a129.975 129.975 0 017.8 4.031L41.35.13 23.278.211a131.358 131.358 0 0113.183 5.401z" fill="#ffb600"/><path data-name="Trazado 1359" d="M24.318 4.757c-.25-.74-.457-1.49-.659-2.241s-.383-1.507-.557-2.263l-.054-.232h.237c1.493.008 2.986.044 4.479.188-1.493.145-2.986.18-4.479.189l.183-.23c.17.758.336 1.517.476 2.282s.274 1.531.374 2.307z" opacity=".1"/><path data-name="Trazado 1360" d="M25.345 9.779H9.599L9.548 10h34.827l-.068-.221z" fill="#8b4900"/></g></svg>