<svg xmlns="http://www.w3.org/2000/svg" viewBox="0 0 31.378 31.376"><g data-name="Unión 93"><g data-name="Grupo 1379"><path data-name="Trazado 2336" d="M1.909 29.468c-.847-.847-1.158-1.908-.694-2.369l.726-.729.654-.654.242-.243.985-.984 1.264-1.264.985-.984 1.264-1.264.613-.612 1.637-1.636.983-.984.636-.636a1.039 1.039 0 01.8-.308L27.549 1.258a.871.871 0 011.016-.164 3.929 3.929 0 011.061.789 3.952 3.952 0 01.646.913.871.871 0 01-.158 1.023l-14.67 14.67-.877.876a1.042 1.042 0 01-.3.8l-.638.64-.985.983-.341.341.283.283.351.35.18.179.607.607.393.394 1.386 1.386.235.234.786.786.611.612.412.411.338.34c.287.288.095.947-.432 1.475s-1.187.72-1.476.43l-.337-.337-.465-.465-.561-.559-2.6-2.6-.2-.2-.425-.425-.993-.994-1.263 1.263-.983.984-1.264 1.264-.984.984-.24.24-.655.654-.728.729a.8.8 0 01-.588.214 2.778 2.778 0 01-1.782-.9z" fill="none"/></g><g data-name="Grupo 1380"><path data-name="Trazado 2337" d="M3.69 30.376a.807.807 0 00.588-.214l.728-.729.655-.654.24-.24.984-.984 1.264-1.264.983-.983 1.263-1.263.993.993.425.425.2.2 2.6 2.6.561.559.465.465.337.337a.5.5 0 00.367.135 1.734 1.734 0 001.109-.564c.527-.528.719-1.188.432-1.475l-.338-.341-.412-.411-.611-.612-.786-.785-.235-.234-1.386-1.386-.393-.393-.607-.608-.18-.179-.351-.35-.283-.282.341-.341.984-.984.639-.639a1.047 1.047 0 00.305-.8l.877-.876 14.67-14.67a.872.872 0 00.158-1.024 3.945 3.945 0 00-.647-.913 3.952 3.952 0 00-1.06-.788.846.846 0 00-.393-.1.886.886 0 00-.623.259L12.008 16.806h-.063a1.046 1.046 0 00-.741.31l-.636.636-.983.984-1.637 1.636-.613.612-1.264 1.264-.984.984-1.264 1.265-.985.984-.242.242-.654.654-.726.729c-.464.461-.153 1.522.694 2.369a2.775 2.775 0 001.781.908m0 1a3.743 3.743 0 01-2.488-1.2 3.745 3.745 0 01-1.2-2.493 1.9 1.9 0 01.219-.906l-.2.1 1.112-1.113.1-.1.656-.656.241-.242.986-.985.3-.3.961-.961.542-.541 1.711-1.708.613-.612.618-.619 1.016-1.016.983-.984.293-.293.343-.343a2.057 2.057 0 011.061-.565L26.846.56a1.9 1.9 0 011.33-.552 1.871 1.871 0 01.852.207 4.945 4.945 0 011.324.986 4.96 4.96 0 01.814 1.147 1.863 1.863 0 01-.342 2.189L16.449 18.912l-.293.293-.619.618a2.045 2.045 0 01-.563 1.062l-.638.639-.618.617.117.115.1.1.18.179.314.315.393.393.7.7.978.977.236.236.493.494.611.612.155.154.257.256.341.344c.7.7.511 1.94-.435 2.886a2.668 2.668 0 01-1.816.858 1.5 1.5 0 01-1.077-.43l-.335-.335-.464-.465-.559-.557-1.717-1.709h.006l-1.118-1.119-.687-.681-.553.553-.983.983-1.264 1.264-.984.984-.241.241-.654.654-.728.728a1.78 1.78 0 01-1.292.505z" fill="#fff8e6"/></g></g><g data-name="Trazado 2298"><path data-name="Trazado 2338" d="M17.886 27.716l-.339-.339-5.357-5.357a.655.655 0 00-.762-.118 2.918 2.918 0 00-.678.482 2.929 2.929 0 00-.588.788.649.649 0 00.122.756l5.357 5.357.339.339c.288.288.948.095 1.474-.432s.718-1.187.432-1.476z" fill="#3a4a4e"/></g><g data-name="Trazado 2299"><path data-name="Trazado 2339" d="M15.228 28.874a.747.747 0 00.382-.082 3.324 3.324 0 00.775-.551 3.351 3.351 0 00.672-.9.742.742 0 00.079-.373l-.613-.613a.74.74 0 01-.079.373 3.351 3.351 0 01-.672.9 3.344 3.344 0 01-.775.551.746.746 0 01-.382.082z" fill="#243335"/></g><g data-name="Trazado 2300"><path data-name="Trazado 2340" d="M13.828 27.475a.747.747 0 00.383-.082 3.344 3.344 0 00.775-.551 3.35 3.35 0 00.672-.9.741.741 0 00.079-.373l-.613-.613a.741.741 0 01-.079.373 3.35 3.35 0 01-.672.9 3.349 3.349 0 01-.775.551.745.745 0 01-.382.082z" fill="#243335"/></g><g data-name="Trazado 2301"><path data-name="Trazado 2341" d="M12.429 26.076a.741.741 0 00.382-.082 3.333 3.333 0 00.776-.551 3.353 3.353 0 00.672-.9.73.73 0 00.078-.373l-.612-.613a.752.752 0 01-.079.373 3.351 3.351 0 01-.672.9 3.353 3.353 0 01-.775.551.746.746 0 01-.382.082z" fill="#243335"/></g><g data-name="Trazado 2302"><path data-name="Trazado 2342" d="M11.029 24.677a.748.748 0 00.383-.082 3.353 3.353 0 00.775-.551 3.351 3.351 0 00.672-.9.742.742 0 00.079-.373l-.613-.613a.741.741 0 01-.079.373 3.35 3.35 0 01-.672.9 3.344 3.344 0 01-.775.551.746.746 0 01-.382.082z" fill="#243335"/></g><g data-name="Trazado 2303"><path data-name="Trazado 2343" d="M11.428 21.903a2.919 2.919 0 00-.678.482 2.944 2.944 0 00-.588.788.649.649 0 00.122.756l1.107 1.108a4.205 4.205 0 00.781-.618 3.926 3.926 0 00.946-1.47l-.927-.927a.656.656 0 00-.763-.119z" fill="#181f21" opacity=".4"/></g><g data-name="Trazado 2304"><path data-name="Trazado 2344" d="M11.82 22.121l-2.564-2.564 18.3-18.3a.876.876 0 011.016-.163 3.933 3.933 0 011.059.791 3.912 3.912 0 01.648.912.877.877 0 01-.159 1.025z" fill="#1b2b3a"/></g><g data-name="Trazado 2305"><path data-name="Trazado 2345" d="M15.449 18.497a1.125 1.125 0 00-.048-.106 5.571 5.571 0 00-.919-1.294 5.613 5.613 0 00-1.5-1.122 1.285 1.285 0 00-.093-.043l-3.629 3.63 2.564 2.563z" fill="#101a23"/></g><g data-name="Trazado 2306"><path data-name="Trazado 2346" d="M29.947 2.262a4.13 4.13 0 00-.184-.231L12.669 19.124l.208.208z" fill="#263847"/></g><g data-name="Trazado 2307"><path data-name="Trazado 2347" d="M14.458 18.948a4.684 4.684 0 00-.774-1.09 4.7 4.7 0 00-1.266-.945 1.047 1.047 0 00-1.215.2l-8.607 8.606-.655.655-.727.727 3.064 3.064.727-.727.655-.655 8.607-8.607a1.047 1.047 0 00.191-1.228z" fill="#3a4a4e"/></g><g data-name="Trazado 2308"><path data-name="Trazado 2348" d="M13.63 20.811a1.187 1.187 0 00-.132-.613 5.373 5.373 0 00-.885-1.246 5.377 5.377 0 00-1.447-1.08 1.187 1.187 0 00-.6-.127l-.985.985a1.187 1.187 0 01.6.127 5.375 5.375 0 011.447 1.08 5.37 5.37 0 01.885 1.246 1.2 1.2 0 01.133.613z" fill="#243335"/></g><g data-name="Trazado 2309"><path data-name="Trazado 2349" d="M11.384 23.059a1.188 1.188 0 00-.132-.613 5.369 5.369 0 00-.885-1.245 5.375 5.375 0 00-1.447-1.08 1.185 1.185 0 00-.6-.127l-.985.985a1.187 1.187 0 01.6.127 5.375 5.375 0 011.447 1.08 5.369 5.369 0 01.885 1.245 1.187 1.187 0 01.132.613z" fill="#243335"/></g><g data-name="Trazado 2310"><path data-name="Trazado 2350" d="M9.134 25.307a1.187 1.187 0 00-.131-.613 5.372 5.372 0 00-.885-1.246 5.375 5.375 0 00-1.447-1.08 1.187 1.187 0 00-.6-.127l-.984.985a1.185 1.185 0 01.6.127 5.376 5.376 0 011.447 1.08 5.405 5.405 0 01.886 1.246 1.2 1.2 0 01.13.613z" fill="#243335"/></g><g data-name="Trazado 2311"><path data-name="Trazado 2351" d="M6.887 27.554a1.2 1.2 0 00-.133-.613 5.373 5.373 0 00-.885-1.245 5.379 5.379 0 00-1.447-1.08 1.186 1.186 0 00-.6-.127l-.984.985a1.186 1.186 0 01.6.127 5.379 5.379 0 011.447 1.08 5.413 5.413 0 01.886 1.246 1.208 1.208 0 01.132.613z" fill="#243335"/></g><g data-name="Elipse 125"><ellipse data-name="Elipse 127" cx="1.185" cy="2.167" rx="1.185" ry="2.167" transform="rotate(-45 33.91 13.511)" fill="#243335"/></g></svg>