<svg xmlns="http://www.w3.org/2000/svg" width="60.802" height="65" viewBox="0 0 60.802 65">
  <g id="Grupo_665" data-name="Grupo 665" transform="translate(-2511.221 -2008.134)">
    <path id="Trazado_1289" data-name="Trazado 1289" d="M2541.5,2078.468l1.755-1.741a2.667,2.667,0,0,0,.792-1.651,6.8,6.8,0,0,0-1.811-5.316l-12.153-12.154a6.808,6.808,0,0,0-5.317-1.811,2.681,2.681,0,0,0-1.65.792l-1.741,1.756-4.149,4.132a7.034,7.034,0,0,1,4.1.24,6.841,6.841,0,0,1,2.246,1.4l12.153,12.153a6.856,6.856,0,0,1,1.4,2.246,7.038,7.038,0,0,1,.24,4.1Z" transform="translate(-1.728 -13.701)" fill="#c9bd9f"/>
    <path id="Trazado_1290" data-name="Trazado 1290" d="M2544.755,2034.964l1.74-1.756a2.68,2.68,0,0,1,1.651-.791,6.8,6.8,0,0,1,5.317,1.81l6.108,6.108-6.511,6.51-6.106-6.105a6.857,6.857,0,0,0-2.247-1.4,7.051,7.051,0,0,0-4.1-.24Z" transform="translate(-8.453 -6.976)" fill="#c9bd9f"/>
    <path id="Trazado_1291" data-name="Trazado 1291" d="M2569.888,2058.28l1.755-1.742a2.671,2.671,0,0,0,.792-1.651,6.8,6.8,0,0,0-1.809-5.317l-6.107-6.107-6.511,6.51,6.108,6.108a6.859,6.859,0,0,1,1.4,2.248,7.041,7.041,0,0,1,.239,4.1Z" transform="translate(-13.459 -10.163)" fill="#c9bd9f"/>
    <g id="Grupo_662" data-name="Grupo 662" transform="translate(2520.517 2017.379)">
      <ellipse id="Elipse_84" data-name="Elipse 84" cx="3.604" cy="6.854" rx="3.604" ry="6.854" transform="translate(31.671 5.096) rotate(-45)" fill="#f2132a"/>
      <path id="Trazado_1292" data-name="Trazado 1292" d="M2568.186,2034.384c-1.406,1.408-4.718.378-7.395-2.3s-3.7-5.988-2.3-7.4l-33.591,33.591c-1.408,1.407-.378,4.718,2.3,7.4s5.988,3.7,7.395,2.3Z" transform="translate(-2524.271 -2022.141)" fill="#990016"/>
      <ellipse id="Elipse_85" data-name="Elipse 85" cx="2.804" cy="5.333" rx="2.804" ry="5.333" transform="translate(33.312 5.607) rotate(-45)" fill="#442008"/>
    </g>
    <g id="Grupo_663" data-name="Grupo 663" transform="translate(2511.221 2016.98)">
      <ellipse id="Elipse_86" data-name="Elipse 86" cx="3.604" cy="6.854" rx="3.604" ry="6.854" transform="translate(31.673 5.096) rotate(-45)" fill="#f2132a"/>
      <path id="Trazado_1293" data-name="Trazado 1293" d="M2555.135,2033.821c-1.407,1.407-4.718.378-7.394-2.3s-3.7-5.983-2.3-7.395l-33.592,33.591c-1.407,1.408-.378,4.719,2.3,7.395s5.987,3.7,7.395,2.3Z" transform="translate(-2511.221 -2021.58)" fill="#cb0017"/>
      <path id="Trazado_1294" data-name="Trazado 1294" d="M2516.853,2069.458a9.46,9.46,0,0,0,3.31,1.773l33.591-33.591a9.482,9.482,0,0,1-3.31-1.773Z" transform="translate(-2512.841 -2024.958)" fill="#f2132a"/>
      <ellipse id="Elipse_87" data-name="Elipse 87" cx="2.804" cy="5.333" rx="2.804" ry="5.333" transform="translate(33.314 5.607) rotate(-45)" fill="#442008"/>
    </g>
    <g id="Grupo_664" data-name="Grupo 664" transform="translate(2520.914 2026.672)">
      <ellipse id="Elipse_88-2" data-name="Elipse 88-2" cx="3.604" cy="6.854" rx="3.604" ry="6.854" transform="translate(31.673 5.096) rotate(-45)" fill="#f2132a"/>
      <path id="Trazado_1295" data-name="Trazado 1295" d="M2568.743,2047.429c-1.408,1.407-4.719.378-7.4-2.3s-3.7-5.987-2.3-7.395l-33.591,33.591c-1.406,1.406-.378,4.718,2.3,7.395s5.987,3.7,7.395,2.3Z" transform="translate(-2524.829 -2035.188)" fill="#cb0017"/>
      <path id="Trazado_1296" data-name="Trazado 1296" d="M2530.46,2083.065a9.474,9.474,0,0,0,3.31,1.773l33.591-33.591a9.492,9.492,0,0,1-3.31-1.773Z" transform="translate(-2526.449 -2038.564)" fill="#f2132a"/>
      <ellipse id="Elipse_89-2" data-name="Elipse 89-2" cx="2.804" cy="5.333" rx="2.804" ry="5.333" transform="translate(33.313 5.607) rotate(-45)" fill="#442008"/>
    </g>
    <path id="Trazado_1297" data-name="Trazado 1297" d="M2555.09,2038.177h0l-33.591,33.591a3.025,3.025,0,0,0,3-.441l33.591-33.592A3.028,3.028,0,0,1,2555.09,2038.177Z" transform="translate(-2.956 -8.515)" fill="#990016"/>
    <path id="Trazado_1298" data-name="Trazado 1298" d="M2563.031,2057.251,2566.3,2054a.409.409,0,0,0-.315-.7,6.8,6.8,0,0,1-5.15-1.826l-12.153-12.153a6.793,6.793,0,0,1-1.825-5.149.408.408,0,0,0-.7-.316l-3.252,3.267-2.377,2.358a7.052,7.052,0,0,0,.24,4.1,6.854,6.854,0,0,0,1.4,2.246l12.153,12.153a6.84,6.84,0,0,0,2.247,1.4,7.025,7.025,0,0,0,4.1.241Z" transform="translate(-8.374 -7.365)" fill="#dad3c1"/>
    <path id="Trazado_1299" data-name="Trazado 1299" d="M2539.655,2080.629l3.266-3.248a.409.409,0,0,0-.316-.7,6.8,6.8,0,0,1-5.149-1.825L2525.3,2062.7a6.8,6.8,0,0,1-1.826-5.15.408.408,0,0,0-.7-.314l-3.251,3.266-2.377,2.358a7.04,7.04,0,0,0,.241,4.1,6.864,6.864,0,0,0,1.4,2.247l12.154,12.153a6.874,6.874,0,0,0,2.245,1.4,7.031,7.031,0,0,0,4.1.24Z" transform="translate(-1.649 -14.091)" fill="#dad3c1"/>
    <path id="Trazado_1300" data-name="Trazado 1300" d="M2525.105,2058.261h0c0,.118.017.236.026.352.015.175.039.4.076.651l.005.035c.014.08.026.163.042.249a7.449,7.449,0,0,0,1.881,3.64l12.19,12.189a7.434,7.434,0,0,0,3.619,1.875l.18.033c.124.022.244.042.37.056l.192.024c.185.017.374.034.564.04l-.008.009a4.636,4.636,0,0,0,.6,0c.332-.021.367-.054.431-.028a.41.41,0,0,0,0-.578l0-.005a.406.406,0,0,0-.316-.114,6.8,6.8,0,0,1-5.15-1.825l-12.151-12.152a6.8,6.8,0,0,1-1.825-5.149.4.4,0,0,0-.115-.316.407.407,0,0,0-.577-.005h0l0,0h0A8.846,8.846,0,0,0,2525.105,2058.261Z" transform="translate(-3.993 -14.093)" fill="#c9bd9f"/>
    <path id="Trazado_1301" data-name="Trazado 1301" d="M2548.479,2034.884h0c0,.119.016.235.025.352.015.175.04.4.077.652l.005.034c.014.081.027.164.045.246a7.45,7.45,0,0,0,1.879,3.638L2562.7,2052a7.431,7.431,0,0,0,3.621,1.877c.062.012.122.023.18.033.124.022.245.042.371.057l.193.025c.184.017.372.031.561.037l-.009.009a5.058,5.058,0,0,0,.6,0c.332-.02.368-.053.432-.029a.408.408,0,0,0,.006-.577h0l0,0a.4.4,0,0,0-.316-.115,6.8,6.8,0,0,1-5.15-1.825l-12.153-12.153a6.8,6.8,0,0,1-1.826-5.15.4.4,0,0,0-.114-.315.407.407,0,0,0-.577-.006h0l0,0h0A8.657,8.657,0,0,0,2548.479,2034.884Z" transform="translate(-10.717 -7.366)" fill="#c9bd9f"/>
    <path id="Trazado_1304" data-name="Trazado 1304" d="M2579.114,2026.966a18.242,18.242,0,0,0,6.774-11.206" transform="translate(-19.531 -2.194)" fill="none" stroke="#987a58" stroke-linecap="round" stroke-miterlimit="10" stroke-width="2"/>
    <path id="Trazado_1366" data-name="Trazado 1366" d="M2587.631,2008.134a17.47,17.47,0,0,1-.585,2.09c-.471,1.355-.724,1.548-.885,1.635-.833.448-2.036-.412-2.215-.543a4.733,4.733,0,0,1,.889,1.56,1.593,1.593,0,0,1,.12.759,1.814,1.814,0,0,1-.89,1.132,2.871,2.871,0,0,1-1.376.479,3.294,3.294,0,0,1,2.028.177.694.694,0,0,1,.313.239c.406.618-.643,1.869-.706,1.942a1.8,1.8,0,0,1,1.226-1.137,1.5,1.5,0,0,1,1.148.228,1.533,1.533,0,0,1,.595,1.441,4.759,4.759,0,0,1,.537-2.025c1.308-2.468,4.425-2.761,4.753-2.786-1.073-.292-1.926-.507-2.492-.648-.8-.194-1.073-.253-1.355-.527-.4-.389-.4-.838-.618-1.976C2588.021,2009.689,2587.87,2008.985,2587.631,2008.134Z" transform="translate(-20.56 0)" fill="#ff8d00"/>
    <path id="Trazado_1367" data-name="Trazado 1367" d="M2588.589,2014.314c.628.672,2.03.652,2.022.7h0c-.246.168-.656.444-1.179.78a4,4,0,0,0-.894.712,2.659,2.659,0,0,0-.6,1.639,1.043,1.043,0,0,0-.878-1.026,1.014,1.014,0,0,0-.78.364.813.813,0,0,0,.046-.682.787.787,0,0,0-.444-.423.815.815,0,0,0-.643.04,2.843,2.843,0,0,0,.966-.883,1.187,1.187,0,0,0,.246-.552,1.33,1.33,0,0,0-.54-1.051,1.382,1.382,0,0,0,.752.223,1.464,1.464,0,0,0,.78-.257,1.994,1.994,0,0,0,.753-.877A1.73,1.73,0,0,0,2588.589,2014.314Z" transform="translate(-21.294 -1.404)" fill="#ffdb00"/>
    <path id="Trazado_1302" data-name="Trazado 1302" d="M2579.771,2036.181a17.275,17.275,0,0,0,1.459-3.388,17.555,17.555,0,0,0,.769-4.911c.066-2.187.851-5.818,4.079-12.122" transform="translate(-19.72 -2.194)" fill="none" stroke="#bfb194" stroke-linecap="round" stroke-miterlimit="10" stroke-width="2"/>
    <path id="Trazado_1303" data-name="Trazado 1303" d="M2566.066,2026.567a14.633,14.633,0,0,1,3.257-1.776,19.026,19.026,0,0,1,5.3-1.041c2.019-.326,4.713-1.979,7.51-7.99" transform="translate(-15.777 -2.194)" fill="none" stroke="#bfb194" stroke-linecap="round" stroke-miterlimit="10" stroke-width="2"/>
  </g>
</svg>
