<svg xmlns="http://www.w3.org/2000/svg" viewBox="0 0 62.438 40"><g data-name="Grupo 765"><g data-name="Grupo 618" transform="translate(-2755.894 -2019.442)"><path data-name="Rectángulo 1031" fill="#469f49" d="M2757.006 2052.088h58.811v7.353h-58.811z"/><path data-name="Trazado 1185" d="M2755.894 2044.735q2.079-4.358 4.16-8.713h50.4l4.251 8.712z" fill="#8ad975"/><g data-name="Trazado 1186"><path data-name="Trazado 1603" d="M2811.83 2040.745l-1.9-3.888h-49.355l-1.9 3.974-1.466 3.071h56.156z" fill="none"/><path data-name="Trazado 1604" d="M2812.17 2043.151l-1.015-2.077-1.691-3.467h-48.413l-1.694 3.547-.953 2h53.766m1.2.75h-56.156l1.465-3.071 1.9-3.974h49.354l1.9 3.888z" fill="#479f4a"/></g><path data-name="Rectángulo 1032" fill="#469f49" d="M2755.894 2044.735h58.811v7.353h-58.811z"/><ellipse data-name="Elipse 72" cx="4.688" cy="1.751" rx="4.688" ry="1.751" transform="translate(2781.14 2038.627)" fill="#479f4a"/><ellipse data-name="Elipse 73" cx="2.975" cy="1.112" rx="2.975" ry="1.112" transform="translate(2794.89 2039.267)" fill="#f6fcf4"/><ellipse data-name="Elipse 74" cx="2.975" cy="1.112" rx="2.975" ry="1.112" transform="translate(2770.815 2039.267)" fill="#f6fcf4"/><path data-name="Trazado 1187" d="M2761.135 2037.624v1.945a8.822 8.822 0 001.016.061c2.228 0 4.127-.831 4.909-2.006z" fill="#479f4a"/><path data-name="Trazado 1188" d="M2809.616 2037.624v1.945a8.784 8.784 0 01-1.013.061c-2.229 0-4.128-.831-4.91-2.006z" fill="#479f4a"/><path data-name="Trazado 1189" d="M2759.769 2043.185v-1.945a8.845 8.845 0 011.015-.061c2.229 0 4.128.831 4.91 2.006z" fill="#479f4a"/><path data-name="Trazado 1190" d="M2810.885 2043.132v-1.944a8.845 8.845 0 00-1.015-.061c-2.229 0-4.127.831-4.909 2.005z" fill="#479f4a"/><path data-name="Trazado 1191" d="M2763.024 2036.856l-3.363 7.046h-2.446l3.363-7.046h2.446z" fill="#479f4a"/><path data-name="Trazado 1192" d="M2807.562 2036.856l3.364 7.046h2.447l-3.363-7.046h-2.448z" fill="#479f4a"/><path data-name="Trazado 1193" d="M2816.708 2052.474a38.685 38.685 0 00-2-4.24v3.854h-22.985q5.361.039 11.123.332c4.99.261 9.755.663 14.278 1.163-.092-.254-.232-.642-.416-1.109z" fill="#8ad975"/><path data-name="Trazado 1194" d="M2767.074 2052.139l-10.054-.051-.013.637a51.434 51.434 0 013.894-.4c1.334-.086 9.75-.168 6.173-.186z" fill="#387938"/><path data-name="Trazado 1195" d="M2774.388 2044.735l1.543-8.713h18.7l1.579 8.712z" fill="#f7f3df"/><path data-name="Rectángulo 1033" fill="#f9f7ea" d="M2774.388 2044.735h21.823v14.707h-21.823z"/><path data-name="Rectángulo 1034" fill="#f4d862" d="M2793.992 2044.735h1.108v14.707h-1.108z"/><path data-name="Rectángulo 1035" fill="#f4d862" d="M2775.5 2044.735h1.108v14.707h-1.108z"/><g data-name="Grupo 617" fill="#eac953"><path data-name="Trazado 1196" d="M2793.683 2036.023h-.947l1.257 8.712h1.108l-1.418-8.712z"/><path data-name="Trazado 1197" d="M2776.886 2036.022q-.694 4.356-1.386 8.713h1.107l1.229-8.713z"/></g></g><path data-name="Trazado 1198" d="M54.561 16.581h-50.4q-2.082 4.356-4.16 8.713h58.812z" opacity=".1" style="isolation:isolate"/><g data-name="Grupo 620" transform="translate(-2755.894 -2019.442)"><path data-name="Rectángulo 1036" fill="#469f49" d="M2758.216 2035.508h58.811v7.353h-58.811z"/><path data-name="Trazado 1199" d="M2757.1 2028.154l4.159-8.712h50.4l4.251 8.711z" fill="#8ad975"/><g data-name="Trazado 1200"><path data-name="Trazado 1605" d="M2813.041 2024.165l-1.9-3.888h-49.355l-1.9 3.974-1.466 3.071h56.156z" fill="none"/><path data-name="Trazado 1606" d="M2813.381 2026.571l-1.014-2.078-1.692-3.466h-48.413l-1.693 3.547-.954 2h53.766m1.2.75h-56.156l1.466-3.071 1.9-3.974h49.355l1.9 3.887z" fill="#479f4a"/></g><path data-name="Rectángulo 1037" fill="#469f49" d="M2757.105 2028.155h58.811v7.353h-58.811z"/><ellipse data-name="Elipse 75" cx="4.688" cy="1.751" rx="4.688" ry="1.751" transform="translate(2782.35 2022.047)" fill="#479f4a"/><ellipse data-name="Elipse 76" cx="2.975" cy="1.112" rx="2.975" ry="1.112" transform="translate(2796.1 2022.687)" fill="#f6fcf4"/><ellipse data-name="Elipse 77" cx="2.975" cy="1.112" rx="2.975" ry="1.112" transform="translate(2772.026 2022.687)" fill="#f6fcf4"/><path data-name="Trazado 1201" d="M2762.346 2021.044v1.943a8.817 8.817 0 001.014.062c2.229 0 4.128-.831 4.91-2.006z" fill="#479f4a"/><path data-name="Trazado 1202" d="M2810.827 2021.044v1.943a8.826 8.826 0 01-1.014.062c-2.229 0-4.128-.831-4.911-2.006z" fill="#479f4a"/><path data-name="Trazado 1203" d="M2760.98 2026.6v-1.945a8.788 8.788 0 011.014-.061c2.23 0 4.128.831 4.91 2.006z" fill="#479f4a"/><path data-name="Trazado 1204" d="M2812.1 2026.552v-1.944a8.584 8.584 0 00-1.014-.061c-2.23 0-4.128.831-4.911 2.005z" fill="#479f4a"/><path data-name="Trazado 1205" d="M2764.235 2020.276q-1.68 3.523-3.364 7.045h-2.446l3.363-7.045z" fill="#479f4a"/><path data-name="Trazado 1206" d="M2808.767 2020.276q1.68 3.523 3.364 7.045h2.446l-3.363-7.045z" fill="#479f4a"/><path data-name="Trazado 1207" d="M2817.916 2035.9a38.99 38.99 0 00-2-4.242v3.855h-22.985q5.361.04 11.123.332c4.989.261 9.754.662 14.278 1.162-.09-.256-.232-.646-.416-1.107z" fill="#8ad975"/><path data-name="Trazado 1208" d="M2768.283 2035.559l-10.055-.051-.013.637a51.283 51.283 0 013.9-.4c1.329-.086 9.745-.168 6.168-.186z" fill="#387938"/><path data-name="Trazado 1209" d="M2775.6 2028.154l1.544-8.712h18.7l1.576 8.711z" fill="#f0ebd0"/><path data-name="Rectángulo 1038" fill="#f9f7ea" d="M2775.599 2028.155h21.823v14.707h-21.823z"/><path data-name="Rectángulo 1039" fill="#f4d862" d="M2795.203 2028.155h1.108v14.707h-1.108z"/><path data-name="Rectángulo 1040" fill="#f4d862" d="M2776.71 2028.155h1.108v14.707h-1.108z"/><g data-name="Grupo 619" fill="#eac953"><path data-name="Trazado 1210" d="M2794.893 2019.443h-.948q.63 4.354 1.257 8.711h1.108q-.71-4.354-1.417-8.711z"/><path data-name="Trazado 1211" d="M2778.1 2019.442l-1.387 8.712h1.109q.613-4.356 1.229-8.712z"/></g></g></g></svg>