<svg xmlns="http://www.w3.org/2000/svg" viewBox="0 0 45 19"><g transform="translate(-2184.964 -275.649)"><path d="M2201.312 292.56a27.824 27.824 0 00-13.049 3.879 4.025 4.025 0 01-.132-2.281 3.972 3.972 0 01.8-1.6zm5.488-1.177a42.792 42.792 0 0112.85 1.474 37.092 37.092 0 017.975 3.326 5 5 0 00.416-1.02 6.107 6.107 0 00-.681-4.5c-16.552.456-20.562.64-20.56.72z" fill="#387938"/><path fill="#469f49" d="M2185.818 287.447h43.188v5.4h-43.188z"/><path d="M2185.002 282.047l3.054-6.4h37.011l3.122 6.4z" fill="#8ad975"/><g fill="none" stroke-miterlimit="10"><path d="M2226.079 279.116l-1.393-2.855h-36.243l-1.393 2.919-1.077 2.255h41.238z"/><path d="M2226.01 280.685l-.605-1.24-1.188-2.434h-35.301l-1.19 2.491-.564 1.183h38.847m1.201.75h-41.238l1.077-2.256 1.393-2.918h36.243l1.394 2.855 1.131 2.319z" fill="#479f4a"/></g><path fill="#469f49" d="M2185.002 282.047h43.188v5.4h-43.188z"/><ellipse cx="3.442" cy="1.286" rx="3.442" ry="1.286" transform="translate(2203.541 277.562)" fill="#479f4a"/><ellipse cx="2.185" cy=".816" rx="2.185" ry=".816" transform="translate(2213.638 278.032)" fill="#f6fcf4"/><ellipse cx="2.185" cy=".816" rx="2.185" ry=".816" transform="translate(2195.959 278.032)" fill="#f6fcf4"/><path d="M2188.851 276.825v1.428a6.314 6.314 0 00.744.046 4.377 4.377 0 003.606-1.473zm35.603 0v1.428a6.331 6.331 0 01-.744.046 4.378 4.378 0 01-3.606-1.473zm-36.603 4.083v-1.428a6.506 6.506 0 01.744-.045 4.379 4.379 0 013.606 1.472zm37.535-.038v-1.428a6.323 6.323 0 00-.745-.046 4.381 4.381 0 00-3.606 1.473z" fill="#479f4a"/><path d="M2190.238 276.262q-1.234 2.587-2.47 5.173h-1.8l2.47-5.173h1.8zm32.711 0q1.234 2.587 2.47 5.173h1.8l-2.47-5.173h-1.8z" fill="#479f4a"/><path d="M2229.659 287.731a28.42 28.42 0 00-1.469-3.115v2.831h-16.879q3.936.029 8.168.244c3.664.192 7.163.486 10.485.853-.066-.186-.169-.47-.305-.813z" fill="#8ad975"/><path d="M2193.208 287.485l-7.384-.038-.01.468a37.768 37.768 0 012.86-.294c.984-.063 7.164-.123 4.534-.136z" fill="#387938"/><path d="M2198.583 282.047l1.134-6.4h13.734l1.158 6.4z" fill="#f7f3df"/><path fill="#f9f7ea" d="M2198.583 282.047h16.026v10.8h-16.026z"/><path fill="#f4d862" d="M2212.979 282.047h.813v10.8h-.813zm-13.58 0h.813v10.8h-.813z"/><path d="M2212.753 275.65h-.7l.923 6.4h.813q-.516-3.201-1.036-6.4zm-12.336-.001l-1.018 6.4h.814l.9-6.4z" fill="#eac953"/><path d="M2229.006 292.822v.025h-10.756a44.9 44.9 0 0111.423 2.105 28.563 28.563 0 00-.667-2.13zm-43.187 0v.024h10.755a20.355 20.355 0 00-11.61 3.048 20.082 20.082 0 01.49-1.984q.175-.576.365-1.088z" fill="#8ad975"/></g></svg>