<svg xmlns="http://www.w3.org/2000/svg" width="33.657" height="38" viewBox="0 0 33.657 38">
  <g id="Grupo_687" data-name="Grupo 687" transform="translate(-1142.382 -245.639)">
    <path id="Rect치ngulo_1164" data-name="Rect치ngulo 1164" d="M14.576,0h4.506A14.576,14.576,0,0,1,33.657,14.576v0a3.489,3.489,0,0,1-3.489,3.489H3.489A3.489,3.489,0,0,1,0,14.576v0A14.576,14.576,0,0,1,14.576,0Z" transform="translate(1142.382 265.574)" fill="#343434"/>
    <rect id="Rect치ngulo_1165" data-name="Rect치ngulo 1165" width="4.411" height="4.411" rx="1.592" transform="translate(1156.092 269.171) rotate(-45)" fill="#eecf82"/>
    <ellipse id="Elipse_87" data-name="Elipse 87" cx="10.517" cy="11.73" rx="10.517" ry="11.73" transform="translate(1148.694 245.71)" fill="#f9bb7d"/>
    <path id="Trazado_1361" data-name="Trazado 1361" d="M1153.683,253.244c.359.355,2.071-1.319,3.567-.624.76.353.692.952,1.338,1.391,1.367.929,3.213-.825,6.063-1.378,4.3-.834,7.481,1.735,8.389.472.338-.469.124-1.123-.12-1.855-1.111-3.33-4.972-4.7-5.6-4.929a10.828,10.828,0,0,0-7.022-.171C1155.471,247.768,1153.158,252.723,1153.683,253.244Z" transform="translate(-4.555 0)" fill="#343434"/>
    <path id="Trazado_1362" data-name="Trazado 1362" d="M1181.547,253.493a19.684,19.684,0,0,0-1.477-1.956l-4.59-.306a15.478,15.478,0,0,1,7.167,12.078,12.947,12.947,0,0,0,.509-3.6A12.666,12.666,0,0,0,1181.547,253.493Z" transform="translate(-13.429 -2.269)" fill="#343434" opacity="0.7"/>
    <path id="Trazado_1363" data-name="Trazado 1363" d="M1154.612,253.493a19.816,19.816,0,0,1,1.477-1.956l4.59-.306a10.7,10.7,0,0,0-5.512,4.062,10.884,10.884,0,0,0-1.655,8.016,12.951,12.951,0,0,1-.509-3.6A12.668,12.668,0,0,1,1154.612,253.493Z" transform="translate(-4.309 -2.269)" fill="#343434" opacity="0.7"/>
    <path id="Trazado_1364" data-name="Trazado 1364" d="M1171.59,249.561a12.447,12.447,0,0,1,2.758,7.9c0,6.479-4.709,11.73-10.517,11.73a9.755,9.755,0,0,1-6.187-2.259,10.028,10.028,0,0,0,7.759,3.831c5.809,0,10.517-5.252,10.517-11.73A12.172,12.172,0,0,0,1171.59,249.561Z" transform="translate(-6.192 -1.591)" opacity="0.1"/>
    <path id="Trazado_1365" data-name="Trazado 1365" d="M1168.59,285.931l-3.054,9.62a.784.784,0,0,0,.159.755l2.308,2.611a.783.783,0,0,0,1.173,0l2.309-2.611a.784.784,0,0,0,.159-.755Z" transform="translate(-9.379 -16.348)" fill="#eecf82"/>
  </g>
</svg>
