<svg xmlns="http://www.w3.org/2000/svg" xmlns:xlink="http://www.w3.org/1999/xlink" viewBox="0 0 67.354 65"><defs><linearGradient id="a" x1=".759" y1=".675" x2=".079" y2=".179" gradientUnits="objectBoundingBox"><stop offset="0" stop-color="#f2f2f2"/><stop offset=".35" stop-color="#ececec"/><stop offset="1" stop-color="#e6e6e6"/></linearGradient><linearGradient id="b" x1=".786" y1=".736" x2=".122" y2=".234" xlink:href="#a"/></defs><g data-name="Grupo 1293"><g data-name="Grupo 1290" transform="translate(.001)"><path data-name="Rectángulo 1845" fill="#fff8e6" d="M0 8.871L50.924-.021l9.799 56.12L9.8 64.99z"/><path data-name="Trazado 2263" d="M12.213 61.096l-.069-.407-8.531-48.97 44.881-7.815.069.407 8.531 48.968zM4.57 12.391l8.316 47.75 43.251-7.532-8.316-47.748z" opacity=".63"/><path data-name="Trazado 2264" d="M46.311 6.623a32.34 32.34 0 01-2.29 3.207c-2.285 2.819-3.316 3.116-5.132 5.223-3.138 3.642-2.019 5.031-4.49 6.782a8.71 8.71 0 01-6.964 1.374c-1.848-.493-1.825-1.341-4.581-2.475-2.275-.936-2.536-.458-5.132-1.374a14.5 14.5 0 01-5.773-3.3 11.977 11.977 0 01-2.473-3.574q18.418-2.934 36.835-5.863z" opacity=".3"/><path data-name="Trazado 2265" d="M46.494 7.902a56.015 56.015 0 01-2.382 3.3c-1.01 1.3-1.668 2.027-2.2 2.658a46.4 46.4 0 00-4.216 6.413c-2.329 3.822-3.5 5.732-4.031 6.415-2.472 3.143-3.981 3.538-6.689 6.139-2.845 2.733-4.26 5.254-6.506 9.255a61.351 61.351 0 00-6.322 16.586l40.317-7.056-7.971-43.71z" opacity=".3"/><path data-name="Trazado 2266" d="M5.719 13.308l6.5 34.917a1.557 1.557 0 003.017.189 47.2 47.2 0 012.212-5.783 47.968 47.968 0 0110.067-14.258 1.542 1.542 0 00-.094-2.3 17.983 17.983 0 00-1.543-1.124c-2.377-1.544-3.546-1.488-6.689-2.749-4.323-1.734-6.484-2.6-7.881-4.672-.79-1.174-1.2-2.463-2.748-3.391a6.18 6.18 0 00-2.841-.829z" opacity=".3"/><path data-name="Trazado 2267" d="M29.453 27.191a11.831 11.831 0 01-.284-1.723l.513-1.447 1.007-2.9 1.008-2.9.5-1.448a14.289 14.289 0 011.285-1.177 14.267 14.267 0 01.276 1.719l-.5 1.45-1.007 2.9-1.008 2.9-.5 1.452a11.763 11.763 0 01-1.29 1.174z" fill="#efefef"/><circle data-name="Elipse 122" cx="3.853" cy="3.853" r="3.853" transform="translate(29.258 12.814)" fill="#e53333"/><circle data-name="Elipse 123" cx="2.764" cy="2.764" r="2.764" transform="translate(29.971 13.537)" fill="#f25555"/></g><g data-name="Grupo 1292"><path data-name="Trazado 2268" d="M64.254 14.182C60.848 8.956 55.86 6.17 53.111 7.961q-1.456 1.086-2.908 2.181c-3.5 2.642-2.382 1.637-12.408 9.45-1.751 1.364-1.569 1.24-4.265 3.345-3.631 2.834-3.956 3.057-6.686 5.195a733.998 733.998 0 00-6.623 5.241q-2.019 1.614-4.037 3.232l-.167.136-.018.015-1.476 1.2-6.568 5.337c-.716.585-1.443 1.161-2.156 1.752l-1.111.9a2.821 2.821 0 002.862 4.794l11.882-4.928 5.5-2.272 16.4-6.739q2.4-.98 4.8-1.956l18.308-7.526a3.333 3.333 0 00.909-.372l.1-.045h-.035l.031-.017c2.746-1.786 2.215-7.476-1.191-12.702zm-.179 10.6c-2.139 1.392-6.021-.775-8.671-4.852s-3.064-8.495-.926-9.888 6.021.774 8.671 4.851 3.064 8.499.927 9.891z" fill="#ddae52"/><path data-name="Trazado 2269" d="M55.494 20.063l-51.5 29.354c.046.088.058.185.114.271s.132.129.19.2q28.13-12.6 56.256-25.193a12.739 12.739 0 01-5.06-4.632z" fill="#f6dea0"/><g data-name="Grupo 1291"><path data-name="Trazado 2270" d="M601.5 463.241a23.176 23.176 0 004.3 8.559l4.426-1.825a18.9 18.9 0 01-4.3-7.891 17.423 17.423 0 01-.425-2.315q-.01-.01-4.055 3.244c.018.078.03.154.054.228z" transform="translate(-585.286 -426.41)" fill="url(#a)"/></g><path data-name="Trazado 2271" d="M616.827 455.7a17.749 17.749 0 01-.557-4.3q-2.14 1.679-4.284 3.356c.107.683.24 1.372.42 2.073a23.88 23.88 0 007.41 11.842q2.41-.982 4.821-1.962a19.8 19.8 0 01-7.81-11.009z" transform="translate(-578.4 -431.874)" fill="url(#b)"/><path data-name="Trazado 2272" d="M38.983 34.359q2.187-.982 4.378-1.961a19.812 19.812 0 01-2.9-3.768q-1.979 1.126-3.958 2.255a23.9 23.9 0 002.48 3.474z" fill="#fff"/><path data-name="Trazado 2273" d="M23.264 41.396a19.029 19.029 0 01-1.285-2.23l-4 2.28q.484.947 1.053 1.847z" fill="#fff"/><path data-name="Trazado 2274" d="M64.317 14.055c-3.46-5.186-8.475-7.916-11.2-6.1s-2.133 7.5 1.326 12.684 8.475 7.916 11.2 6.1 2.133-7.498-1.326-12.684zm-.271 10.29c-2.032 1.356-5.77-.679-8.347-4.543s-3.021-8.1-.989-9.453 5.77.679 8.347 4.545 3.021 8.095.989 9.451z" fill="#f6dea0"/><path data-name="Trazado 2275" d="M64.043 24.344c-2.032 1.356-5.77-.679-8.347-4.543s-3.021-8.1-.989-9.453 5.77.679 8.347 4.545 3.024 8.096.989 9.451z" fill="#caf4ff"/><path data-name="Trazado 2276" d="M61.453 17.366c-.884.8-2.84.091-4.37-1.592s-2.048-3.7-1.164-4.5 2.842-.091 4.37 1.592 2.044 3.697 1.164 4.5z" fill="#e0f8fc"/></g></g></svg>