<svg xmlns="http://www.w3.org/2000/svg" width="55.768" height="44" viewBox="0 0 55.768 44">
  <g id="Tasks" transform="translate(-1889.282 -1459.207)">
    <g id="Trazado_1150" data-name="Trazado 1150" fill="#fcf8ac">
      <path d="M 1911.5283203125 1501.207153320312 L 1910.662231445312 1499.707153320312 L 1908.709716796875 1496.325073242188 L 1906.756958007812 1499.707153320312 L 1905.890991210938 1501.207153320312 L 1905.025024414062 1499.707153320312 L 1903.072265625 1496.325073242188 L 1901.119506835938 1499.707153320312 L 1900.253540039062 1501.207153320312 L 1899.387573242188 1499.707153320312 L 1897.434814453125 1496.325073242188 L 1895.482055664062 1499.707153320312 L 1894.616088867188 1501.207153320312 L 1893.750122070312 1499.707153320312 L 1891.797485351562 1496.3251953125 L 1890.281616210938 1498.951049804688 L 1890.281616210938 1495.218505859375 L 1890.281616210938 1461.207153320312 L 1890.281616210938 1460.207153320312 L 1891.281616210938 1460.207153320312 L 1943.0498046875 1460.207153320312 L 1944.0498046875 1460.207153320312 L 1944.0498046875 1461.207153320312 L 1944.0498046875 1495.218505859375 L 1944.0498046875 1498.951049804688 L 1942.533935546875 1496.3251953125 L 1940.581298828125 1499.707153320312 L 1939.71533203125 1501.207153320312 L 1938.849365234375 1499.707153320312 L 1936.896606445312 1496.325073242188 L 1934.94384765625 1499.707153320312 L 1934.077880859375 1501.207153320312 L 1933.211791992188 1499.707153320312 L 1931.25927734375 1496.325073242188 L 1929.306518554688 1499.707153320312 L 1928.440551757812 1501.207153320312 L 1927.574584960938 1499.707153320312 L 1925.621826171875 1496.325073242188 L 1923.669311523438 1499.707153320312 L 1922.80322265625 1501.207153320312 L 1921.937255859375 1499.707153320312 L 1919.984375 1496.325073242188 L 1918.031860351562 1499.707153320312 L 1917.165771484375 1501.207153320312 L 1916.2998046875 1499.707153320312 L 1914.347045898438 1496.325073242188 L 1912.394287109375 1499.707153320312 L 1911.5283203125 1501.207153320312 Z" stroke="none"/>
      <path d="M 1939.71533203125 1499.207153320312 L 1942.534057617188 1494.325073242188 L 1943.0498046875 1495.218505859375 L 1943.0498046875 1461.207153320312 L 1891.281616210938 1461.207153320312 L 1891.281616210938 1495.218505859375 L 1891.79736328125 1494.325073242188 L 1894.616088867188 1499.207153320312 L 1897.434814453125 1494.325073242188 L 1900.253540039062 1499.207153320312 L 1903.072265625 1494.325073242188 L 1905.890991210938 1499.207153320312 L 1908.709716796875 1494.325073242188 L 1911.5283203125 1499.207153320312 L 1914.347045898438 1494.325073242188 L 1917.165771484375 1499.207153320312 L 1919.984375 1494.325073242188 L 1922.80322265625 1499.207153320312 L 1925.621826171875 1494.325073242188 L 1928.440551757812 1499.207153320312 L 1931.25927734375 1494.325073242188 L 1934.077880859375 1499.207153320312 L 1936.896606445312 1494.325073242188 L 1939.71533203125 1499.207153320312 M 1934.077880859375 1503.207153320312 L 1932.345825195312 1500.207153320312 L 1931.25927734375 1498.325073242188 L 1930.172607421875 1500.207153320312 L 1928.440551757812 1503.207153320312 L 1926.70849609375 1500.207153320312 L 1925.621826171875 1498.325073242188 L 1924.535278320312 1500.207153320312 L 1922.803344726562 1503.207153320312 L 1921.071166992188 1500.207153320312 L 1919.984497070312 1498.324951171875 L 1918.897827148438 1500.207153320312 L 1917.165771484375 1503.207153320312 L 1915.433715820312 1500.207153320312 L 1914.347045898438 1498.324951171875 L 1913.260375976562 1500.207153320312 L 1911.5283203125 1503.207153320312 L 1909.796264648438 1500.207153320312 L 1908.709716796875 1498.325073242188 L 1907.623046875 1500.207153320312 L 1905.890991210938 1503.207153320312 L 1904.158935546875 1500.207153320312 L 1903.072265625 1498.324951171875 L 1901.985595703125 1500.207153320312 L 1900.253540039062 1503.207153320312 L 1898.521484375 1500.207153320312 L 1897.434814453125 1498.324951171875 L 1896.34814453125 1500.207153320312 L 1894.616088867188 1503.207153320312 L 1892.884033203125 1500.207153320312 L 1891.797485351562 1498.325317382812 L 1889.281616210938 1502.68359375 L 1889.281616210938 1495.218505859375 L 1889.281616210938 1461.207153320312 L 1889.281616210938 1459.207153320312 L 1891.281616210938 1459.207153320312 L 1943.0498046875 1459.207153320312 L 1945.0498046875 1459.207153320312 L 1945.0498046875 1461.207153320312 L 1945.0498046875 1495.218505859375 L 1945.0498046875 1502.68359375 L 1942.533935546875 1498.325317382812 L 1941.447387695312 1500.207153320312 L 1939.71533203125 1503.207153320312 L 1937.983276367188 1500.207153320312 L 1936.896606445312 1498.324951171875 L 1935.809936523438 1500.207153320312 L 1934.077880859375 1503.207153320312 Z" stroke="none" fill="#343434"/>
    </g>
    <path id="Trazado_1151" data-name="Trazado 1151" d="M1916.508,1475.383v8.508H1908v-8.508h8.508m1.929-1.929H1906.07v12.367h12.367v-12.367Z" transform="translate(-11.935 -9.884)" fill="#343434" opacity="0.5"/>
    <path id="Trazado_1152" data-name="Trazado 1152" d="M1916.508,1561.6v8.508H1908V1561.6h8.508m1.929-1.929H1906.07v12.367h12.367v-12.367Z" transform="translate(-11.935 -79.468)" fill="#343434" opacity="0.5"/>
    <path id="Trazado_1153" data-name="Trazado 1153" d="M2010.86,1483.009h-32.545v2.416h32.545v-2.416Z" transform="translate(-70.242 -17.596)" fill="#343434" opacity="0.5"/>
    <path id="Trazado_1154" data-name="Trazado 1154" d="M1994.587,1505.5h-16.272v2.416h16.272V1505.5Z" transform="translate(-70.242 -35.751)" fill="#343434" opacity="0.5"/>
    <path id="Trazado_1155" data-name="Trazado 1155" d="M2010.86,1574.215h-32.545v2.416h32.545v-2.416Z" transform="translate(-70.242 -91.205)" fill="#343434" opacity="0.5"/>
    <path id="Trazado_1156" data-name="Trazado 1156" d="M1994.587,1596.71h-16.272v2.416h16.272v-2.416Z" transform="translate(-70.242 -109.36)" fill="#343434" opacity="0.5"/>
  </g>
</svg>
