<svg xmlns="http://www.w3.org/2000/svg" viewBox="0 0 153.01 43.48"><defs><style>.cls-1{fill:#fff;}</style></defs><title>menu-periodico</title><g id="Layer_2" data-name="Layer 2"><g id="Layer_1-2" data-name="Layer 1"><g id="Unión_47" data-name="Unión 47"><path class="cls-1" d="M142.68,42c-2.9,0-5.12-.77-6.63-2.28a8.4,8.4,0,0,1-2.21-5.35,9.06,9.06,0,0,1-2.39,5.58,7.73,7.73,0,0,1-5.65,2c-2.89,0-5.12-.77-6.62-2.28a8.91,8.91,0,0,1-2.26-6.51V19.69c0-3,.76-5.32,2.27-7s3.86-2.51,6.93-2.51a6.87,6.87,0,0,1,4.7,1.5,7.6,7.6,0,0,1,2.28,3.73l.35,1.23-1.16.54-2.12,1-1.47.69-.57-1.53a3,3,0,0,0-.61-1,1.29,1.29,0,0,0-.77-.15c-.84,0-1,.28-1.11.39a2.79,2.79,0,0,0-.45,1.62V33.33c0,1.58.35,2.12.5,2.29s.45.49,1.51.49a1,1,0,0,0,.87-.49,5.74,5.74,0,0,0,.9-2.31l.29-1.49,1.48.31,1.94.41,1.12.23V19.38A9.43,9.43,0,0,1,136,12.74c1.5-1.64,3.73-2.47,6.61-2.47a9,9,0,0,1,6.6,2.29A8.79,8.79,0,0,1,151.51,19v13.9a9.37,9.37,0,0,1-2.25,6.64A8.64,8.64,0,0,1,142.68,42Zm-.44-5.93a1.48,1.48,0,0,0,.48.06,1.34,1.34,0,0,0,.37,0,5.88,5.88,0,0,0,.16-1.66V18a4.21,4.21,0,0,0-.22-1.77.66.66,0,0,0-.44-.11,1.36,1.36,0,0,0-.34,0,5.81,5.81,0,0,0-.19,1.84V34.41A4.88,4.88,0,0,0,142.24,36.05ZM77,42c-2.89,0-5.12-.77-6.62-2.28a8.91,8.91,0,0,1-2.26-6.51V19.38a9.48,9.48,0,0,1,2.22-6.64c1.51-1.64,3.74-2.47,6.62-2.47s5.08.77,6.59,2.29A8.77,8.77,0,0,1,85.86,19v13.9a9.32,9.32,0,0,1-2.26,6.64A8.63,8.63,0,0,1,77,42Zm-.43-5.93a1.48,1.48,0,0,0,.48.06,1.2,1.2,0,0,0,.36,0,5.48,5.48,0,0,0,.16-1.66V18a4.06,4.06,0,0,0-.22-1.77.71.71,0,0,0-.44-.11,1.25,1.25,0,0,0-.33,0A5.48,5.48,0,0,0,76.41,18V34.41A4.88,4.88,0,0,0,76.59,36.05Zm38.61,5.49H107V10.77h8.22V41.54Zm-48.78,0H58.2V10.77h8.22V41.54Zm-27.54,0H24.36V10.77H38.88v5.88h-6.3v6.18h4.27v5.92H32.58v7h6.3v5.84Zm56.23,0H87.58V10.77h7.17c3.34,0,5.92.71,7.69,2.11a7.89,7.89,0,0,1,2.81,6.54V32.2c0,3-.89,5.39-2.65,7S98.36,41.53,95.11,41.53ZM95.8,16.7V35.64l.33-.08a.7.7,0,0,0,.36-.28,2.5,2.5,0,0,0,.37-1A10,10,0,0,0,97,32.2V19.29a3.65,3.65,0,0,0-.44-2.24A1.39,1.39,0,0,0,95.8,16.7ZM57.19,41.53H49V31a9,9,0,0,0-.1-1.52,1.33,1.33,0,0,0-.18-.5.61.61,0,0,0-.2-.09,3.66,3.66,0,0,0-.75-.11V41.53H39.52V10.77h7.71a11.81,11.81,0,0,1,7.16,1.92c1.83,1.37,2.76,3.59,2.76,6.6a8.07,8.07,0,0,1-1.66,5.47,6.87,6.87,0,0,1-1.16,1,6.42,6.42,0,0,1,1.05.89,7.62,7.62,0,0,1,1.81,5.47v9.37ZM47.74,16.67V22.9c.63-.08.78-.32.84-.41a6.13,6.13,0,0,0,.48-3.07c0-2-.36-2.42-.38-2.44S48.42,16.72,47.74,16.67ZM11.43,41.53H1.5V1.5h8.65c4.5,0,7.8.79,10.1,2.41s3.64,4.58,3.64,8.49-1.05,6.9-3.14,9-5.21,3.13-9.32,3.14v17Zm0-33.16V17.7c1.47,0,1.82-.61,2-.83.33-.56.72-1.77.72-4.33,0-2.28-.4-3.18-.64-3.51A2.62,2.62,0,0,0,11.43,8.37Z"/><path d="M142.68,40.48a7.21,7.21,0,0,0,5.49-1.95A7.89,7.89,0,0,0,150,32.92V19a7.32,7.32,0,0,0-1.84-5.4,7.53,7.53,0,0,0-5.54-1.85,7.17,7.17,0,0,0-5.51,2,8,8,0,0,0-1.82,5.63V33.19a7.46,7.46,0,0,0,1.82,5.45q1.83,1.84,5.56,1.84m-.09-25.83a2,2,0,0,1,1.62.68,4.65,4.65,0,0,1,.54,2.7V34.41a5.15,5.15,0,0,1-.43,2.54,1.77,1.77,0,0,1-1.6.66A1.92,1.92,0,0,1,141,37a4.62,4.62,0,0,1-.48-2.54V18a5.42,5.42,0,0,1,.45-2.7,1.76,1.76,0,0,1,1.58-.68M125.8,40.48q5.89,0,6.57-6.48l-1.93-.4a7.08,7.08,0,0,1-1.17,2.92,2.49,2.49,0,0,1-2.07,1.09,3.41,3.41,0,0,1-2.61-1,4.84,4.84,0,0,1-.9-3.31V18.21a4.26,4.26,0,0,1,.72-2.48,2.64,2.64,0,0,1,2.34-1,2.44,2.44,0,0,1,1.89.65,4.7,4.7,0,0,1,.9,1.51l2.11-1a6.08,6.08,0,0,0-1.82-3,5.45,5.45,0,0,0-3.71-1.13c-2.64,0-4.59.67-5.83,2a8.51,8.51,0,0,0-1.87,5.94v13.5a7.42,7.42,0,0,0,1.83,5.45q1.81,1.84,5.55,1.84M77,40.48a7.21,7.21,0,0,0,5.49-1.95,7.89,7.89,0,0,0,1.85-5.61V19a7.32,7.32,0,0,0-1.85-5.4A7.51,7.51,0,0,0,77,11.77a7.16,7.16,0,0,0-5.51,2,8,8,0,0,0-1.83,5.63V33.19a7.42,7.42,0,0,0,1.83,5.45q1.82,1.84,5.55,1.84m-.09-25.83a2,2,0,0,1,1.62.68,4.65,4.65,0,0,1,.54,2.7V34.41A5.18,5.18,0,0,1,78.67,37a1.77,1.77,0,0,1-1.6.66A2,2,0,0,1,75.38,37a4.74,4.74,0,0,1-.47-2.54V18a5.42,5.42,0,0,1,.45-2.7,1.74,1.74,0,0,1,1.57-.68M113.7,40V12.27h-5.22V40h5.22M64.92,40V12.27H59.7V40h5.22M37.38,40V37.2h-6.3v-10h4.27V24.33H31.08V15.15h6.3V12.27H25.86V40H37.38m57.73,0q8.64,0,8.64-7.83V19.42q0-7.16-9-7.15H89.08V40h6M94.3,15.15h.77a3.33,3.33,0,0,1,2.68.94,5.11,5.11,0,0,1,.78,3.2V32.2a11.6,11.6,0,0,1-.2,2.41,4,4,0,0,1-.63,1.55,2.29,2.29,0,0,1-1.08.82,5,5,0,0,1-1.55.22H94.3V15.15M55.69,40V32.16a6.19,6.19,0,0,0-1.39-4.43,6.63,6.63,0,0,0-4-1.83,7.74,7.74,0,0,0,4.08-2.13,6.69,6.69,0,0,0,1.28-4.48q0-3.78-2.16-5.4a10.31,10.31,0,0,0-6.26-1.62H41V40h5.22V27.25h1.08a5.46,5.46,0,0,1,1.58.19,1.88,1.88,0,0,1,1,.6,2.7,2.7,0,0,1,.47,1.15,10.07,10.07,0,0,1,.13,1.8v9h5.22M46.24,15.15h1.08a3.09,3.09,0,0,1,2.52.88,5.62,5.62,0,0,1,.72,3.39,7.56,7.56,0,0,1-.72,3.87,2.76,2.76,0,0,1-2.52,1.13H46.24V15.15M9.93,40V23h1.44c3.75,0,6.53-.9,8.32-2.7s2.7-4.43,2.7-7.92-1-5.84-3-7.26S14.29,3,10.15,3H3V40H9.93m0-33.16h1.44a3.84,3.84,0,0,1,3.31,1.28,7.85,7.85,0,0,1,.92,4.39,10.56,10.56,0,0,1-.92,5.08,3.5,3.5,0,0,1-3.31,1.58H9.93V6.87M142.68,43.48c-3.31,0-5.9-.91-7.69-2.73h0a9,9,0,0,1-1.15-1.46A8.33,8.33,0,0,1,132.5,41a9.15,9.15,0,0,1-6.7,2.48c-3.31,0-5.89-.91-7.69-2.73h0a8.28,8.28,0,0,1-1.41-1.91V43H105.48V37.9a8.93,8.93,0,0,1-1.87,2.4c-2,1.81-4.86,2.73-8.5,2.73h-9V38.65a8.91,8.91,0,0,1-1.38,1.93A10.08,10.08,0,0,1,77,43.48c-3.3,0-5.89-.91-7.69-2.73h0a8.28,8.28,0,0,1-1.41-1.91V43H22.86V21.24a12,12,0,0,1-1.05,1.21c-2.09,2.09-5.07,3.28-8.88,3.53V43H0V0H10.15c4.82,0,8.41.88,11,2.69a9.49,9.49,0,0,1,3.3,4.18,12.43,12.43,0,0,1,.71,2.4H47.23a13.23,13.23,0,0,1,8.06,2.22,7.62,7.62,0,0,1,1.41,1.37V9.27H67.92v4.35a9.05,9.05,0,0,1,1.34-1.9c1.8-2,4.4-3,7.72-3s5.84.92,7.65,2.73a8.07,8.07,0,0,1,1.45,1.93V9.27h8.67a18.18,18.18,0,0,1,4.71.55,10.56,10.56,0,0,1,3.91,1.89,8.67,8.67,0,0,1,2.11,2.45V9.27H116.7v4.44a9.29,9.29,0,0,1,1.38-2c1.83-2,4.54-3,8-3a8.35,8.35,0,0,1,5.69,1.87,8.65,8.65,0,0,1,2,2.59,9.39,9.39,0,0,1,1.1-1.47c1.81-2,4.4-3,7.72-3s5.85.92,7.66,2.73A10.2,10.2,0,0,1,153,19v13.9a10.72,10.72,0,0,1-2.66,7.66C148.54,42.51,146,43.48,142.68,43.48Zm-15.86-8.91.14,0a4.72,4.72,0,0,0,.53-1.57l.59-3,3,.61,1.25.26V19.38c0-.17,0-.34,0-.5l-1.5.7-3,1.38-1.13-3.06,0,0a3.11,3.11,0,0,0,0,.34V33.33A4.54,4.54,0,0,0,126.82,34.57ZM34.08,34.2H38v-4H34.08Zm0-12.87H38V18.15H34.08Z"/></g></g></g></svg>