<svg xmlns="http://www.w3.org/2000/svg" viewBox="0 0 141.52 46.48"><defs><style>.cls-1{fill:#fff;}</style></defs><title>menu-misiones</title><g id="Layer_2" data-name="Layer 2"><g id="Layer_1-2" data-name="Layer 1"><g id="Grupo_906" data-name="Grupo 906"><g id="Uni贸n_34" data-name="Uni贸n 34"><path d="M128.46,45a8.58,8.58,0,0,1-6.12-2,7.71,7.71,0,0,1-2-3.18v4.76H105.85V13.77h14.52v5.88h-6.3v6.18h4.28v5.92h-4.28v7h6a13.53,13.53,0,0,1-.26-1.53l-.15-1.37,1.35-.27,2.7-.54,1.51-.3.26,1.52c.28,1.66.72,2.17.89,2.31a3.09,3.09,0,0,0,1.95.49,2.69,2.69,0,0,0,1.61-.32.86.86,0,0,0,.27-.74,1.93,1.93,0,0,0-.17-.75,4.52,4.52,0,0,0-.82-1.15c-.29-.29-.67-.7-1.15-1.24L126.47,33c-.58-.64-1.19-1.32-1.86-2.09s-1.29-1.5-1.83-2.2A10.23,10.23,0,0,1,121,25.4a12,12,0,0,1-.49-3.52,8.91,8.91,0,0,1,2.13-6.12A8.12,8.12,0,0,1,129,13.27a7.13,7.13,0,0,1,5.4,2.1,9.57,9.57,0,0,1,2.3,5.78l.14,1.35-1.34.27-2.47.5-1.55.31L131.25,22a4.3,4.3,0,0,0-.84-2.42,2.35,2.35,0,0,0-1.64-.48,1.64,1.64,0,0,0-1.15.29,1,1,0,0,0-.32.68,2.74,2.74,0,0,0,.14.9,4.13,4.13,0,0,0,.63,1h0c.17.23.48.57.92,1s1,1,1.57,1.71,1.15,1.28,1.79,2,1.24,1.45,1.78,2.15.88,1.15,1.24,1.69a9.45,9.45,0,0,1,.95,1.84,11.8,11.8,0,0,1,.53,2h0a15.83,15.83,0,0,1,.17,2.4,8.58,8.58,0,0,1-.54,3,7.56,7.56,0,0,1-4.38,4.44A9.45,9.45,0,0,1,128.46,45ZM76.35,45c-2.89,0-5.12-.77-6.63-2.29a8.91,8.91,0,0,1-2.25-6.5V22.38a9.43,9.43,0,0,1,2.22-6.64c1.5-1.64,3.73-2.47,6.61-2.47s5.08.77,6.6,2.29A8.76,8.76,0,0,1,85.18,22v13.9a9.28,9.28,0,0,1-2.25,6.63A8.61,8.61,0,0,1,76.35,45ZM75.91,39a1.23,1.23,0,0,0,.48.06,1.41,1.41,0,0,0,.37,0,6,6,0,0,0,.16-1.66V21a4.32,4.32,0,0,0-.22-1.77.72.72,0,0,0-.44-.1,1.59,1.59,0,0,0-.34,0A5.75,5.75,0,0,0,75.73,21V37.41A4.74,4.74,0,0,0,75.91,39ZM47.91,45a8.59,8.59,0,0,1-6.12-2,9.06,9.06,0,0,1-2.53-5.78l-.15-1.37,1.35-.27,2.7-.54,1.51-.3.26,1.52c.28,1.66.72,2.17.89,2.31a3.09,3.09,0,0,0,2,.49,2.69,2.69,0,0,0,1.61-.32c.09-.07.27-.23.27-.74a1.93,1.93,0,0,0-.17-.75,4.52,4.52,0,0,0-.82-1.15c-.29-.29-.68-.71-1.15-1.24s-1-1.16-1.59-1.77S44.66,31.63,44.06,31s-1.27-1.48-1.83-2.2a10.42,10.42,0,0,1-1.81-3.35,12.37,12.37,0,0,1-.49-3.52,9,9,0,0,1,2.13-6.12,8.12,8.12,0,0,1,6.39-2.49,7.17,7.17,0,0,1,5.41,2.1,9.63,9.63,0,0,1,2.29,5.78l.14,1.35L55,22.77l-2.47.5-1.55.31L50.7,22c-.26-1.72-.67-2.27-.84-2.42a2.33,2.33,0,0,0-1.63-.48,1.73,1.73,0,0,0-1.16.29.94.94,0,0,0-.32.68,2.64,2.64,0,0,0,.14.89,3.94,3.94,0,0,0,.63,1c.12.16.39.47.92,1L50,24.74h0c.58.64,1.19,1.32,1.8,2s1.23,1.45,1.78,2.15.87,1.15,1.23,1.69a8.47,8.47,0,0,1,1,1.84h0a11.94,11.94,0,0,1,.52,2,15.87,15.87,0,0,1,.17,2.41,8.6,8.6,0,0,1-.54,3,7.64,7.64,0,0,1-1.64,2.61,7.79,7.79,0,0,1-2.73,1.82A9.5,9.5,0,0,1,47.91,45Zm56.31-.45H99.33l-.43-.75L92.52,32.62V44.53h-6V13.77H92l.42.8,5.91,11.11V13.77h5.88V44.53Zm-38.48,0H57.52V13.77h8.22V44.53Zm-27.31,0H30.21V13.77h8.22V44.53Zm-10.26,0H18.69V35.69l-1.81,7.69-.27,1.15h-6.2l-.31-1.1-2-7.27v8.37H1.5V4.5H9.06l.33,1.07,5.38,17.77L19.69,5.6,20,4.5h8.18v40Z"/><path d="M128.46,43.48a8.14,8.14,0,0,0,3.08-.54,6.06,6.06,0,0,0,2.2-1.46,6.14,6.14,0,0,0,1.33-2.11,7,7,0,0,0,.45-2.5,13.9,13.9,0,0,0-.15-2.16,10.14,10.14,0,0,0-.45-1.73,7.41,7.41,0,0,0-.79-1.53c-.33-.5-.72-1-1.17-1.6s-1.12-1.39-1.74-2.09-1.2-1.38-1.77-2-1.09-1.19-1.55-1.68-.81-.88-1-1.15a5.4,5.4,0,0,1-.85-1.44,4.11,4.11,0,0,1-.23-1.4,2.45,2.45,0,0,1,.72-1.71,3,3,0,0,1,2.25-.76,3.75,3.75,0,0,1,2.66.88,5.62,5.62,0,0,1,1.3,3.31l2.48-.5q-.68-6.53-6.21-6.53a6.68,6.68,0,0,0-5.27,2A7.44,7.44,0,0,0,122,21.88a10.54,10.54,0,0,0,.43,3.09A8.89,8.89,0,0,0,124,27.83c.54.68,1.13,1.4,1.77,2.13S127,31.39,127.58,32l1.6,1.78c.48.54.85.94,1.12,1.22a6.39,6.39,0,0,1,1.11,1.57A3.45,3.45,0,0,1,131.7,38a2.32,2.32,0,0,1-.81,1.89,4,4,0,0,1-2.57.67,4.44,4.44,0,0,1-2.9-.83A5.26,5.26,0,0,1,124,36.46l-2.7.55a7.61,7.61,0,0,0,2.07,4.85,7.15,7.15,0,0,0,5.09,1.62m-52.11,0a7.21,7.21,0,0,0,5.49-1.95,7.89,7.89,0,0,0,1.84-5.61V22a7.32,7.32,0,0,0-1.84-5.4,7.53,7.53,0,0,0-5.54-1.85c-2.46,0-4.29.66-5.51,2A8,8,0,0,0,69,22.38V36.19a7.46,7.46,0,0,0,1.82,5.45q1.83,1.84,5.56,1.84m-.09-25.82a2,2,0,0,1,1.62.67,4.65,4.65,0,0,1,.54,2.7V37.41A5,5,0,0,1,78,40a1.76,1.76,0,0,1-1.6.65A1.92,1.92,0,0,1,74.71,40a4.62,4.62,0,0,1-.48-2.54V21a5.42,5.42,0,0,1,.45-2.7,1.76,1.76,0,0,1,1.58-.67M47.91,43.48A8.11,8.11,0,0,0,51,42.94a6.18,6.18,0,0,0,2.21-1.46,6.27,6.27,0,0,0,1.32-2.11,6.83,6.83,0,0,0,.45-2.5,13.9,13.9,0,0,0-.15-2.16A10.14,10.14,0,0,0,54.37,33a7.41,7.41,0,0,0-.79-1.53c-.33-.5-.72-1-1.17-1.6s-1.12-1.39-1.73-2.09-1.21-1.38-1.78-2-1.09-1.19-1.55-1.68-.81-.88-1-1.15a5.4,5.4,0,0,1-.85-1.44,4.11,4.11,0,0,1-.23-1.4A2.45,2.45,0,0,1,46,18.37a3,3,0,0,1,2.26-.76,3.74,3.74,0,0,1,2.65.88,5.62,5.62,0,0,1,1.3,3.31l2.48-.5q-.67-6.53-6.21-6.53a6.68,6.68,0,0,0-5.27,2,7.44,7.44,0,0,0-1.75,5.13A10.54,10.54,0,0,0,41.86,25a8.89,8.89,0,0,0,1.55,2.86c.54.68,1.13,1.4,1.78,2.13S46.45,31.39,47,32l1.6,1.78c.48.54.85.94,1.12,1.22a6.39,6.39,0,0,1,1.11,1.57A3.45,3.45,0,0,1,51.15,38a2.32,2.32,0,0,1-.81,1.89,4,4,0,0,1-2.57.67,4.44,4.44,0,0,1-2.9-.83,5.26,5.26,0,0,1-1.42-3.22l-2.7.55a7.61,7.61,0,0,0,2.07,4.85,7.15,7.15,0,0,0,5.09,1.62m71-.45V40.2h-6.3v-10h4.28V27.33h-4.28V18.15h6.3V15.27H107.35V43h11.52m-16.15,0V15.27H99.84V31.69L91.11,15.27H88V43h3V27L100.2,43h2.52M64.24,43V15.27H59V43h5.22M36.93,43V15.27H31.71V43h5.22M26.67,43V6H21.13l-6.3,22.72L8,6H3V43H6.6v-18l5,18h3.87l4.77-20.24V43h6.48m101.79,3.45a10.42,10.42,0,0,1-6.59-1.95V46H98.46l-.87-1.51L94,38.26V46H85V42.34a8.35,8.35,0,0,1-1,1.24c-1.81,1.93-4.39,2.9-7.67,2.9s-5.9-.92-7.69-2.73a8.63,8.63,0,0,1-1.42-1.91V46H56V42.78a9.45,9.45,0,0,1-.65.77h0a9.28,9.28,0,0,1-3.25,2.17,11,11,0,0,1-4.21.76A10,10,0,0,1,40.76,44a8,8,0,0,1-.83-.91V46H0V3H10.18l.64,2.13L14.71,18,18.24,5.2,18.85,3H29.67v9.27H39.93v3.86a8.88,8.88,0,0,1,1-1.36,9.53,9.53,0,0,1,7.51-3,9.89,9.89,0,0,1,3.52.61,8,8,0,0,1,3,2A7.53,7.53,0,0,1,56,15.75V12.27H67.24v4.35a9.43,9.43,0,0,1,1.34-1.9c1.81-2,4.4-3,7.72-3s5.85.92,7.66,2.73a7.9,7.9,0,0,1,1,1.27v-3.5h7.91l.85,1.59,3.08,5.8V12.27h25v2.09a8.58,8.58,0,0,1,3-1.9,11.84,11.84,0,0,1,4.13-.69,9.93,9.93,0,0,1,3.52.61,8,8,0,0,1,3,2,11,11,0,0,1,2.7,6.65l.28,2.72-2.67.53-2.48.5-.64.13.8.92c.65.74,1.27,1.48,1.83,2.2s.92,1.21,1.31,1.79a10.2,10.2,0,0,1,1.11,2.15h0a12.07,12.07,0,0,1,.59,2.28h0a16.67,16.67,0,0,1,.19,2.65,10,10,0,0,1-.64,3.55,9.06,9.06,0,0,1-5.21,5.3A11,11,0,0,1,128.46,46.48Zm-1.09-9.1a2.38,2.38,0,0,0,.95.13h.15c-.08-.11-.2-.25-.35-.43-.31-.31-.7-.73-1.18-1.27h0l0,.16A4.48,4.48,0,0,0,127.37,37.38Zm-80.55,0a2.47,2.47,0,0,0,1,.13h.15c-.08-.11-.19-.25-.35-.43-.31-.31-.71-.74-1.18-1.28h0l0,.16A4.79,4.79,0,0,0,46.82,37.38Zm68.75-.18h2.74L118,34.6l2.69-.54,2.7-.54,1.25-.25-1.18-1.33h0c-.69-.78-1.32-1.54-1.89-2.27a12.53,12.53,0,0,1-1.74-3v6.53h-4.28ZM39.93,28v6.1l.23,0,2.7-.54,1.25-.25-1.18-1.33c-.67-.76-1.3-1.53-1.88-2.27A13.07,13.07,0,0,1,39.93,28Zm14.84,0c.46.58.88,1.15,1.25,1.71V24.09l-.77.15-2.48.5-.64.13.81.92C53.59,26.53,54.2,27.27,54.77,28Zm60.8-3.67h3.61a14.91,14.91,0,0,1-.2-2.45c0-.24,0-.49,0-.73h-3.43ZM48.38,20.61a5,5,0,0,0,.32.47c.06.07.17.21.39.45a3.38,3.38,0,0,0-.28-.85A1.57,1.57,0,0,0,48.38,20.61Zm80.55,0a4,4,0,0,0,.32.46h0l.37.44a4.13,4.13,0,0,0-.27-.85A1.66,1.66,0,0,0,128.93,20.61Z"/></g><g id="Uni贸n_35" data-name="Uni贸n 35"><path class="cls-1" d="M131.46,42a8.58,8.58,0,0,1-6.12-2,7.71,7.71,0,0,1-2-3.18v4.76H108.85V10.77h14.52v5.88h-6.3v6.18h4.28v5.92h-4.28v7h6a13.53,13.53,0,0,1-.26-1.53l-.15-1.37,1.35-.27,2.7-.54,1.51-.3.26,1.52c.28,1.66.72,2.17.89,2.31a3.09,3.09,0,0,0,1.95.49,2.69,2.69,0,0,0,1.61-.32.86.86,0,0,0,.27-.74,1.93,1.93,0,0,0-.17-.75,4.52,4.52,0,0,0-.82-1.15c-.29-.29-.67-.7-1.15-1.24L129.47,30c-.58-.64-1.19-1.32-1.86-2.09s-1.29-1.5-1.83-2.2A10.23,10.23,0,0,1,124,22.4a12,12,0,0,1-.49-3.52,8.91,8.91,0,0,1,2.13-6.12A8.12,8.12,0,0,1,132,10.27a7.13,7.13,0,0,1,5.4,2.1,9.57,9.57,0,0,1,2.3,5.78l.14,1.35-1.34.27-2.47.5-1.55.31L134.25,19a4.3,4.3,0,0,0-.84-2.42,2.35,2.35,0,0,0-1.64-.48,1.64,1.64,0,0,0-1.15.29,1,1,0,0,0-.32.68,2.74,2.74,0,0,0,.14.9,4.13,4.13,0,0,0,.63,1h0c.17.23.48.57.92,1s1,1,1.57,1.71,1.15,1.28,1.79,2,1.24,1.45,1.78,2.15.88,1.15,1.24,1.69a9.45,9.45,0,0,1,.95,1.84,11.8,11.8,0,0,1,.53,2h0a15.83,15.83,0,0,1,.17,2.4,8.58,8.58,0,0,1-.54,3,7.56,7.56,0,0,1-4.38,4.44A9.45,9.45,0,0,1,131.46,42ZM79.35,42c-2.89,0-5.12-.77-6.63-2.29a8.91,8.91,0,0,1-2.25-6.5V19.38a9.43,9.43,0,0,1,2.22-6.64c1.5-1.64,3.73-2.47,6.61-2.47s5.08.77,6.6,2.29A8.76,8.76,0,0,1,88.18,19v13.9a9.28,9.28,0,0,1-2.25,6.63A8.61,8.61,0,0,1,79.35,42ZM78.91,36a1.23,1.23,0,0,0,.48.06,1.41,1.41,0,0,0,.37,0,6,6,0,0,0,.16-1.66V18a4.32,4.32,0,0,0-.22-1.77.72.72,0,0,0-.44-.1,1.59,1.59,0,0,0-.34,0A5.75,5.75,0,0,0,78.73,18V34.41A4.74,4.74,0,0,0,78.91,36ZM50.91,42a8.59,8.59,0,0,1-6.12-2,9.06,9.06,0,0,1-2.53-5.78l-.15-1.37,1.35-.27,2.7-.54,1.51-.3.26,1.52c.28,1.66.72,2.17.89,2.31a3.09,3.09,0,0,0,2,.49,2.69,2.69,0,0,0,1.61-.32c.09-.07.27-.23.27-.74a1.93,1.93,0,0,0-.17-.75,4.52,4.52,0,0,0-.82-1.15c-.29-.29-.68-.71-1.15-1.24s-1-1.16-1.59-1.77S47.66,28.63,47.06,28s-1.27-1.48-1.83-2.2a10.42,10.42,0,0,1-1.81-3.35,12.37,12.37,0,0,1-.49-3.52,9,9,0,0,1,2.13-6.12,8.12,8.12,0,0,1,6.39-2.49,7.17,7.17,0,0,1,5.41,2.1,9.63,9.63,0,0,1,2.29,5.78l.14,1.35L58,19.77l-2.47.5-1.55.31L53.7,19c-.26-1.72-.67-2.27-.84-2.42a2.33,2.33,0,0,0-1.63-.48,1.73,1.73,0,0,0-1.16.29.94.94,0,0,0-.32.68,2.64,2.64,0,0,0,.14.89,3.94,3.94,0,0,0,.63,1c.12.16.39.47.92,1L53,21.74h0c.58.64,1.19,1.32,1.8,2s1.23,1.45,1.78,2.15.87,1.15,1.23,1.69a8.47,8.47,0,0,1,1,1.84h0a11.94,11.94,0,0,1,.52,2,15.87,15.87,0,0,1,.17,2.41,8.6,8.6,0,0,1-.54,3,7.64,7.64,0,0,1-1.64,2.61,7.79,7.79,0,0,1-2.73,1.82A9.5,9.5,0,0,1,50.91,42Zm56.31-.45h-4.89l-.43-.75L95.52,29.62V41.53h-6V10.77H95l.42.8,5.91,11.11V10.77h5.88V41.53Zm-38.48,0H60.52V10.77h8.22V41.53Zm-27.31,0H33.21V10.77h8.22V41.53Zm-10.26,0H21.69V32.69l-1.81,7.69-.27,1.15h-6.2l-.31-1.1-2-7.27v8.37H4.5V1.5h7.56l.33,1.07,5.38,17.77L22.69,2.6,23,1.5h8.18v40Z"/><path d="M131.46,40.48a8.14,8.14,0,0,0,3.08-.54,6.06,6.06,0,0,0,2.2-1.46,6.14,6.14,0,0,0,1.33-2.11,7,7,0,0,0,.45-2.5,13.9,13.9,0,0,0-.15-2.16,10.14,10.14,0,0,0-.45-1.73,7.41,7.41,0,0,0-.79-1.53c-.33-.5-.72-1-1.17-1.6s-1.12-1.39-1.74-2.09-1.2-1.38-1.77-2-1.09-1.19-1.55-1.68-.81-.88-1-1.15a5.4,5.4,0,0,1-.85-1.44,4.11,4.11,0,0,1-.23-1.4,2.45,2.45,0,0,1,.72-1.71,3,3,0,0,1,2.25-.76,3.75,3.75,0,0,1,2.66.88,5.62,5.62,0,0,1,1.3,3.31l2.48-.5q-.68-6.53-6.21-6.53a6.68,6.68,0,0,0-5.27,2A7.44,7.44,0,0,0,125,18.88a10.54,10.54,0,0,0,.43,3.09A8.89,8.89,0,0,0,127,24.83c.54.68,1.13,1.4,1.77,2.13S130,28.39,130.58,29l1.6,1.78c.48.54.85.94,1.12,1.22a6.39,6.39,0,0,1,1.11,1.57A3.45,3.45,0,0,1,134.7,35a2.32,2.32,0,0,1-.81,1.89,4,4,0,0,1-2.57.67,4.44,4.44,0,0,1-2.9-.83A5.26,5.26,0,0,1,127,33.46l-2.7.55a7.61,7.61,0,0,0,2.07,4.85,7.15,7.15,0,0,0,5.09,1.62m-52.11,0a7.21,7.21,0,0,0,5.49-1.95,7.89,7.89,0,0,0,1.84-5.61V19a7.32,7.32,0,0,0-1.84-5.4,7.53,7.53,0,0,0-5.54-1.85c-2.46,0-4.29.66-5.51,2A8,8,0,0,0,72,19.38V33.19a7.46,7.46,0,0,0,1.82,5.45q1.83,1.84,5.56,1.84m-.09-25.82a2,2,0,0,1,1.62.67,4.65,4.65,0,0,1,.54,2.7V34.41A5,5,0,0,1,81,37a1.76,1.76,0,0,1-1.6.65A1.92,1.92,0,0,1,77.71,37a4.62,4.62,0,0,1-.48-2.54V18a5.42,5.42,0,0,1,.45-2.7,1.76,1.76,0,0,1,1.58-.67M50.91,40.48A8.11,8.11,0,0,0,54,39.94a6.18,6.18,0,0,0,2.21-1.46,6.27,6.27,0,0,0,1.32-2.11,6.83,6.83,0,0,0,.45-2.5,13.9,13.9,0,0,0-.15-2.16A10.14,10.14,0,0,0,57.37,30a7.41,7.41,0,0,0-.79-1.53c-.33-.5-.72-1-1.17-1.6s-1.12-1.39-1.73-2.09-1.21-1.38-1.78-2-1.09-1.19-1.55-1.68-.81-.88-1-1.15a5.4,5.4,0,0,1-.85-1.44,4.11,4.11,0,0,1-.23-1.4A2.45,2.45,0,0,1,49,15.37a3,3,0,0,1,2.26-.76,3.74,3.74,0,0,1,2.65.88,5.62,5.62,0,0,1,1.3,3.31l2.48-.5q-.67-6.53-6.21-6.53a6.68,6.68,0,0,0-5.27,2,7.44,7.44,0,0,0-1.75,5.13A10.54,10.54,0,0,0,44.86,22a8.89,8.89,0,0,0,1.55,2.86c.54.68,1.13,1.4,1.78,2.13S49.45,28.39,50,29l1.6,1.78c.48.54.85.94,1.12,1.22a6.39,6.39,0,0,1,1.11,1.57A3.45,3.45,0,0,1,54.15,35a2.32,2.32,0,0,1-.81,1.89,4,4,0,0,1-2.57.67,4.44,4.44,0,0,1-2.9-.83,5.26,5.26,0,0,1-1.42-3.22l-2.7.55a7.61,7.61,0,0,0,2.07,4.85,7.15,7.15,0,0,0,5.09,1.62m71-.45V37.2h-6.3v-10h4.28V24.33h-4.28V15.15h6.3V12.27H110.35V40h11.52m-16.15,0V12.27h-2.88V28.69L94.11,12.27H91V40h3V24L103.2,40h2.52M67.24,40V12.27H62V40h5.22M39.93,40V12.27H34.71V40h5.22M29.67,40V3H24.13l-6.3,22.72L11,3H6V40H9.6v-18l5,18h3.87l4.77-20.24V40h6.48m101.79,3.45a10.42,10.42,0,0,1-6.59-1.95V43H101.46l-.87-1.51L97,35.26V43H88V39.34a8.35,8.35,0,0,1-1,1.24c-1.81,1.93-4.39,2.9-7.67,2.9s-5.9-.92-7.69-2.73a8.63,8.63,0,0,1-1.42-1.91V43H59V39.78a9.45,9.45,0,0,1-.65.77h0a9.28,9.28,0,0,1-3.25,2.17,11,11,0,0,1-4.21.76A10,10,0,0,1,43.76,41a8,8,0,0,1-.83-.91V43H3V0H13.18l.64,2.13L17.71,15,21.24,2.2,21.85,0H32.67V9.27H42.93v3.86a8.88,8.88,0,0,1,1-1.36,9.53,9.53,0,0,1,7.51-3A9.89,9.89,0,0,1,55,9.38a8,8,0,0,1,3,2A7.53,7.53,0,0,1,59,12.75V9.27H70.24v4.35a9.43,9.43,0,0,1,1.34-1.9c1.81-2,4.4-3,7.72-3s5.85.92,7.66,2.73a7.9,7.9,0,0,1,1,1.27V9.27h7.91l.85,1.59,3.08,5.8V9.27h25v2.09a8.58,8.58,0,0,1,3-1.9A11.84,11.84,0,0,1,132,8.77a9.93,9.93,0,0,1,3.52.61,8,8,0,0,1,3,2,11,11,0,0,1,2.7,6.65l.28,2.72-2.67.53-2.48.5-.64.13.8.92c.65.74,1.27,1.48,1.83,2.2s.92,1.21,1.31,1.79a10.2,10.2,0,0,1,1.11,2.15h0a12.07,12.07,0,0,1,.59,2.28h0a16.67,16.67,0,0,1,.19,2.65,10,10,0,0,1-.64,3.55,9.06,9.06,0,0,1-5.21,5.3A11,11,0,0,1,131.46,43.48Zm-1.09-9.1a2.38,2.38,0,0,0,.95.13h.15c-.08-.11-.2-.25-.35-.43-.31-.31-.7-.73-1.18-1.27h0l0,.16A4.48,4.48,0,0,0,130.37,34.38Zm-80.55,0a2.47,2.47,0,0,0,1,.13h.15c-.08-.11-.19-.25-.35-.43-.31-.31-.71-.74-1.18-1.28h0l0,.16A4.79,4.79,0,0,0,49.82,34.38Zm68.75-.18h2.74L121,31.6l2.69-.54,2.7-.54,1.25-.25-1.18-1.33h0c-.69-.78-1.32-1.54-1.89-2.27a12.53,12.53,0,0,1-1.74-3v6.53h-4.28ZM42.93,25v6.1l.23-.05,2.7-.54,1.25-.25-1.18-1.33c-.67-.76-1.3-1.53-1.88-2.27A13.07,13.07,0,0,1,42.93,25Zm14.84,0c.46.58.88,1.15,1.25,1.71V21.09l-.77.15-2.48.5-.64.13.81.92C56.59,23.53,57.2,24.27,57.77,25Zm60.8-3.67h3.61a14.91,14.91,0,0,1-.2-2.45c0-.24,0-.49,0-.73h-3.43ZM51.38,17.61a5,5,0,0,0,.32.47c.06.07.17.21.39.45a3.38,3.38,0,0,0-.28-.85A1.57,1.57,0,0,0,51.38,17.61Zm80.55,0a4,4,0,0,0,.32.46h0l.37.44a4.13,4.13,0,0,0-.27-.85A1.66,1.66,0,0,0,131.93,17.61Z"/></g></g></g></g></svg>