<svg xmlns="http://www.w3.org/2000/svg" viewBox="0 0 45.3 15.999"><path data-name="Trazado 2352" d="M44.462 4.493a6.647 6.647 0 00-3.381-3.382 6.941 6.941 0 00-3.27-.6H7.174a6.909 6.909 0 00-2.954.612A6.646 6.646 0 00.838 4.505c-1.253 3.238 1.313 6.5 1.842 7.173a10.785 10.785 0 008.155 3.819 9.938 9.938 0 001.71-.2 10.613 10.613 0 005.954-3.09 9.345 9.345 0 001.566-2.341 3.33 3.33 0 011.273-1.079 3.426 3.426 0 011.478-.323 3.105 3.105 0 011.674.336 2.863 2.863 0 011.077 1.066 9.875 9.875 0 008.9 5.618c.046 0 .252 0 .577-.019a11.749 11.749 0 002.43-.364v-.068a9.96 9.96 0 005.149-3.367c.526-.673 3.093-3.933 1.839-7.173zm-27.4 1.62a5.143 5.143 0 01-5.613 4.36 5.139 5.139 0 01-4.34-5.5.709.709 0 01.705-.654 40.26 40.26 0 014.363.258 39.71 39.71 0 011.841.257q.646.1 1.256.221l.052.01c.411.08.812.163 1.2.25a.708.708 0 01.54.8zm17.026 4.377a5.135 5.135 0 01-5.4-3.969 5.682 5.682 0 01-.1-.533.71.71 0 01.561-.784q.484-.1 1-.186a40.418 40.418 0 013.366-.44 40.088 40.088 0 014.369-.146.709.709 0 01.688.672 5.138 5.138 0 01-4.48 5.384z" fill="#343434"/><path data-name="Trazado 2353" d="M10.85 15.999a11.285 11.285 0 01-8.552-4C.177 9.299-.502 6.581.371 4.322A7.151 7.151 0 014.017.664 7.414 7.414 0 017.182.009H37.81a7.438 7.438 0 013.476.643 7.147 7.147 0 013.634 3.635l.009.023c.872 2.253.194 4.971-1.907 7.656a10.4 10.4 0 01-5.048 3.44v.012l-.375.165a12.323 12.323 0 01-2.533.38c-.331.02-.546.02-.6.02a10.431 10.431 0 01-9.352-5.9 2.338 2.338 0 00-.871-.846 2.6 2.6 0 00-1.388-.274 3.476 3.476 0 00-1.306.278 2.853 2.853 0 00-1.077.914 9.388 9.388 0 01-1.606 2.391 11.188 11.188 0 01-6.244 3.246 10.464 10.464 0 01-1.772.207zM7.071 1.012a6.457 6.457 0 00-2.646.569 6.137 6.137 0 00-3.13 3.129c-.732 1.893-.1 4.266 1.776 6.659a10.268 10.268 0 007.768 3.63 9.511 9.511 0 001.606-.19 10.2 10.2 0 005.695-2.948 8.784 8.784 0 001.472-2.2 3.853 3.853 0 011.508-1.317 4.043 4.043 0 011.7-.373 3.528 3.528 0 011.9.392 3.373 3.373 0 011.281 1.261 9.442 9.442 0 008.467 5.368c.043 0 .238 0 .547-.019a11.274 11.274 0 002.01-.271l.319-.144a9.4 9.4 0 004.89-3.2c1.873-2.393 2.5-4.76 1.768-6.669a6.139 6.139 0 00-3.123-3.116 6.447 6.447 0 00-3.037-.558H7.072zm26.625 9.995a5.67 5.67 0 01-5.495-4.372 5.469 5.469 0 01-.108-.579 1.215 1.215 0 01.954-1.34 41.242 41.242 0 014.424-.635 40.819 40.819 0 014.423-.147 1.218 1.218 0 011.178 1.145 5.659 5.659 0 01-4.83 5.9l-.115.015a8.821 8.821 0 01-.431.013zm3.356-6.082c-1.162 0-2.335.051-3.493.152a41.182 41.182 0 00-4.312.619.208.208 0 00-.162.23 4.73 4.73 0 00.089.48 4.666 4.666 0 004.837 3.589h.019a4.652 4.652 0 004.043-4.859.21.21 0 00-.2-.2q-.412-.011-.821-.011zm-25.067 6.077a5.807 5.807 0 01-.587-.03 5.661 5.661 0 01-4.787-6.038 1.214 1.214 0 011.2-1.113 41.226 41.226 0 014.421.26 39.37 39.37 0 011.865.262q.653.1 1.271.223c.468.09.873.174 1.265.262a1.218 1.218 0 01.926 1.363l-.084.423a5.632 5.632 0 01-5.491 4.388zM7.812 4.821a.209.209 0 00-.2.192 4.655 4.655 0 003.918 4.968 4.636 4.636 0 005.042-3.94l.006-.046a.207.207 0 00-.161-.191 43.484 43.484 0 00-2.473-.474 34.42 34.42 0 00-1.82-.255 40.209 40.209 0 00-4.312-.254z" fill="#fff8e6"/></svg>