<svg xmlns="http://www.w3.org/2000/svg" viewBox="0 0 151.47 46.48"><defs><style>.cls-1{fill:#fff;}</style></defs><title>menu-inversion</title><g id="Layer_2" data-name="Layer 2"><g id="Layer_1-2" data-name="Layer 1"><g id="Inversion"><g id="Grupo_910" data-name="Grupo 910"><g id="Uni贸n_53" data-name="Uni贸n 53"><path d="M119.1,45c-2.89,0-5.12-.77-6.63-2.28a8.94,8.94,0,0,1-2.25-6.5V22.38a9.48,9.48,0,0,1,2.22-6.64c1.51-1.64,3.73-2.46,6.61-2.46s5.08.76,6.6,2.28A8.76,8.76,0,0,1,127.93,22V35.93a9.31,9.31,0,0,1-2.25,6.63A8.64,8.64,0,0,1,119.1,45Zm-.44-5.93a1.48,1.48,0,0,0,.48.06,1.28,1.28,0,0,0,.37,0,5.88,5.88,0,0,0,.16-1.66V21a4.27,4.27,0,0,0-.22-1.77c-.08-.09-.31-.1-.44-.1a1.68,1.68,0,0,0-.34,0,5.81,5.81,0,0,0-.19,1.84V37.41A4.88,4.88,0,0,0,118.66,39.05ZM90.66,45a8.64,8.64,0,0,1-6.12-2,8.48,8.48,0,0,1-2.33-4.51v6.09H74V34a8.85,8.85,0,0,0-.1-1.52h0a1.12,1.12,0,0,0-.17-.49.5.5,0,0,0-.2-.09h0a3.41,3.41,0,0,0-.73-.11V44.54H64.54V13.77h7.71a11.81,11.81,0,0,1,7.16,1.92c1.83,1.37,2.76,3.59,2.76,6.6a8.12,8.12,0,0,1-1.65,5.47,7.36,7.36,0,0,1-1.17,1,6.49,6.49,0,0,1,1.06.89,7.66,7.66,0,0,1,1.8,5.47v.57l1-.2,2.7-.54,1.52-.3.25,1.52c.29,1.66.72,2.17.89,2.31a3.1,3.1,0,0,0,2,.5,2.64,2.64,0,0,0,1.61-.33A.83.83,0,0,0,92.4,38a1.77,1.77,0,0,0-.17-.75,4.53,4.53,0,0,0-.81-1.14c-.3-.3-.69-.73-1.16-1.25L88.67,33c-.61-.67-1.23-1.37-1.86-2.09s-1.27-1.48-1.83-2.2h0a10.33,10.33,0,0,1-1.81-3.35,12.35,12.35,0,0,1-.49-3.51,9,9,0,0,1,2.13-6.13,8.11,8.11,0,0,1,6.39-2.48,7.16,7.16,0,0,1,5.41,2.09,9.63,9.63,0,0,1,2.29,5.78L99,22.5l-1.34.27-2.47.5-1.55.3L93.45,22c-.26-1.72-.67-2.27-.84-2.42A2.35,2.35,0,0,0,91,19.11a1.68,1.68,0,0,0-1.15.29,1,1,0,0,0-.32.69,2.72,2.72,0,0,0,.14.89,4.13,4.13,0,0,0,.63,1c.17.22.48.57.92,1l1.57,1.7c.57.64,1.18,1.32,1.8,2s1.24,1.46,1.78,2.15.88,1.16,1.24,1.69a8.71,8.71,0,0,1,.94,1.85,10.73,10.73,0,0,1,.53,2,14.75,14.75,0,0,1,.18,2.4,8.69,8.69,0,0,1-.55,3,7.65,7.65,0,0,1-4.37,4.44A9.7,9.7,0,0,1,90.66,45ZM72.77,19.67V25.9c.62-.08.78-.32.83-.41a6.09,6.09,0,0,0,.48-3.07c0-2-.36-2.42-.37-2.44S73.44,19.72,72.77,19.67ZM147,44.54h-4.89l-.43-.76-6.38-11.16V44.54h-6V13.77h5.51l.42.8,5.91,11.11V13.77H147V44.54Zm-38.48,0h-8.22V13.77h8.22V44.54Zm-44.59,0H49.38V15.05l-.15.59-7,27.76-.29,1.14H37.46l-.28-1.15L30.74,16.88V44.54H25.85l-.44-.76L19,32.62V44.54H13V13.77h5.51l.42.8,5.91,11.11V13.77h13.8l.27,1.16,2.2,9.52,2.26-9.53.28-1.15H63.9v5.88H57.6v6.18h4.28v5.93H57.6V38.7h6.3v5.84Zm-52.47,0H1.5V4.5h9.93v40Z"/><path d="M119.1,43.48a7.21,7.21,0,0,0,5.49-1.95,7.86,7.86,0,0,0,1.84-5.6V22a7.32,7.32,0,0,0-1.84-5.4q-1.84-1.85-5.54-1.84a7.17,7.17,0,0,0-5.51,2,8.06,8.06,0,0,0-1.82,5.63V36.2a7.45,7.45,0,0,0,1.82,5.44q1.83,1.84,5.56,1.84M119,17.66a2,2,0,0,1,1.62.67,4.65,4.65,0,0,1,.54,2.7V37.41a5,5,0,0,1-.43,2.54,1.76,1.76,0,0,1-1.6.66,1.92,1.92,0,0,1-1.68-.66,4.62,4.62,0,0,1-.48-2.54V21a5.42,5.42,0,0,1,.45-2.7,1.76,1.76,0,0,1,1.58-.67M90.66,43.48A8.11,8.11,0,0,0,93.74,43,6.2,6.2,0,0,0,96,41.48a6.45,6.45,0,0,0,1.33-2.11,7.28,7.28,0,0,0,.45-2.5,13.81,13.81,0,0,0-.16-2.16A10.14,10.14,0,0,0,97.12,33a7.41,7.41,0,0,0-.79-1.53c-.33-.5-.72-1-1.17-1.6S94,28.46,93.43,27.76s-1.21-1.38-1.78-2L90.1,24.07c-.47-.5-.81-.88-1-1.15a5.4,5.4,0,0,1-.85-1.44A4.09,4.09,0,0,1,88,20.09a2.52,2.52,0,0,1,.72-1.72A3,3,0,0,1,91,17.61a3.75,3.75,0,0,1,2.66.88,5.61,5.61,0,0,1,1.3,3.3l2.48-.49q-.68-6.53-6.21-6.52a6.71,6.71,0,0,0-5.27,2,7.49,7.49,0,0,0-1.75,5.14A10.52,10.52,0,0,0,84.61,25a8.79,8.79,0,0,0,1.55,2.86c.54.69,1.13,1.4,1.78,2.13S89.2,31.39,89.78,32l1.6,1.78c.48.54.86.95,1.13,1.22a6.31,6.31,0,0,1,1.1,1.57A3.45,3.45,0,0,1,93.9,38a2.32,2.32,0,0,1-.81,1.89,4,4,0,0,1-2.57.68,4.45,4.45,0,0,1-2.9-.84,5.23,5.23,0,0,1-1.41-3.22L83.5,37a7.62,7.62,0,0,0,2.07,4.87,7.15,7.15,0,0,0,5.09,1.61M145.47,43V15.27h-2.88V31.7l-8.73-16.43h-3.11V43h3V27L143,43h2.52M107,43V15.27h-5.22V43H107M80.71,43V35.16a6.19,6.19,0,0,0-1.39-4.43,6.57,6.57,0,0,0-4-1.82,7.81,7.81,0,0,0,4.08-2.14,6.69,6.69,0,0,0,1.28-4.48q0-3.78-2.16-5.4a10.31,10.31,0,0,0-6.26-1.62H66V43h5.23V30.26h1.07a5.82,5.82,0,0,1,1.58.18,1.88,1.88,0,0,1,1,.6,2.7,2.7,0,0,1,.47,1.15,10.07,10.07,0,0,1,.13,1.8v9h5.22M71.27,18.15h1.07a3.11,3.11,0,0,1,2.53.88,5.71,5.71,0,0,1,.71,3.39,7.73,7.73,0,0,1-.71,3.88,2.8,2.8,0,0,1-2.53,1.12H71.27V18.15M62.4,43V40.2H56.1V30.26h4.28V27.33H56.1V18.15h6.3V15.27H50.88V43H62.4M40.76,43l7-27.77H44.85L41.12,31,37.47,15.27H31.89L38.64,43h2.12M29.24,43V15.27H26.36V31.7L17.63,15.27H14.52V43h3V27L26.72,43h2.52M9.93,43V6H3V43H9.93M119.1,46.48c-3.31,0-5.9-.91-7.69-2.73h0A8.91,8.91,0,0,1,110,41.84V46H98.77V42.79a9.08,9.08,0,0,1-3.9,2.94,11.2,11.2,0,0,1-4.21.75,10.17,10.17,0,0,1-7-2.25V46H47.88V27.1L43.66,43.77,43.09,46H36.28l-.55-2.29L32.24,29.39V46H25l-.86-1.52-3.57-6.25V46H0V3H12.93v9.27h6.5l.85,1.59,3.08,5.8V12.27h16.5l.53,2.32.76,3.28.78-3.29.55-2.31H72.25a13.23,13.23,0,0,1,8.06,2.22,7.54,7.54,0,0,1,2,2.26,9.28,9.28,0,0,1,1.36-2,9.52,9.52,0,0,1,7.51-3,9.89,9.89,0,0,1,3.52.6,8,8,0,0,1,4,3.37V12.27H110v4.35a9.37,9.37,0,0,1,1.34-1.89h0c1.8-2,4.4-2.94,7.71-2.94s5.85.91,7.66,2.72h0a8.29,8.29,0,0,1,1,1.26V12.27h7.91l.85,1.59,3.08,5.8V12.27h8.88V46h-7.26l-.86-1.52-3.58-6.25V46h-9v-3.7a8.35,8.35,0,0,1-1,1.24A10.05,10.05,0,0,1,119.1,46.48ZM89.57,37.39a2.61,2.61,0,0,0,1,.13h.15c-.08-.11-.19-.25-.35-.43s-.71-.75-1.18-1.28h0l0,.16A4.92,4.92,0,0,0,89.57,37.39ZM59.1,37.2H63V33.26H59.1Zm22.51-8.41a8.55,8.55,0,0,1,2,5.12l2-.39,1.24-.25-1.18-1.33c-.67-.76-1.3-1.52-1.88-2.26h0a13.14,13.14,0,0,1-1.33-2.07,6.83,6.83,0,0,1-.82,1.15ZM97.52,28c.46.58.88,1.16,1.25,1.71V24.09l-.77.15-2.48.5-.64.12c.27.31.54.61.81.93C96.35,26.54,97,27.28,97.52,28ZM59.1,24.33H63V21.15H59.1Zm32-3.71a5.22,5.22,0,0,0,.32.46c.06.07.17.21.39.45a3.56,3.56,0,0,0-.28-.85A1.73,1.73,0,0,0,91.13,20.62Z"/></g></g></g><g id="Inversion-2"><g id="Grupo_910-2" data-name="Grupo 910-2"><g id="Uni贸n_53-2" data-name="Uni贸n 53-2"><path class="cls-1" d="M122.1,42c-2.89,0-5.12-.77-6.63-2.28a8.94,8.94,0,0,1-2.25-6.5V19.38a9.48,9.48,0,0,1,2.22-6.64c1.51-1.64,3.73-2.46,6.61-2.46s5.08.76,6.6,2.28A8.76,8.76,0,0,1,130.93,19V32.93a9.31,9.31,0,0,1-2.25,6.63A8.64,8.64,0,0,1,122.1,42Zm-.44-5.93a1.48,1.48,0,0,0,.48.06,1.28,1.28,0,0,0,.37,0,5.88,5.88,0,0,0,.16-1.66V18a4.27,4.27,0,0,0-.22-1.77c-.08-.09-.31-.1-.44-.1a1.68,1.68,0,0,0-.34,0,5.81,5.81,0,0,0-.19,1.84V34.41A4.88,4.88,0,0,0,121.66,36.05ZM93.66,42a8.64,8.64,0,0,1-6.12-2,8.48,8.48,0,0,1-2.33-4.51v6.09H77V31a8.85,8.85,0,0,0-.1-1.52h0a1.12,1.12,0,0,0-.17-.49.5.5,0,0,0-.2-.09h0a3.41,3.41,0,0,0-.73-.11V41.54H67.54V10.77h7.71a11.81,11.81,0,0,1,7.16,1.92c1.83,1.37,2.76,3.59,2.76,6.6a8.12,8.12,0,0,1-1.65,5.47,7.36,7.36,0,0,1-1.17,1,6.49,6.49,0,0,1,1.06.89,7.66,7.66,0,0,1,1.8,5.47v.57l1-.2,2.7-.54,1.52-.3.25,1.52c.29,1.66.72,2.17.89,2.31a3.1,3.1,0,0,0,2,.5,2.64,2.64,0,0,0,1.61-.33A.83.83,0,0,0,95.4,35a1.77,1.77,0,0,0-.17-.75,4.53,4.53,0,0,0-.81-1.14c-.3-.3-.69-.73-1.16-1.25L91.67,30c-.61-.67-1.23-1.37-1.86-2.09s-1.27-1.48-1.83-2.2h0a10.33,10.33,0,0,1-1.81-3.35,12.35,12.35,0,0,1-.49-3.51,9,9,0,0,1,2.13-6.13,8.11,8.11,0,0,1,6.39-2.48,7.16,7.16,0,0,1,5.41,2.09,9.63,9.63,0,0,1,2.29,5.78L102,19.5l-1.34.27-2.47.5-1.55.3L96.45,19c-.26-1.72-.67-2.27-.84-2.42A2.35,2.35,0,0,0,94,16.11a1.68,1.68,0,0,0-1.15.29,1,1,0,0,0-.32.69,2.72,2.72,0,0,0,.14.89,4.13,4.13,0,0,0,.63,1c.17.22.48.57.92,1l1.57,1.7c.57.64,1.18,1.32,1.8,2s1.24,1.46,1.78,2.15.88,1.16,1.24,1.69a8.71,8.71,0,0,1,.94,1.85,10.73,10.73,0,0,1,.53,2,14.75,14.75,0,0,1,.18,2.4,8.69,8.69,0,0,1-.55,3,7.65,7.65,0,0,1-4.37,4.44A9.7,9.7,0,0,1,93.66,42ZM75.77,16.67V22.9c.62-.08.78-.32.83-.41a6.09,6.09,0,0,0,.48-3.07c0-2-.36-2.42-.37-2.44S76.44,16.72,75.77,16.67ZM150,41.54h-4.89l-.43-.76-6.38-11.16V41.54h-6V10.77h5.51l.42.8,5.91,11.11V10.77H150V41.54Zm-38.48,0h-8.22V10.77h8.22V41.54Zm-44.59,0H52.38V12.05l-.15.59-7,27.76-.29,1.14H40.46l-.28-1.15L33.74,13.88V41.54H28.85l-.44-.76L22,29.62V41.54H16V10.77h5.51l.42.8,5.91,11.11V10.77h13.8l.27,1.16,2.2,9.52,2.26-9.53.28-1.15H66.9v5.88H60.6v6.18h4.28v5.93H60.6V35.7h6.3v5.84Zm-52.47,0H4.5V1.5h9.93v40Z"/><path d="M122.1,40.48a7.21,7.21,0,0,0,5.49-1.95,7.86,7.86,0,0,0,1.84-5.6V19a7.32,7.32,0,0,0-1.84-5.4q-1.84-1.84-5.54-1.84a7.17,7.17,0,0,0-5.51,2,8.06,8.06,0,0,0-1.82,5.63V33.2a7.45,7.45,0,0,0,1.82,5.44q1.83,1.84,5.56,1.84M122,14.66a2,2,0,0,1,1.62.67,4.65,4.65,0,0,1,.54,2.7V34.41a5,5,0,0,1-.43,2.54,1.76,1.76,0,0,1-1.6.66,1.92,1.92,0,0,1-1.68-.66,4.62,4.62,0,0,1-.48-2.54V18a5.42,5.42,0,0,1,.45-2.7,1.76,1.76,0,0,1,1.58-.67M93.66,40.48A8.11,8.11,0,0,0,96.74,40,6.2,6.2,0,0,0,99,38.48a6.45,6.45,0,0,0,1.33-2.11,7.28,7.28,0,0,0,.45-2.5,13.81,13.81,0,0,0-.16-2.16,10.14,10.14,0,0,0-.45-1.73,7.41,7.41,0,0,0-.79-1.53c-.33-.5-.72-1-1.17-1.6S97,25.46,96.43,24.76s-1.21-1.38-1.78-2L93.1,21.07c-.47-.5-.81-.88-1-1.15a5.4,5.4,0,0,1-.85-1.44A4.09,4.09,0,0,1,91,17.09a2.52,2.52,0,0,1,.72-1.72A3,3,0,0,1,94,14.61a3.75,3.75,0,0,1,2.66.88,5.61,5.61,0,0,1,1.3,3.3l2.48-.49q-.68-6.53-6.21-6.52a6.71,6.71,0,0,0-5.27,2,7.49,7.49,0,0,0-1.75,5.14A10.52,10.52,0,0,0,87.61,22a8.79,8.79,0,0,0,1.55,2.86c.54.69,1.13,1.4,1.78,2.13S92.2,28.39,92.78,29l1.6,1.78c.48.54.86,1,1.13,1.22a6.31,6.31,0,0,1,1.1,1.57A3.45,3.45,0,0,1,96.9,35a2.32,2.32,0,0,1-.81,1.89,4,4,0,0,1-2.57.68,4.45,4.45,0,0,1-2.9-.84,5.23,5.23,0,0,1-1.41-3.22L86.5,34a7.62,7.62,0,0,0,2.07,4.87,7.15,7.15,0,0,0,5.09,1.61M148.47,40V12.27h-2.88V28.7l-8.73-16.43h-3.11V40h3V24L146,40h2.52M110,40V12.27h-5.22V40H110M83.71,40V32.16a6.19,6.19,0,0,0-1.39-4.43,6.57,6.57,0,0,0-4-1.82,7.81,7.81,0,0,0,4.08-2.14,6.69,6.69,0,0,0,1.28-4.48q0-3.78-2.16-5.4a10.31,10.31,0,0,0-6.26-1.62H69V40h5.23V27.26h1.07a5.82,5.82,0,0,1,1.58.18,1.88,1.88,0,0,1,1,.6,2.7,2.7,0,0,1,.47,1.15,10.07,10.07,0,0,1,.13,1.8V40h5.22M74.27,15.15h1.07a3.11,3.11,0,0,1,2.53.88,5.71,5.71,0,0,1,.71,3.39,7.73,7.73,0,0,1-.71,3.88,2.8,2.8,0,0,1-2.53,1.12H74.27V15.15M65.4,40V37.2H59.1V27.26h4.28V24.33H59.1V15.15h6.3V12.27H53.88V40H65.4M43.76,40l7-27.77H47.85L44.12,28,40.47,12.27H34.89L41.64,40h2.12M32.24,40V12.27H29.36V28.7L20.63,12.27H17.52V40h3V24L29.72,40h2.52M12.93,40V3H6V40h6.93M122.1,43.48c-3.31,0-5.9-.91-7.69-2.73h0A8.91,8.91,0,0,1,113,38.84V43H101.77V39.79a9.08,9.08,0,0,1-3.9,2.94,11.2,11.2,0,0,1-4.21.75,10.17,10.17,0,0,1-7-2.25V43H50.88V24.1L46.66,40.77,46.09,43H39.28l-.55-2.29L35.24,26.39V43H28l-.86-1.52-3.57-6.25V43H3V0H15.93V9.27h6.5l.85,1.59,3.08,5.8V9.27h16.5l.53,2.32.76,3.28.78-3.29.55-2.31H75.25a13.23,13.23,0,0,1,8.06,2.22,7.54,7.54,0,0,1,2,2.26,9.28,9.28,0,0,1,1.36-2,9.52,9.52,0,0,1,7.51-3,9.89,9.89,0,0,1,3.52.6,8,8,0,0,1,4,3.37V9.27H113v4.35a9.37,9.37,0,0,1,1.34-1.89h0c1.8-2,4.4-2.94,7.71-2.94s5.85.91,7.66,2.72h0a8.29,8.29,0,0,1,1,1.26V9.27h7.91l.85,1.59,3.08,5.8V9.27h8.88V43h-7.26l-.86-1.52-3.58-6.25V43h-9v-3.7a8.35,8.35,0,0,1-1,1.24A10.05,10.05,0,0,1,122.1,43.48ZM92.57,34.39a2.61,2.61,0,0,0,1,.13h.15c-.08-.11-.19-.25-.35-.43s-.71-.75-1.18-1.28h0l0,.16A4.92,4.92,0,0,0,92.57,34.39ZM62.1,34.2H66V30.26H62.1Zm22.51-8.41a8.55,8.55,0,0,1,2,5.12l2-.39,1.24-.25-1.18-1.33c-.67-.76-1.3-1.52-1.88-2.26h0a13.14,13.14,0,0,1-1.33-2.07,6.83,6.83,0,0,1-.82,1.15ZM100.52,25c.46.58.88,1.16,1.25,1.71V21.09l-.77.15-2.48.5-.64.12c.27.31.54.61.81.93C99.35,23.54,100,24.28,100.52,25ZM62.1,21.33H66V18.15H62.1Zm32-3.71a5.22,5.22,0,0,0,.32.46c.06.07.17.21.39.45a3.56,3.56,0,0,0-.28-.85A1.73,1.73,0,0,0,94.13,17.62Z"/></g></g></g></g></g></svg>