<svg xmlns="http://www.w3.org/2000/svg" viewBox="0 0 84.92 46.03"><defs><style>.cls-1{fill:#fff;}</style></defs><title>menu-mapa</title><g id="Layer_2" data-name="Layer 2"><g id="Layer_1-2" data-name="Layer 1"><g id="Mapa"><g id="Grupo_910" data-name="Grupo 910"><g id="Uni贸n_53" data-name="Uni贸n 53"><path d="M80,44.53H71.38l-.27-1.15-.94-3.93H67.54l-.94,3.93-.27,1.15h-6l.48-1.87L67.83,14.9l.29-1.13h4.41l.28,1.15,6.75,27.76Zm-24.57,0H38.9l-.28-1.15-.94-3.93H35.05l-.94,3.93-.27,1.15H18.69V35.69l-1.81,7.69-.27,1.15h-6.2l-.31-1.1-2-7.26v8.36H1.5V4.5H9.06l.33,1.07,5.38,17.77L19.69,5.6,20,4.5h8.18V43.08l.11-.42L35.34,14.9l.29-1.13H40l.28,1.15,6.75,27.76.15.61V13.77h6.9c3.46,0,6,.6,7.81,1.84s2.91,3.59,2.91,6.68-.84,5.42-2.49,7-3.9,2.35-6.91,2.42V44.53Zm0-24.86v6.22c.58-.07.72-.31.78-.42a6.3,6.3,0,0,0,.49-3A4.47,4.47,0,0,0,56.3,20,1.22,1.22,0,0,0,55.44,19.67Z"/><path d="M78.1,43,71.36,15.27H69.28L62.22,43h2.92L66.36,38h5L72.57,43H78.1M68.88,27.28l1.8,7.79H67l1.85-7.79M53.94,43V30.25H55c2.82,0,4.91-.66,6.28-2s2-3.32,2-6-.75-4.4-2.27-5.45-3.83-1.57-7-1.57h-5.4V43h5.22m0-24.88H55a2.88,2.88,0,0,1,2.5,1,5.87,5.87,0,0,1,.69,3.3,7.94,7.94,0,0,1-.69,3.81A2.66,2.66,0,0,1,55,27.42H53.94V18.15M45.62,43,38.86,15.27H36.79L29.73,43h2.92L33.87,38h5L40.08,43h5.54M36.39,27.28l1.8,7.79H34.55l1.84-7.79M26.67,43V6H21.14l-6.3,22.72L8,6H3V43H6.6v-18l5,18h3.87l4.77-20.25V43h6.48m55.25,3H70.2l-.55-2.3L69,41h-.26l-.67,2.78L67.51,46H58.36l1-3.74,2.76-10.83a11.58,11.58,0,0,1-5.13,1.7V46H37.71l-.55-2.3L36.5,41h-.26l-.67,2.78L35,46H0V3H10.18l.64,2.13L14.71,18,18.24,5.2,18.85,3H29.67V31.1l4.22-16.57.57-2.26h6.76l.56,2.29,3.94,16.21V12.27h8.4c3.78,0,6.61.69,8.66,2.11a7.75,7.75,0,0,1,2.76,3.44l.84-3.29L67,12.27h6.76l.56,2.29L81,42.33Z"/></g></g></g><g id="Mapa-2"><g id="Grupo_910-2" data-name="Grupo 910-2"><g id="Uni贸n_54" data-name="Uni贸n 54"><path class="cls-1" d="M83,41.53H74.39l-.28-1.15-.94-3.93H70.54l-.94,3.93-.27,1.15h-6l.48-1.87L70.83,11.9l.29-1.13h4.41l.28,1.14,6.75,27.77Zm-24.57,0H41.9l-.28-1.15-.94-3.93H38.05l-.94,3.93-.27,1.15H21.69V32.69l-1.81,7.69-.27,1.15h-6.2l-.31-1.1-2-7.26v8.36H4.5V1.5h7.56l.33,1.07,5.38,17.77L22.69,2.6,23,1.5h8.18V40.08l.11-.42L38.34,11.9l.29-1.13H43l.28,1.14,6.75,27.77.15.6V10.77h6.9c3.47,0,6,.6,7.81,1.84s2.92,3.59,2.92,6.68-.85,5.41-2.5,7-3.9,2.36-6.91,2.43V41.53Zm0-24.86v6.22c.58-.07.72-.31.78-.42a6.24,6.24,0,0,0,.5-3A4.41,4.41,0,0,0,59.3,17,1.22,1.22,0,0,0,58.44,16.67Z"/><path d="M81.1,40,74.35,12.27H72.28L65.22,40h2.92L69.36,35h5L75.57,40H81.1M71.88,24.28l1.8,7.79H70l1.85-7.79M56.94,40V27.25H58c2.82,0,4.91-.66,6.28-2s2-3.32,2-6-.76-4.4-2.28-5.45-3.83-1.57-6.95-1.57h-5.4V40h5.22m0-24.88H58a2.88,2.88,0,0,1,2.5,1,5.86,5.86,0,0,1,.7,3.3,8,8,0,0,1-.7,3.81A2.66,2.66,0,0,1,58,24.42H56.94V15.15M48.62,40,41.86,12.27H39.79L32.73,40h2.92L36.87,35h5L43.08,40h5.54M39.39,24.28l1.8,7.79H37.55l1.84-7.79M29.67,40V3H24.13l-6.3,22.72L11,3H6V40H9.6v-18l5,18h3.87l4.77-20.24V40h6.48m55.25,3H73.2l-.55-2.3L72,38h-.26l-.67,2.78L70.51,43H61.36l1-3.74,2.76-10.83a11.58,11.58,0,0,1-5.13,1.7V43H40.71l-.55-2.3L39.5,38h-.26l-.67,2.78L38,43H3V0H13.18l.64,2.13L17.71,15,21.24,2.2,21.85,0H32.67V28.1l4.22-16.57.57-2.26h6.76l.56,2.29,3.94,16.21V9.27h8.4c3.78,0,6.61.69,8.66,2.11a7.75,7.75,0,0,1,2.76,3.44l.84-3.29L70,9.27h6.76l.56,2.29L84,39.32Z"/></g></g></g></g></g></svg>