<svg xmlns="http://www.w3.org/2000/svg" viewBox="0 0 60.802 65"><g data-name="Grupo 665"><path data-name="Trazado 1289" d="M28.551 56.633l1.755-1.741a2.667 2.667 0 00.792-1.651 6.8 6.8 0 00-1.811-5.316L17.134 35.771a6.808 6.808 0 00-5.317-1.811 2.681 2.681 0 00-1.65.792l-1.741 1.756-4.149 4.132a7.034 7.034 0 014.1.24 6.841 6.841 0 012.246 1.4l12.153 12.153a6.856 6.856 0 011.4 2.246 7.038 7.038 0 01.24 4.1z" fill="#c9bd9f"/><path data-name="Trazado 1290" d="M25.081 19.854l1.74-1.756a2.68 2.68 0 011.651-.791 6.8 6.8 0 015.317 1.81l6.108 6.108-6.511 6.51-6.106-6.105a6.857 6.857 0 00-2.247-1.4 7.051 7.051 0 00-4.1-.24z" fill="#c9bd9f"/><path data-name="Trazado 1291" d="M45.208 39.983l1.755-1.742a2.671 2.671 0 00.792-1.651 6.8 6.8 0 00-1.809-5.317l-6.107-6.107-6.511 6.51 6.108 6.108a6.859 6.859 0 011.4 2.248 7.041 7.041 0 01.239 4.1z" fill="#c9bd9f"/><g data-name="Grupo 662" transform="translate(9.296 9.245)"><ellipse data-name="Elipse 84" cx="3.604" cy="6.854" rx="3.604" ry="6.854" transform="rotate(-45 21.987 -35.682)" fill="#f2132a"/><path data-name="Trazado 1292" d="M43.915 12.243c-1.406 1.408-4.718.378-7.395-2.3s-3.7-5.988-2.3-7.4L.629 36.134c-1.408 1.407-.378 4.718 2.3 7.4s5.988 3.7 7.395 2.3z" fill="#990016"/><ellipse data-name="Elipse 85" cx="2.804" cy="5.333" rx="2.804" ry="5.333" transform="rotate(-45 23.424 -37.408)" fill="#442008"/></g><g data-name="Grupo 663" transform="translate(0 8.846)"><ellipse data-name="Elipse 86" cx="3.604" cy="6.854" rx="3.604" ry="6.854" transform="rotate(-45 21.988 -35.685)" fill="#f2132a"/><path data-name="Trazado 1293" d="M43.914 12.241c-1.407 1.407-4.718.378-7.394-2.3s-3.7-5.983-2.3-7.395L.628 36.137c-1.407 1.408-.378 4.719 2.3 7.395s5.987 3.7 7.395 2.3z" fill="#cb0017"/><path data-name="Trazado 1294" d="M4.012 44.5a9.46 9.46 0 003.31 1.773l33.591-33.591a9.482 9.482 0 01-3.31-1.773z" fill="#f2132a"/><ellipse data-name="Elipse 87" cx="2.804" cy="5.333" rx="2.804" ry="5.333" transform="rotate(-45 23.425 -37.41)" fill="#442008"/></g><g data-name="Grupo 664" transform="translate(9.693 18.538)"><ellipse data-name="Elipse 88-2" cx="3.604" cy="6.854" rx="3.604" ry="6.854" transform="rotate(-45 21.988 -35.685)" fill="#f2132a"/><path data-name="Trazado 1295" d="M43.914 12.241c-1.408 1.407-4.719.378-7.4-2.3s-3.7-5.987-2.3-7.395L.623 36.137c-1.406 1.406-.378 4.718 2.3 7.395s5.987 3.7 7.395 2.3z" fill="#cb0017"/><path data-name="Trazado 1296" d="M4.011 44.501a9.474 9.474 0 003.31 1.773l33.591-33.591a9.492 9.492 0 01-3.31-1.773z" fill="#f2132a"/><ellipse data-name="Elipse 89-2" cx="2.804" cy="5.333" rx="2.804" ry="5.333" transform="rotate(-45 23.425 -37.409)" fill="#442008"/></g><path data-name="Trazado 1297" d="M40.913 21.528L7.322 55.119a3.025 3.025 0 003-.441l33.591-33.592a3.028 3.028 0 01-3 .442z" fill="#990016"/><path data-name="Trazado 1298" d="M43.436 41.752l3.269-3.251a.409.409 0 00-.315-.7 6.8 6.8 0 01-5.15-1.826L29.087 23.822a6.793 6.793 0 01-1.825-5.149.408.408 0 00-.7-.316l-3.252 3.267-2.377 2.358a7.052 7.052 0 00.24 4.1 6.854 6.854 0 001.4 2.246l12.153 12.153a6.84 6.84 0 002.247 1.4 7.025 7.025 0 004.1.241z" fill="#dad3c1"/><path data-name="Trazado 1299" d="M26.785 58.404l3.266-3.248a.409.409 0 00-.316-.7 6.8 6.8 0 01-5.149-1.825L12.43 40.475a6.8 6.8 0 01-1.826-5.15.408.408 0 00-.7-.314l-3.251 3.266-2.377 2.358a7.04 7.04 0 00.241 4.1 6.864 6.864 0 001.4 2.247l12.154 12.153a6.874 6.874 0 002.245 1.4 7.031 7.031 0 004.1.24z" fill="#dad3c1"/><path data-name="Trazado 1300" d="M9.891 36.034c0 .118.017.236.026.352.015.175.039.4.076.651l.005.035c.014.08.026.163.042.249a7.449 7.449 0 001.881 3.64l12.19 12.189a7.434 7.434 0 003.619 1.875l.18.033c.124.022.244.042.37.056l.192.024c.185.017.374.034.564.04l-.008.009a4.636 4.636 0 00.6 0c.332-.021.367-.054.431-.028a.41.41 0 000-.578v-.005a.406.406 0 00-.316-.114 6.8 6.8 0 01-5.15-1.825L12.442 40.485a6.8 6.8 0 01-1.825-5.149.4.4 0 00-.115-.316.407.407 0 00-.577-.005 8.846 8.846 0 00-.034 1.019z" fill="#c9bd9f"/><path data-name="Trazado 1301" d="M26.541 19.384c0 .119.016.235.025.352.015.175.04.4.077.652l.005.034c.014.081.027.164.045.246a7.45 7.45 0 001.879 3.638L40.762 36.5a7.431 7.431 0 003.621 1.877 8.957 8.957 0 00.551.09l.193.025c.184.017.372.031.561.037l-.009.009a5.058 5.058 0 00.6 0c.332-.02.368-.053.432-.029a.408.408 0 00.006-.577.4.4 0 00-.316-.115 6.8 6.8 0 01-5.15-1.825L29.098 23.839a6.8 6.8 0 01-1.826-5.15.4.4 0 00-.114-.315.407.407 0 00-.577-.006 8.657 8.657 0 00-.04 1.016z" fill="#c9bd9f"/><path data-name="Trazado 1304" d="M48.362 16.638a18.242 18.242 0 006.774-11.206" fill="none" stroke="#987a58" stroke-linecap="round" stroke-miterlimit="10" stroke-width="2"/><path data-name="Trazado 1366" d="M55.85 0a17.47 17.47 0 01-.585 2.09c-.471 1.355-.724 1.548-.885 1.635-.833.448-2.036-.412-2.215-.543a4.733 4.733 0 01.889 1.56 1.593 1.593 0 01.12.759 1.814 1.814 0 01-.89 1.132 2.871 2.871 0 01-1.376.479 3.294 3.294 0 012.028.177.694.694 0 01.313.239c.406.618-.643 1.869-.706 1.942a1.8 1.8 0 011.226-1.137 1.5 1.5 0 011.148.228 1.533 1.533 0 01.595 1.441 4.759 4.759 0 01.537-2.025c1.308-2.468 4.425-2.761 4.753-2.786a116.335 116.335 0 00-2.492-.648c-.8-.194-1.073-.253-1.355-.527-.4-.389-.4-.838-.618-1.976A27.072 27.072 0 0055.85 0z" fill="#ff8d00"/><path data-name="Trazado 1367" d="M56.074 4.776c.628.672 2.03.652 2.022.7a50.81 50.81 0 01-1.179.78 4 4 0 00-.894.712 2.659 2.659 0 00-.6 1.639 1.043 1.043 0 00-.878-1.026 1.014 1.014 0 00-.78.364.813.813 0 00.046-.682.787.787 0 00-.444-.423.815.815 0 00-.643.04 2.843 2.843 0 00.966-.883 1.187 1.187 0 00.246-.552 1.33 1.33 0 00-.54-1.051 1.382 1.382 0 00.752.223 1.464 1.464 0 00.78-.257 1.994 1.994 0 00.753-.877 1.73 1.73 0 00.393 1.293z" fill="#ffdb00"/><path data-name="Trazado 1302" d="M48.83 25.853a17.275 17.275 0 001.459-3.388 17.555 17.555 0 00.769-4.911c.066-2.187.851-5.818 4.079-12.122" fill="none" stroke="#bfb194" stroke-linecap="round" stroke-miterlimit="10" stroke-width="2"/><path data-name="Trazado 1303" d="M39.068 16.239a14.633 14.633 0 013.257-1.776 19.026 19.026 0 015.3-1.041c2.019-.326 4.713-1.979 7.51-7.99" fill="none" stroke="#bfb194" stroke-linecap="round" stroke-miterlimit="10" stroke-width="2"/></g></svg>