<svg viewBox="0 0 64 64" xmlns="http://www.w3.org/2000/svg"><path fill="currentColor" d="M62.707 9.707A.996.996 0 0063 9V2a1 1 0 00-1-1h-7a.997.997 0 00-.707.293L32 23.586 9.707 1.293A.997.997 0 009 1H2a1 1 0 00-1 1v7c0 .266.105.52.293.707L23.586 32 18 37.586l-2.293-2.293a.999.999 0 00-1.414 0l-4 4a.999.999 0 000 1.414L13.586 44 6 51.586l-.293-.293a.999.999 0 00-1.414 0l-3 3a.999.999 0 000 1.414l7 7a.997.997 0 001.414 0l3-3a.999.999 0 000-1.414L12.414 58 20 50.414l3.293 3.293a.997.997 0 001.414 0l4-4a.999.999 0 000-1.414L26.414 46 32 40.414 37.586 46l-2.293 2.293a.999.999 0 000 1.414l4 4a.997.997 0 001.414 0L44 50.414 51.586 58l-.293.293a.999.999 0 000 1.414l3 3a.997.997 0 001.414 0l7-7a.999.999 0 000-1.414l-3-3a.999.999 0 00-1.414 0l-.293.293L50.414 44l3.293-3.293a.999.999 0 000-1.414l-4-4a.999.999 0 00-1.414 0L46 37.586 40.414 32zM30.586 25L28.5 27.086 4.414 3h4.172zM3 8.586V4.414L27.086 28.5 25 30.586zM55.414 3h4.172L21.5 41.086 19.414 39zM12 48.414L15.586 52 14 53.586 10.414 50zM9 60.586L3.414 55 5 53.414 10.586 59zM7.414 53L9 51.414 12.586 55 11 56.586zM17 50.586L13.414 47 15 45.414 18.586 49zm7 1L12.414 40 15 37.414 26.586 49zM22.914 42.5L61 4.414v4.172l-36 36zm10.5-3.5l2.086-2.086 5.586 5.586L39 44.586zm15 13L52 48.414 53.586 50 50 53.586zm12.172 3L55 60.586 53.414 59 59 53.414zM53 56.586L51.414 55 55 51.414 56.586 53zM50.586 47L47 50.586 45.414 49 49 45.414zM49 37.414L51.586 40 40 51.586 37.414 49zM44.586 39L42.5 41.086 36.914 35.5 39 33.414z"/></svg>