<svg xmlns="http://www.w3.org/2000/svg" viewBox="0 0 512 512"><path fill="currentColor" d="M368.753 219.602c-14.846 42.096-52.249 73.416-97.753 79.193V512h180V375c0-39.346-30.454-71.704-69.023-74.766l49.351-49.351zM331 450h-30v-30h30zm0-60h-30v-30h30zM241 298.795c-45.504-5.777-82.906-37.097-97.753-79.193l-62.574 31.282 49.351 49.351C91.454 303.296 61 335.654 61 375v137h180zM211 450h-30v-30h30zm0-60h-30v-30h30zM421 90h-75V35.288C346 15.835 330.165 0 310.712 0c-15.674 0-22.354 7.896-28.843 15.542C275.541 22.983 269.579 30 256 30c-13.594 0-19.834-7.354-25.869-14.473C223.642 7.896 216.933 0 201.288 0 181.835 0 166 15.835 166 35.288V90H91v30h330zM346 180v-30H166v30c0 49.629 40.371 90 90 90s90-40.371 90-90z"/></svg>