<svg xmlns="http://www.w3.org/2000/svg" viewBox="0 0 33.657 38"><g data-name="Grupo 687" transform="translate(-1142.382 -245.639)"><path data-name="Rectángulo 1164" d="M1156.958 265.574h4.506a14.576 14.576 0 0114.575 14.576 3.489 3.489 0 01-3.489 3.489h-26.679a3.489 3.489 0 01-3.489-3.489 14.576 14.576 0 0114.576-14.576z" fill="#343434"/><rect data-name="Rectángulo 1165" width="4.411" height="4.411" rx="1.592" transform="rotate(-45 902.964 -1260.941)" fill="#eecf82"/><ellipse data-name="Elipse 87" cx="10.517" cy="11.73" rx="10.517" ry="11.73" transform="translate(1148.694 245.71)" fill="#f9bb7d"/><path data-name="Trazado 1361" d="M1149.128 253.244c.359.355 2.071-1.319 3.567-.624.76.353.692.952 1.338 1.391 1.367.929 3.213-.825 6.063-1.378 4.3-.834 7.481 1.735 8.389.472.338-.469.124-1.123-.12-1.855-1.111-3.33-4.972-4.7-5.6-4.929a10.828 10.828 0 00-7.022-.171c-4.827 1.618-7.14 6.573-6.615 7.094z" fill="#343434"/><path data-name="Trazado 1362" d="M1168.118 251.224a19.684 19.684 0 00-1.477-1.956l-4.59-.306a15.478 15.478 0 017.167 12.078 12.947 12.947 0 00.509-3.6 12.666 12.666 0 00-1.609-6.216z" fill="#343434" opacity=".7"/><path data-name="Trazado 1363" d="M1150.303 251.224a19.816 19.816 0 011.477-1.956l4.59-.306a10.7 10.7 0 00-5.512 4.062 10.884 10.884 0 00-1.655 8.016 12.951 12.951 0 01-.509-3.6 12.668 12.668 0 011.609-6.216z" fill="#343434" opacity=".7"/><path data-name="Trazado 1364" d="M1165.398 247.97a12.447 12.447 0 012.758 7.9c0 6.479-4.709 11.73-10.517 11.73a9.755 9.755 0 01-6.187-2.259 10.028 10.028 0 007.759 3.831c5.809 0 10.517-5.252 10.517-11.73a12.172 12.172 0 00-4.33-9.472z" opacity=".1"/><path data-name="Trazado 1365" d="M1159.211 269.583l-3.054 9.62a.784.784 0 00.159.755l2.308 2.611a.783.783 0 001.173 0l2.309-2.611a.784.784 0 00.159-.755z" fill="#eecf82"/></g></svg>