<svg xmlns="http://www.w3.org/2000/svg" viewBox="0 0 25.541 25.637"><g data-name="Grupo 1212" fill="#343434"><path data-name="Trazado 2238" d="M25.522 24.635l-.129-4.754a377.272 377.272 0 00-.154-4.754q-.166-4.754-.427-9.508-.269 4.754-.427 9.508a377.272 377.272 0 00-.154 4.754l-.109 4.03-5.261-.109-5.951-.082c-1.984-.022-3.967-.057-5.951-.058l-4.95-.021c.013-3.636-.024-7.272-.031-10.908l-.067-5.951c-.024-1.719-.042-3.437-.077-5.156l5.124-.108 5.951-.172 5.951-.222 2.976-.133 2.975-.16-2.975-.16L18.86.538 12.909.316 6.958.143 1.007.018.215.001.195.83C.146 2.814.132 4.798.104 6.782l-.067 5.951c-.007 3.968-.054 7.935-.029 11.9l.007 1h.992l5.951-.025c1.984 0 3.968-.036 5.951-.059l5.951-.082 5.951-.124.729-.015z"/><path data-name="Trazado 2239" d="M21.234 18.472l-2.516-2.314-4.434-4.077 3.324-3.244c.742-.719 1.475-1.45 2.226-2.161.572-.895 1.146-1.788 1.651-2.751-.975.481-1.882 1.034-2.791 1.584-.729.734-1.477 1.448-2.215 2.173l-3.386 3.3-4.441-4.083c-.836-.774-1.683-1.537-2.511-2.32-1-.594-2-1.19-3.068-1.713.611 1.019 1.289 1.966 1.964 2.914.85.759 1.681 1.539 2.522 2.308l4.376 4.024-4.339 4.235-2.221 2.167c-.569.9-1.142 1.791-1.656 2.746.967-.491 1.873-1.043 2.785-1.589l2.22-2.168 4.4-4.3 4.5 4.136 2.516 2.314c1.005.59 2.005 1.187 3.063 1.719-.618-1.002-1.297-1.948-1.969-2.9z"/></g></svg>