<svg xmlns="http://www.w3.org/2000/svg" xmlns:xlink="http://www.w3.org/1999/xlink" viewBox="0 0 56.415 43.692"><defs><linearGradient id="a" x1=".822" y1=".739" x2=".116" y2=".243" gradientUnits="objectBoundingBox"><stop offset="0" stop-color="#f2f2f2"/><stop offset=".35" stop-color="#ececec"/><stop offset="1" stop-color="#e6e6e6"/></linearGradient><linearGradient id="b" x1=".795" y1=".727" x2=".1" y2=".228" xlink:href="#a"/></defs><g data-name="Grupo 1280"><path data-name="Trazado 2249" d="M47.834 5.807c-3.43-3.376-7.646-4.65-9.422-2.846q-.919 1.058-1.831 2.123c-2.2 2.568-1.525 1.625-7.792 9.17-1.097 1.317-.978 1.194-2.657 3.222-2.27 2.736-2.477 2.958-4.181 5.017a672.12 672.12 0 00-4.125 5.04l-2.508 3.103-.105.132-.01.013-.914 1.148-4.068 5.106c-.444.56-.897 1.114-1.335 1.676l-.688.866a2.176 2.176 0 002.948 3.144l8.138-5.675 3.768-2.62 11.243-7.785 3.294-2.266 12.552-8.694a2.61 2.61 0 00.623-.43l.07-.05-.026.006.02-.019c1.775-1.802.436-6.006-2.994-9.381zm1.618 8.018c-1.383 1.407-4.665.413-7.335-2.222s-3.71-5.894-2.33-7.299 4.665-.411 7.335 2.224 3.71 5.895 2.329 7.297z" fill="#ddae52"/><path data-name="Trazado 2250" d="M42.205 11.686L8.25 42.306a1.986 1.986 0 00.13.184 1.85 1.85 0 00.178.122l38.225-28.271a9.833 9.833 0 01-4.58-2.655z" fill="#f6dea0"/><g data-name="Grupo 1280"><path data-name="Trazado 2251" d="M691.765 395.455a17.863 17.863 0 003.013 6.748l3.475-1.248a14.578 14.578 0 01-3.035-6.232 13.451 13.451 0 01-.244-1.8q-.008-.008-3.241 2.354c.012.06.019.123.032.178z" transform="rotate(-14.98 -1029.31 2781.06)" fill="url(#a)"/></g><path data-name="Trazado 2252" d="M703.681 390.306a13.623 13.623 0 01-.275-3.328l-3.421 2.433c.059.529.135 1.066.25 1.612a18.422 18.422 0 005.288 9.387l3.785-1.341a15.253 15.253 0 01-5.627-8.763z" transform="rotate(-14.98 -1047.638 2761.617)" fill="url(#b)"/><path data-name="Trazado 2253" d="M32.126 25.183l2.975-2.201a15.26 15.26 0 01-2.808-2.36l-2.609 2.356a18.502 18.502 0 002.442 2.205z" fill="#fff"/><path data-name="Trazado 2254" d="M21.444 33.082a14.656 14.656 0 01-1.337-1.47l-2.637 2.38q.52.633 1.097 1.215 1.44-1.06 2.877-2.125z" fill="#fff"/><path data-name="Trazado 2255" d="M47.86 5.7c-3.462-3.334-7.693-4.564-9.447-2.747s-.37 6 3.094 9.338 7.69 4.565 9.447 2.748.368-6.002-3.094-9.339zm1.495 7.8c-1.307 1.356-4.459.442-7.04-2.047s-3.612-5.601-2.306-6.96 4.46-.44 7.04 2.048 3.612 5.599 2.306 6.96z" fill="#f6dea0"/><path data-name="Trazado 2256" d="M49.355 13.5c-1.307 1.356-4.459.442-7.04-2.047s-3.612-5.601-2.306-6.96 4.46-.44 7.04 2.048 3.613 5.601 2.306 6.96z" fill="#caf4ff"/><path data-name="Trazado 2257" d="M46.246 8.67c-.533.752-2.125.539-3.555-.479s-2.155-2.448-1.621-3.199 2.125-.538 3.555.48 2.155 2.447 1.621 3.198z" fill="#e0f8fc"/></g></svg>