<svg xmlns="http://www.w3.org/2000/svg" xmlns:xlink="http://www.w3.org/1999/xlink" viewBox="0 0 88.117 62.995"><defs><linearGradient id="a" x1=".982" y1=".827" x2="-.276" y2="-.025" gradientUnits="objectBoundingBox"><stop offset="0" stop-opacity="0"/><stop offset="1"/></linearGradient><linearGradient id="b" x1=".5" y1="-.403" x2=".5" y2="1.503" xlink:href="#a"/><linearGradient id="c" x1=".355" y1=".656" x2="1.463" y2="-.135" xlink:href="#a"/></defs><g data-name="Grupo 904"><g data-name="Grupo 597" fill="#a37f72"><path data-name="Trazado 1092" d="M16.909 39.403z"/><path data-name="Trazado 1093" d="M16.958 39.416h.007z"/><path data-name="Trazado 1094" d="M16.667 39.465h-.008z"/></g><path data-name="Rectángulo 1018" d="M40.737 12.97a32.513 32.513 0 0132.514 32.513v1.77H8.224v-1.77A32.513 32.513 0 0140.737 12.97z" fill="#ffd11e"/><path data-name="Trazado 1095" d="M46.191 47.253l-1.66-4.4a1.985 1.985 0 00-1.919-1.283q-1.477.046-2.986.064a157.632 157.632 0 01-15.055-.544 2.687 2.687 0 00-2.02.678l-.3.265 22.712 5.219z" fill="#eaad00"/><path data-name="Trazado 1096" d="M44.967 47.254l-1.356-3.956a1.61 1.61 0 00-1.547-1.088q-3.376.05-6.937-.021a194.91 194.91 0 01-11.628-.592 1.612 1.612 0 00-1.732 1.406l-.531 4.252z" fill="#f4bd0c"/><path data-name="Trazado 1097" d="M8.342 42.707l-1.281 1.234a1.281 1.281 0 00-.392.92v2.391h1.56l1.69-4.546z" fill="#ffda66"/><path data-name="Trazado 1098" d="M41.52 12.98a33.91 33.91 0 00-.782-.01A32.513 32.513 0 008.225 45.483v1.77H9.8v-1.77A32.513 32.513 0 0141.52 12.98z" fill="#ffda66"/><path data-name="Trazado 1099" d="M9.915 42.707l-1.281 1.234a1.279 1.279 0 00-.392.92v2.391h1.56q.054-2.274.113-4.545z" fill="#e5b51c"/><path data-name="Trazado 1100" d="M41.291 26.876a41.828 41.828 0 00-1.28 3.732 41.567 41.567 0 00-.96 4.052l8 2.986a42.345 42.345 0 010-4.159 42.3 42.3 0 01.427-4.265z" fill="#ffda66"/><path data-name="Trazado 1101" d="M50.114 47.944l3.127-9.094a22.012 22.012 0 014.764-2.382 22.672 22.672 0 0110.641-1.059 25.778 25.778 0 00-12.031-.021 25.082 25.082 0 00-5.688 2.142l-.813 10.414z" fill="#ffbc00"/><path data-name="Trazado 1102" d="M50.612 14.495l3.236 5.961a63.287 63.287 0 016.367 5.24 63.04 63.04 0 013.959 4.068 27.054 27.054 0 015.9 10.948l1.762 6.539h1.415v-1.77a32.526 32.526 0 00-22.639-30.986z" fill="#ffca22"/><path data-name="Trazado 1103" d="M21.51 19.26c1.065-.459 10.284-4.3 17.437-1a23.326 23.326 0 015.791 3.922 21.919 21.919 0 013.884 4.567 4.192 4.192 0 003.535 1.957l7.374-.055a1.315 1.315 0 001.167-1.806c-1.422-3.734-5.345-10.2-10.145-12.715-11.894-6.228-27.331 3.968-29.043 5.13z" fill="#ffbc00"/><path data-name="Trazado 1104" d="M21.278 19.431a19.624 19.624 0 0110.337-3.793 19.357 19.357 0 0112.569 3.644 19 19 0 015.245 5.933 4.775 4.775 0 004.143 2.405l4.463.014a2.278 2.278 0 002.045-3.3c-1.867-3.69-5.708-9.3-12.595-11.634-6.587-2.235-12.621-.368-15.5.559a29.846 29.846 0 00-10.707 6.172z" fill="#ffc715"/><path data-name="Rectángulo 1019" opacity=".1" d="M8.219 44.55h65.032v1.656H8.219z"/><path data-name="Rectángulo 1020" d="M7.199 46.222H79.29a2.489 2.489 0 012.489 2.489 4.953 4.953 0 01-4.953 4.953H9.663a4.953 4.953 0 01-4.953-4.953 2.489 2.489 0 012.489-2.489z" fill="#ffd11e"/><path data-name="Trazado 1105" d="M80.509 46.351a1.962 1.962 0 01.129.7v1.559a3.916 3.916 0 01-3.916 3.916H7.484a3.9 3.9 0 01-2.138-.636 3.911 3.911 0 003.28 1.778h69.238a3.916 3.916 0 003.916-3.916v-1.559a1.967 1.967 0 00-1.271-1.842z" fill="#ffbc00"/><path data-name="Trazado 1106" d="M25.118 20.168c-4.118 1.568-6.157 5.443-8.482 9.86l-.039.074a5.547 5.547 0 003.547 7.936q.512.132 1.05.26c5.715 1.355 8.572 2.033 10.814.636 3.083-1.921 3.445-6.382 3.71-9.648.26-3.2.5-6.184-1.484-8.163-2.401-2.394-6.646-1.897-9.116-.955z" fill="#ffda66"/><g transform="rotate(60 38.434 60.222)"><path data-name="Trazado 994" d="M15.018 78.555v-.023a5.119 5.119 0 01-.038-1.316c.014-.146.035-.29.062-.432.191-13.74.606-28.6.777-42.243a15.725 15.725 0 00-2.735-7.271c-2.266-3.158-4.676-3.706-6.988-7.111a15.222 15.222 0 01-.9-1.506h.5v-.65H4.018v.65a15.666 15.666 0 00.875 1.463c2.311 3.407 4.719 3.952 6.989 7.111a15.765 15.765 0 012.736 7.27c-.179 14.227-.623 29.789-.8 44.016a6.221 6.221 0 006.221 6.219c.128 0 .256 0 .382-.012a6.221 6.221 0 01-5.403-6.165z" fill="#32312f"/><g data-name="Grupo 584" fill="#32312f"><path data-name="Trazado 995" d="M26.235 76.836a5.084 5.084 0 00-5.416-4.123 5.084 5.084 0 014.276 5.54 5.1 5.1 0 01-4.534 4.536l-.1.007a5.121 5.121 0 001.3.036 5.1 5.1 0 004.5-4.263v-.055l-.026-1.678z"/><path data-name="Trazado 996" d="M16.485 24.838h4.336a1.2 1.2 0 001.193-1.107l.419-5.6a1.194 1.194 0 00-1.193-1.287h-.9a1.194 1.194 0 01.889 1.242l-.419 5.6a1.2 1.2 0 01-1.191 1.108h-5.99a1.207 1.207 0 00.3.043z"/></g><path data-name="Trazado 997" d="M23.805 0l-2.169 1.5v13.994l5.03-3.029z" fill="#32312f"/><path data-name="Trazado 998" d="M20.827 14.281h-6.3a2.136 2.136 0 01-2.137 2.136h-.034a1.494 1.494 0 00-1.494 1.495v.532a.961.961 0 00.962.962h.338a.322.322 0 00.328-.325.746.746 0 01.746-.746v.914a.155.155 0 00.154.154h.272a.322.322 0 00.32-.322.746.746 0 01.746-.746v.914a.155.155 0 00.154.154h.268a.322.322 0 00.324-.322.746.746 0 01.746-.746v.914a.154.154 0 00.154.154h.268a.321.321 0 00.32-.322.745.745 0 01.74-.745v.913a.155.155 0 00.16.157h.274a.321.321 0 00.32-.325.745.745 0 01.74-.745v.913a.155.155 0 00.154.154h.276a.321.321 0 00.322-.322.745.745 0 01.74-.745v.913a.234.234 0 00.007.032v.122H21.113a.322.322 0 00.322-.322.747.747 0 01.746-.746v.914a.155.155 0 00.154.154h.27a.322.322 0 00.322-.322.747.747 0 01.746-.746v.914a.155.155 0 00.154.154h.268a.322.322 0 00.324-.322.746.746 0 01.746-.746v1.071h.133v-5.125z" fill="#cbcfd1"/><path data-name="Trazado 999" d="M15.819 34.541c-.176 14.227-.621 29.789-.8 44.014a6.221 6.221 0 006.221 6.221 6.22 6.22 0 006.219-6.221c-.177-14.225-.623-29.787-.8-44.014zm5.939 48.291a5.082 5.082 0 114.538-4.538 5.083 5.083 0 01-4.538 4.538z" fill="#a4aaae"/><path data-name="Trazado 1000" d="M21.244 71.112a6.219 6.219 0 015.4 3.128c-.131-10.375-.464-22.783-.646-33.676a4.75 4.75 0 00-4.754-4.673 4.752 4.752 0 00-4.756 4.672c-.18 10.893-.513 23.301-.644 33.676a6.219 6.219 0 015.4-3.127z" fill="#a4aaae"/><g data-name="Grupo 585"><path data-name="Trazado 1001" d="M25.458 40.563c.177 10.619.5 22.672.634 32.882a6.4 6.4 0 01.546.794c-.132-10.375-.464-22.783-.647-33.676a4.75 4.75 0 00-4.75-4.672c-.091 0-.179.009-.267.014a4.746 4.746 0 014.484 4.658z" fill="#4b4e4f"/></g><path data-name="Trazado 1002" d="M21.244 70.577a6.215 6.215 0 00-5.392 3.117c0 .18 0 .365-.008.546a6.219 6.219 0 0110.793 0c0-.18-.006-.365-.008-.546a6.217 6.217 0 00-5.385-3.117z" fill="#cbcfd1"/><g data-name="Grupo 586"><path data-name="Trazado 1003" d="M17.023 40.563a4.746 4.746 0 014.484-4.658c-.089-.005-.177-.014-.263-.014a4.752 4.752 0 00-4.756 4.672c-.18 10.893-.513 23.301-.644 33.676a6.246 6.246 0 01.546-.794c.135-10.21.454-22.263.633-32.882z" fill="#cbcfd1"/></g><path data-name="Trazado 1004" d="M3.665 14.281h9.674V0C8.147 0 3.91 6.329 3.665 14.281z" fill="#a4aaae"/><path data-name="Trazado 1005" d="M3.665 14.281a2.136 2.136 0 01-2.136 2.136H1.5A1.5 1.5 0 000 17.912v.532a.962.962 0 00.963.962h.342a.322.322 0 00.324-.325.746.746 0 01.746-.746v.914a.155.155 0 00.154.154H2.8a.322.322 0 00.321-.322.746.746 0 01.746-.746v.914a.154.154 0 00.154.154h.269a.321.321 0 00.322-.322.747.747 0 01.746-.746v.914a.155.155 0 00.156.154h.268a.321.321 0 00.318-.322.747.747 0 01.746-.746v.914a.155.155 0 00.156.154h.268a.321.321 0 00.33-.322.747.747 0 01.746-.746v.914a.155.155 0 00.156.154h.268a.322.322 0 00.318-.322.747.747 0 01.746-.746v1.071h.133v-5.125z" fill="#cbcfd1"/><path data-name="Trazado 1006" d="M23.806 0v11.637a2.644 2.644 0 01-2.643 2.643H14.13c-.012.244-.012.488-.012.733 0 .621.028 1.23.076 1.831h7.047a1.194 1.194 0 011.193 1.284l-.419 5.6a1.2 1.2 0 01-1.197 1.11h-4.332c.129.231.26.458.4.677h-1.042v9.026H26.66a10.786 10.786 0 012.739-7.271c2.477-2.719 4.092-7.2 4.092-12.257C33.492 6.722 29.154 0 23.806 0z" fill="#a4aaae"/><path data-name="Trazado 1007" d="M5.993 18.152a2.456 2.456 0 00-.116-.993 1.241 1.241 0 00-.7-.666 3 3 0 00-.998-.074l-1.011.006-1.012-.006H1.65a1.766 1.766 0 00-.495.049A1.553 1.553 0 000 17.931a1.557 1.557 0 01.31-.949 1.534 1.534 0 01.834-.56 1.766 1.766 0 01.507-.055h.506l1.011-.008h1.517a1.377 1.377 0 01.5.086 1.276 1.276 0 01.718.694 2.487 2.487 0 01.09 1.013z" fill="#a4aaae"/><rect data-name="Rectángulo 1000" width=".467" height="5.874" rx=".151" transform="rotate(-6.43 176.298 -169.224)" fill="#a4aaae"/><path data-name="Trazado 1008" d="M20.553 18.861a.234.234 0 00-.259-.207.236.236 0 00-.088.029.234.234 0 01.165.2l.609 5.371a.235.235 0 01-.117.23.253.253 0 00.091.008.235.235 0 00.206-.258z" fill="#cbcfd1"/><path data-name="Trazado 1010" d="M19.139 19.611l.492 4.352h1.028l-.492-4.352z" fill="#a4aaae"/><path data-name="Trazado 1011" d="M20.449 22.111l-.282-2.5h-1.028l.06.527a4.1 4.1 0 011.25 1.973z" fill="#cbcfd1"/><rect data-name="Rectángulo 1001" width=".467" height="5.874" rx=".151" transform="rotate(-6.454 174.965 -155.59)" fill="#a4aaae"/><path data-name="Trazado 1012" d="M19.087 18.861a.231.231 0 00-.257-.207.236.236 0 00-.088.029.234.234 0 01.165.2l.609 5.371a.235.235 0 01-.117.23.253.253 0 00.091.008.236.236 0 00.206-.258z" fill="#cbcfd1"/><path data-name="Trazado 1013" d="M17.675 19.611l.492 4.352h1.028l-.492-4.352z" fill="#a4aaae"/><path data-name="Trazado 1014" d="M18.985 22.111l-.282-2.5h-1.028l.06.527a4.1 4.1 0 011.25 1.973z" fill="#cbcfd1"/><rect data-name="Rectángulo 1002" width=".467" height="5.874" rx=".151" transform="rotate(-6.43 174.834 -143.154)" fill="#a4aaae"/><path data-name="Trazado 1015" d="M17.622 18.861a.231.231 0 00-.257-.207.236.236 0 00-.088.029.234.234 0 01.165.2l.609 5.371a.233.233 0 01-.119.23.266.266 0 00.092.008.236.236 0 00.207-.258z" fill="#cbcfd1"/><path data-name="Trazado 1016" d="M16.211 19.611l.492 4.352h1.028l-.492-4.352z" fill="#a4aaae"/><path data-name="Trazado 1017" d="M17.521 22.111l-.282-2.5h-1.028l.06.527a4.107 4.107 0 011.25 1.973z" fill="#cbcfd1"/><rect data-name="Rectángulo 1003" width=".467" height="5.874" rx=".151" transform="rotate(-6.43 174.102 -130.124)" fill="#a4aaae"/><path data-name="Trazado 1018" d="M16.158 18.861a.232.232 0 00-.257-.207.235.235 0 00-.088.029.235.235 0 01.165.2l.609 5.371a.233.233 0 01-.119.23.265.265 0 00.092.008.236.236 0 00.207-.258z" fill="#cbcfd1"/><path data-name="Trazado 1019" d="M14.746 19.611l.492 4.352h1.028l-.492-4.352z" fill="#a4aaae"/><path data-name="Trazado 1020" d="M16.056 22.111l-.282-2.5h-1.028l.06.527a4.106 4.106 0 011.25 1.973z" fill="#cbcfd1"/><rect data-name="Rectángulo 1004" width=".467" height="5.874" rx=".151" transform="rotate(-6.454 172.768 -116.623)" fill="#a4aaae"/><path data-name="Trazado 1021" d="M14.694 18.861a.231.231 0 00-.257-.207.236.236 0 00-.088.029.234.234 0 01.165.2l.609 5.371a.233.233 0 01-.119.23.265.265 0 00.092.008.236.236 0 00.207-.258z" fill="#cbcfd1"/><path data-name="Trazado 1022" d="M13.282 19.611l.492 4.352h1.028l-.492-4.352z" fill="#a4aaae"/><path data-name="Trazado 1023" d="M14.592 22.111l-.282-2.5h-1.028l.06.527a4.106 4.106 0 011.25 1.973z" fill="#cbcfd1"/><rect data-name="Rectángulo 1005" width=".467" height="5.874" rx=".151" transform="rotate(-6.454 172.036 -103.64)" fill="#a4aaae"/><path data-name="Trazado 1024" d="M13.229 18.861a.231.231 0 00-.257-.207.235.235 0 00-.088.029.235.235 0 01.165.2l.609 5.371a.234.234 0 01-.119.23.266.266 0 00.093.008.236.236 0 00.206-.258z" fill="#cbcfd1"/><path data-name="Trazado 1025" d="M11.817 19.611l.492 4.352h1.028l-.492-4.352z" fill="#a4aaae"/><path data-name="Trazado 1026" d="M13.128 22.111l-.282-2.5h-1.028l.059.527a4.1 4.1 0 011.251 1.973z" fill="#cbcfd1"/><path data-name="Trazado 1027" d="M20.624 19.611l.492 4.352h1.028l-.492-4.352z" fill="#a4aaae"/><path data-name="Trazado 1028" d="M21.934 22.111l-.282-2.5h-1.028l.06.527a4.094 4.094 0 011.25 1.973z" fill="#cbcfd1"/><path data-name="Trazado 1029" d="M22.089 19.611l.492 4.352h1.028l-.492-4.352z" fill="#a4aaae"/><path data-name="Trazado 1030" d="M23.4 22.111l-.282-2.5H22.09l.059.527a4.1 4.1 0 011.251 1.973z" fill="#cbcfd1"/><rect data-name="Rectángulo 1006" width=".467" height="5.874" rx=".151" transform="rotate(-6.43 177.03 -182.263)" fill="#a4aaae"/><path data-name="Trazado 1031" d="M22.017 18.861a.232.232 0 00-.259-.207.245.245 0 00-.088.029.234.234 0 01.166.2l.608 5.371a.235.235 0 01-.117.23.263.263 0 00.092.008.234.234 0 00.205-.258z" fill="#cbcfd1"/><path data-name="Trazado 1032" d="M28.365 15.013c0-.245 0-.489-.011-.732H9.681l-1.338-2.375-4.678 2.375a16.168 16.168 0 002.431 5.879c2.312 3.4 4.72 3.952 6.989 7.11a15.725 15.725 0 012.741 7.271h10.813v-9.026H25.6a19.911 19.911 0 002.765-10.502zm-6.352 8.718a1.2 1.2 0 01-1.193 1.107h-6.891a1.2 1.2 0 01-1.193-1.107l-.419-5.6a1.194 1.194 0 011.193-1.286h7.73a1.194 1.194 0 011.193 1.284z" fill="#a4aaae"/><path data-name="Trazado 1033" d="M21.165 14.451v-.17h-17.5l.035.17z" opacity=".2"/><path data-name="Trazado 1034" d="M0 14.281h9.674V0C4.482 0 .245 6.329 0 14.281z" transform="translate(3.665)" fill="url(#a)"/><path data-name="Trazado 1035" d="M11.365 2.266a2.177 2.177 0 01-1.72.811H0a1.192 1.192 0 01.911.423h9.6a1.725 1.725 0 001.731-1.663c0-.2.008-.395.008-.593 0-.419-.014-.834-.035-1.245a4.078 4.078 0 01-.595 1.9 3.918 3.918 0 01-.255.367z" transform="translate(21.24 13.768)" opacity=".3" fill="url(#b)"/><path data-name="Trazado 1036" d="M9.688 0v11.637a2.644 2.644 0 01-2.643 2.643H.012C0 14.524 0 14.768 0 15.013c0 .621.028 1.23.076 1.831h7.047a1.194 1.194 0 011.193 1.284l-.419 5.6a1.2 1.2 0 01-1.197 1.11H2.368c.129.231.26.458.4.677H1.726v9.026h10.816a10.786 10.786 0 012.739-7.271c2.477-2.719 4.092-7.2 4.092-12.257C19.374 6.722 15.036 0 9.688 0z" transform="translate(14.118)" fill="url(#c)"/><path data-name="Trazado 1037" d="M23.636 73.296a5.078 5.078 0 01-3.53 8.727 5.058 5.058 0 01-2.4-.6 5.08 5.08 0 105.93-8.127z" fill="#32312f"/></g></g></svg>